<svg width="111" height="32" viewBox="0 0 111 32" fill="none" xmlns="http://www.w3.org/2000/svg">
<path d="M107.153 23.1131C106.073 24.8286 104.167 25.8453 101.753 25.8453C97.2097 25.8453 93.9375 22.1918 93.9375 16.8864C93.9375 11.6763 97.1462 8.05469 101.626 8.05469C104.294 8.05469 106.486 9.29367 107.535 11.2316L107.884 8.56299H110.902V31.7543H107.153V23.1131ZM97.7815 16.9182C97.7815 20.3175 99.6877 22.7001 102.452 22.7001C105.215 22.7001 107.153 20.2857 107.153 16.8547C107.153 13.5189 105.247 11.1998 102.515 11.1998C99.7194 11.1998 97.7815 13.5507 97.7815 16.9182Z" fill="white"/>
<path d="M76.2773 25.4009V1.57422H80.0261V10.3742C81.1697 8.97637 83.1076 8.05507 85.2997 8.05507C88.8896 8.05507 91.2405 10.4695 91.2405 14.25V25.4009H87.4917V14.4406C87.4917 12.5662 86.2528 11.3273 84.2513 11.3273C81.7098 11.3273 80.0578 13.011 80.0261 15.2031V25.4009H76.2773Z" fill="white"/>
<path d="M57.4102 25.4L63.478 16.9812L57.5055 8.5625H61.699L65.6065 14.1856L69.4823 8.5625H73.6758L67.7033 16.9812L73.7711 25.4H69.5459L65.6065 19.5863L61.6354 25.4H57.4102Z" fill="white"/>
<path d="M46.322 25.8448C42.3191 25.8448 40 23.3668 40 19.7134V8.5625H43.7487V19.5545C43.7487 21.4607 45.083 22.5726 47.0845 22.5726C49.6577 22.5726 51.1826 20.8888 51.2144 18.7285V8.5625H54.9631V25.4H51.9451L51.6592 22.9538C50.6743 24.7646 48.6729 25.8448 46.322 25.8448Z" fill="white"/>
<rect width="31" height="32" rx="5" fill="#14FF14"/>
<path d="M18.3879 20.8871V24.8974C18.3879 25.4121 17.9601 25.8301 17.4364 25.8301H12.6678C12.4183 25.8301 12.1724 25.7311 11.9954 25.5583L6.25316 19.9145C6.07368 19.7381 5.97656 19.5037 5.97656 19.2536V8.11098C5.97656 7.59626 6.40191 7.17578 6.92561 7.17578H11.0058C11.5295 7.17578 11.9573 7.59626 11.9573 8.11098V18.5745C11.9573 19.3345 12.5842 19.9519 13.3587 19.9519H17.4364C17.9601 19.9519 18.3879 20.3724 18.3879 20.8871Z" fill="#242424"/>
<path d="M24.137 7.64954V18.8223C24.137 19.3371 23.7092 19.7575 23.1855 19.7575H19.1078C18.5816 19.7575 18.1562 19.3371 18.1562 18.8223V12.8632C18.1562 12.6131 18.2546 12.3787 18.4353 12.2023L23.3797 7.33901C23.467 7.25443 23.5752 7.21094 23.6883 7.21094C23.7473 7.21094 23.8051 7.22181 23.8641 7.24598C24.0349 7.31485 24.1382 7.46467 24.1382 7.64833L24.137 7.64954Z" fill="#242424"/>
</svg>
