<svg width="112" height="51" viewBox="0 0 112 51" fill="none" xmlns="http://www.w3.org/2000/svg">
<path d="M4.172 47.168C3.45333 47.168 2.828 47.0373 2.296 46.776C1.764 46.5147 1.35333 46.1507 1.064 45.684C0.774667 45.2173 0.63 44.676 0.63 44.06H1.862C1.862 44.4427 1.95067 44.7973 2.128 45.124C2.30533 45.4413 2.562 45.698 2.898 45.894C3.24333 46.0807 3.668 46.174 4.172 46.174C4.61067 46.174 4.984 46.104 5.292 45.964C5.60933 45.8147 5.84733 45.614 6.006 45.362C6.174 45.11 6.258 44.8253 6.258 44.508C6.258 44.1253 6.174 43.8173 6.006 43.584C5.84733 43.3413 5.628 43.1453 5.348 42.996C5.068 42.8467 4.74133 42.716 4.368 42.604C4.004 42.4827 3.62133 42.3567 3.22 42.226C2.44533 41.9647 1.876 41.638 1.512 41.246C1.148 40.854 0.966 40.3453 0.966 39.72C0.966 39.188 1.08733 38.7213 1.33 38.32C1.582 37.9187 1.93667 37.606 2.394 37.382C2.86067 37.1487 3.41133 37.032 4.046 37.032C4.67133 37.032 5.21267 37.1487 5.67 37.382C6.13667 37.6153 6.50067 37.9373 6.762 38.348C7.02333 38.7493 7.154 39.216 7.154 39.748H5.922C5.922 39.4773 5.852 39.2113 5.712 38.95C5.572 38.6887 5.35733 38.474 5.068 38.306C4.788 38.1287 4.43333 38.04 4.004 38.04C3.64933 38.0307 3.332 38.0913 3.052 38.222C2.78133 38.3433 2.56667 38.5207 2.408 38.754C2.25867 38.9873 2.184 39.272 2.184 39.608C2.184 39.9253 2.24933 40.182 2.38 40.378C2.52 40.574 2.716 40.742 2.968 40.882C3.22933 41.0127 3.53267 41.134 3.878 41.246C4.22333 41.358 4.606 41.484 5.026 41.624C5.502 41.7827 5.922 41.9787 6.286 42.212C6.65933 42.436 6.94867 42.7253 7.154 43.08C7.36867 43.4347 7.476 43.8873 7.476 44.438C7.476 44.9047 7.35 45.348 7.098 45.768C6.85533 46.1787 6.49133 46.5147 6.006 46.776C5.52067 47.0373 4.90933 47.168 4.172 47.168ZM12.2791 47.168C11.6164 47.168 11.0191 47.014 10.4871 46.706C9.96443 46.398 9.55376 45.9687 9.25509 45.418C8.95643 44.858 8.80709 44.214 8.80709 43.486C8.80709 42.7393 8.95643 42.0907 9.25509 41.54C9.55376 40.9893 9.96443 40.56 10.4871 40.252C11.0191 39.9347 11.6164 39.776 12.2791 39.776C13.1191 39.776 13.8191 39.9953 14.3791 40.434C14.9391 40.8633 15.2938 41.442 15.4431 42.17H14.2391C14.1458 41.7313 13.9171 41.3907 13.5531 41.148C13.1891 40.9053 12.7598 40.784 12.2651 40.784C11.8638 40.784 11.4904 40.8867 11.1451 41.092C10.7998 41.288 10.5244 41.5867 10.3191 41.988C10.1138 42.3893 10.0111 42.884 10.0111 43.472C10.0111 43.9107 10.0718 44.3027 10.1931 44.648C10.3144 44.984 10.4778 45.264 10.6831 45.488C10.8884 45.712 11.1264 45.8847 11.3971 46.006C11.6771 46.118 11.9664 46.174 12.2651 46.174C12.6011 46.174 12.9044 46.1227 13.1751 46.02C13.4458 45.908 13.6744 45.7447 13.8611 45.53C14.0478 45.3153 14.1738 45.0633 14.2391 44.774H15.4431C15.2938 45.4833 14.9344 46.062 14.3651 46.51C13.8051 46.9487 13.1098 47.168 12.2791 47.168ZM17.1128 47V39.944H18.1768L18.2608 41.288C18.4195 40.9707 18.6201 40.7 18.8628 40.476C19.1148 40.252 19.4135 40.0793 19.7588 39.958C20.1135 39.8367 20.5148 39.776 20.9628 39.776V41.008H20.5288C20.2301 41.008 19.9455 41.05 19.6748 41.134C19.4041 41.2087 19.1615 41.3347 18.9468 41.512C18.7415 41.6893 18.5781 41.932 18.4568 42.24C18.3448 42.5387 18.2888 42.912 18.2888 43.36V47H17.1128ZM25.1847 47.168C24.5314 47.168 23.9434 47.0187 23.4207 46.72C22.898 46.412 22.4874 45.9827 22.1887 45.432C21.89 44.872 21.7407 44.2233 21.7407 43.486C21.7407 42.73 21.89 42.0767 22.1887 41.526C22.4967 40.966 22.912 40.5367 23.4347 40.238C23.9667 39.93 24.5594 39.776 25.2127 39.776C25.8847 39.776 26.4774 39.93 26.9907 40.238C27.5134 40.5367 27.924 40.966 28.2227 41.526C28.5307 42.0767 28.6847 42.7253 28.6847 43.472C28.6847 44.2187 28.5307 44.872 28.2227 45.432C27.9147 45.9827 27.4994 46.412 26.9767 46.72C26.454 47.0187 25.8567 47.168 25.1847 47.168ZM25.1987 46.16C25.6 46.16 25.9734 46.062 26.3187 45.866C26.664 45.6607 26.944 45.3573 27.1587 44.956C27.3734 44.5547 27.4807 44.06 27.4807 43.472C27.4807 42.8747 27.3734 42.38 27.1587 41.988C26.9534 41.5867 26.678 41.288 26.3327 41.092C25.9967 40.8867 25.6234 40.784 25.2127 40.784C24.8207 40.784 24.4474 40.8867 24.0927 41.092C23.7474 41.288 23.4674 41.5867 23.2527 41.988C23.0474 42.38 22.9447 42.8747 22.9447 43.472C22.9447 44.06 23.0474 44.5547 23.2527 44.956C23.4674 45.3573 23.7427 45.6607 24.0787 45.866C24.424 46.062 24.7974 46.16 25.1987 46.16ZM30.3335 47V36.92H31.5095V47H30.3335ZM33.4507 47V36.92H34.6267V47H33.4507ZM43.0586 47C42.6386 47 42.2746 46.9347 41.9666 46.804C41.6586 46.6733 41.4206 46.454 41.2526 46.146C41.094 45.8287 41.0146 45.404 41.0146 44.872V40.938H39.7826V39.944H41.0146L41.1686 38.236H42.1906V39.944H44.2346V40.938H42.1906V44.872C42.1906 45.3107 42.2793 45.6093 42.4566 45.768C42.634 45.9173 42.9466 45.992 43.3946 45.992H44.1506V47H43.0586ZM48.7277 47.168C48.0743 47.168 47.4863 47.0187 46.9637 46.72C46.441 46.412 46.0303 45.9827 45.7317 45.432C45.433 44.872 45.2837 44.2233 45.2837 43.486C45.2837 42.73 45.433 42.0767 45.7317 41.526C46.0397 40.966 46.455 40.5367 46.9777 40.238C47.5097 39.93 48.1023 39.776 48.7557 39.776C49.4277 39.776 50.0203 39.93 50.5337 40.238C51.0563 40.5367 51.467 40.966 51.7657 41.526C52.0737 42.0767 52.2277 42.7253 52.2277 43.472C52.2277 44.2187 52.0737 44.872 51.7657 45.432C51.4577 45.9827 51.0423 46.412 50.5197 46.72C49.997 47.0187 49.3997 47.168 48.7277 47.168ZM48.7417 46.16C49.143 46.16 49.5163 46.062 49.8617 45.866C50.207 45.6607 50.487 45.3573 50.7017 44.956C50.9163 44.5547 51.0237 44.06 51.0237 43.472C51.0237 42.8747 50.9163 42.38 50.7017 41.988C50.4963 41.5867 50.221 41.288 49.8757 41.092C49.5397 40.8867 49.1663 40.784 48.7557 40.784C48.3637 40.784 47.9903 40.8867 47.6357 41.092C47.2903 41.288 47.0103 41.5867 46.7957 41.988C46.5903 42.38 46.4877 42.8747 46.4877 43.472C46.4877 44.06 46.5903 44.5547 46.7957 44.956C47.0103 45.3573 47.2857 45.6607 47.6217 45.866C47.967 46.062 48.3403 46.16 48.7417 46.16ZM57.6652 47V37.2H63.7272V38.166H58.8412V41.582H63.3072V42.534H58.8412V46.034H63.7272V47H57.6652ZM64.8113 47L67.2053 43.472L64.8113 39.944H66.0993L68.0033 42.828L69.9353 39.944H71.1953L68.8013 43.472L71.1953 47H69.9353L68.0033 44.102L66.0993 47H64.8113ZM72.4566 50.08V39.944H73.5206L73.6186 41.092C73.7679 40.868 73.9592 40.658 74.1926 40.462C74.4259 40.2567 74.7059 40.0933 75.0326 39.972C75.3592 39.8413 75.7326 39.776 76.1526 39.776C76.8432 39.776 77.4406 39.9393 77.9446 40.266C78.4579 40.5927 78.8546 41.036 79.1346 41.596C79.4239 42.1467 79.5686 42.7767 79.5686 43.486C79.5686 44.1953 79.4239 44.83 79.1346 45.39C78.8546 45.9407 78.4579 46.3747 77.9446 46.692C77.4312 47.0093 76.8292 47.168 76.1386 47.168C75.5692 47.168 75.0652 47.0513 74.6266 46.818C74.1972 46.5847 73.8659 46.258 73.6326 45.838V50.08H72.4566ZM76.0126 46.146C76.4699 46.146 76.8759 46.034 77.2306 45.81C77.5852 45.586 77.8606 45.278 78.0566 44.886C78.2619 44.4847 78.3646 44.0133 78.3646 43.472C78.3646 42.94 78.2619 42.4733 78.0566 42.072C77.8606 41.6707 77.5852 41.358 77.2306 41.134C76.8759 40.91 76.4699 40.798 76.0126 40.798C75.5459 40.798 75.1352 40.91 74.7806 41.134C74.4259 41.358 74.1506 41.6707 73.9546 42.072C73.7586 42.4733 73.6606 42.94 73.6606 43.472C73.6606 44.0133 73.7586 44.4847 73.9546 44.886C74.1506 45.278 74.4259 45.586 74.7806 45.81C75.1352 46.034 75.5459 46.146 76.0126 46.146ZM81.2202 47V36.92H82.3962V47H81.2202ZM87.4874 47.168C86.8341 47.168 86.2461 47.0187 85.7234 46.72C85.2008 46.412 84.7901 45.9827 84.4914 45.432C84.1928 44.872 84.0434 44.2233 84.0434 43.486C84.0434 42.73 84.1928 42.0767 84.4914 41.526C84.7994 40.966 85.2148 40.5367 85.7374 40.238C86.2694 39.93 86.8621 39.776 87.5154 39.776C88.1874 39.776 88.7801 39.93 89.2934 40.238C89.8161 40.5367 90.2268 40.966 90.5254 41.526C90.8334 42.0767 90.9874 42.7253 90.9874 43.472C90.9874 44.2187 90.8334 44.872 90.5254 45.432C90.2174 45.9827 89.8021 46.412 89.2794 46.72C88.7568 47.0187 88.1594 47.168 87.4874 47.168ZM87.5014 46.16C87.9028 46.16 88.2761 46.062 88.6214 45.866C88.9668 45.6607 89.2468 45.3573 89.4614 44.956C89.6761 44.5547 89.7834 44.06 89.7834 43.472C89.7834 42.8747 89.6761 42.38 89.4614 41.988C89.2561 41.5867 88.9808 41.288 88.6354 41.092C88.2994 40.8867 87.9261 40.784 87.5154 40.784C87.1234 40.784 86.7501 40.8867 86.3954 41.092C86.0501 41.288 85.7701 41.5867 85.5554 41.988C85.3501 42.38 85.2474 42.8747 85.2474 43.472C85.2474 44.06 85.3501 44.5547 85.5554 44.956C85.7701 45.3573 86.0454 45.6607 86.3814 45.866C86.7268 46.062 87.1001 46.16 87.5014 46.16ZM92.6363 47V39.944H93.7003L93.7843 41.288C93.9429 40.9707 94.1436 40.7 94.3863 40.476C94.6383 40.252 94.9369 40.0793 95.2823 39.958C95.6369 39.8367 96.0383 39.776 96.4863 39.776V41.008H96.0523C95.7536 41.008 95.4689 41.05 95.1983 41.134C94.9276 41.2087 94.6849 41.3347 94.4703 41.512C94.2649 41.6893 94.1016 41.932 93.9803 42.24C93.8683 42.5387 93.8123 42.912 93.8123 43.36V47H92.6363ZM100.652 47.168C99.9895 47.168 99.4015 47.014 98.8881 46.706C98.3841 46.398 97.9875 45.9687 97.6981 45.418C97.4088 44.858 97.2641 44.2093 97.2641 43.472C97.2641 42.7253 97.4041 42.0767 97.6841 41.526C97.9735 40.9753 98.3748 40.546 98.8881 40.238C99.4108 39.93 100.008 39.776 100.68 39.776C101.371 39.776 101.954 39.93 102.43 40.238C102.915 40.546 103.284 40.952 103.536 41.456C103.797 41.9507 103.928 42.4967 103.928 43.094C103.928 43.1873 103.928 43.2853 103.928 43.388C103.928 43.4907 103.923 43.6073 103.914 43.738H98.1461V42.828H102.78C102.752 42.184 102.537 41.68 102.136 41.316C101.744 40.952 101.249 40.77 100.652 40.77C100.251 40.77 99.8775 40.8633 99.5321 41.05C99.1961 41.2273 98.9255 41.4933 98.7201 41.848C98.5148 42.1933 98.4121 42.6273 98.4121 43.15V43.542C98.4121 44.1207 98.5148 44.606 98.7201 44.998C98.9348 45.39 99.2101 45.684 99.5461 45.88C99.8915 46.076 100.26 46.174 100.652 46.174C101.147 46.174 101.553 46.0667 101.87 45.852C102.197 45.628 102.43 45.3293 102.57 44.956H103.732C103.62 45.376 103.424 45.754 103.144 46.09C102.864 46.426 102.514 46.692 102.094 46.888C101.683 47.0747 101.203 47.168 100.652 47.168Z" fill="#242424"/>
<path d="M52 25.4774V1" stroke="#14FF14" stroke-width="1.06423" stroke-linecap="round"/>
</svg>
