<svg width="38" height="36" viewBox="0 0 38 36" fill="none" xmlns="http://www.w3.org/2000/svg">
<path d="M35.1871 0H2.80547C1.2543 0 0 1.16016 0 2.59453V33.3984C0 34.8328 1.2543 36 2.80547 36H35.1871C36.7383 36 38 34.8328 38 33.4055V2.59453C38 1.16016 36.7383 0 35.1871 0ZM11.2738 30.6773H5.6332V13.493H11.2738V30.6773ZM8.45352 11.1516C6.64258 11.1516 5.18047 9.76641 5.18047 8.05781C5.18047 6.34922 6.64258 4.96406 8.45352 4.96406C10.257 4.96406 11.7191 6.34922 11.7191 8.05781C11.7191 9.75937 10.257 11.1516 8.45352 11.1516ZM32.3816 30.6773H26.7484V22.3242C26.7484 20.3344 26.7113 17.768 23.8168 17.768C20.8852 17.768 20.4398 19.9406 20.4398 22.1836V30.6773H14.8141V13.493H20.2172V15.8414H20.2914C21.041 14.4914 22.8816 13.0641 25.6203 13.0641C31.3277 13.0641 32.3816 16.6219 32.3816 21.2484V30.6773Z" fill="#242424"/>
</svg>
