<svg width="38" height="36" viewBox="0 0 38 36" fill="none" xmlns="http://www.w3.org/2000/svg">
<path d="M35.1871 0H2.80547C1.2543 0 0 1.16016 0 2.59453V33.3984C0 34.8328 1.2543 36 2.80547 36H35.1871C36.7383 36 38 34.8328 38 33.4055V2.59453C38 1.16016 36.7383 0 35.1871 0Z" fill="#14FF14"/>
<path d="M11.0934 30.7133H5.45273V13.5289H11.0934V30.7133ZM8.27305 11.1875C6.46211 11.1875 5 9.80234 5 8.09375C5 6.38516 6.46211 5 8.27305 5C10.0766 5 11.5387 6.38516 11.5387 8.09375C11.5387 9.79531 10.0766 11.1875 8.27305 11.1875ZM32.2012 30.7133H26.568V22.3602C26.568 20.3703 26.5309 17.8039 23.6363 17.8039C20.7047 17.8039 20.2594 19.9766 20.2594 22.2195V30.7133H14.6336V13.5289H20.0367V15.8773H20.1109C20.8605 14.5273 22.7012 13.1 25.4398 13.1C31.1473 13.1 32.2012 16.6578 32.2012 21.2844V30.7133Z" fill="#242424"/>
</svg>
