<svg width="22" height="22" viewBox="0 0 22 22" fill="none" xmlns="http://www.w3.org/2000/svg">
<rect y="0.00701904" width="21.1602" height="21.8427" rx="1" fill="#14FF14"/>
<path d="M12.5529 14.2632V17.0005C12.5529 17.3518 12.2609 17.6372 11.9034 17.6372H8.64844C8.47809 17.6372 8.31027 17.5696 8.18943 17.4516L4.26986 13.5993C4.14735 13.4789 4.08105 13.3189 4.08105 13.1481V5.5424C4.08105 5.19106 4.37139 4.90405 4.72886 4.90405H7.51393C7.8714 4.90405 8.16342 5.19106 8.16342 5.5424V12.6846C8.16342 13.2034 8.59138 13.6248 9.12003 13.6248H11.9034C12.2609 13.6248 12.5529 13.9119 12.5529 14.2632Z" fill="#242424"/>
<path d="M16.4773 5.22707C16.477 5.22733 16.4769 5.22769 16.4769 5.22807V12.8538C16.4769 13.2052 16.1849 13.4922 15.8274 13.4922H13.044C12.6849 13.4922 12.3945 13.2052 12.3945 12.8538V8.78623C12.3945 8.61551 12.4617 8.45551 12.585 8.3351L15.96 5.01552C16.0196 4.95779 16.0934 4.9281 16.1706 4.9281C16.2109 4.9281 16.2503 4.93552 16.2906 4.95202C16.4071 4.99895 16.4775 5.10097 16.4777 5.22607C16.4777 5.22644 16.4776 5.2268 16.4773 5.22707Z" fill="#242424"/>
</svg>
