<svg width="645" height="324" viewBox="0 0 645 324" fill="none" xmlns="http://www.w3.org/2000/svg">
<path d="M101.5 245L248.659 19" stroke="#242424" stroke-width="2" stroke-dasharray="2 2"/>
<path d="M257 2L189.823 258.51L2.90137 93.4563L257 2Z" fill="#14FF14" stroke="#242424" stroke-width="2"/>
<path d="M189.597 257.975L101.5 245L2.90157 93.5247" stroke="#242424" stroke-width="2" stroke-linecap="round"/>
<path d="M189.823 257.989L2.90972 93.5191" stroke="#242424" stroke-width="2" stroke-linecap="round"/>
<path d="M90.7755 114.3C89.0422 114.3 87.5422 113.925 86.2755 113.175C85.0255 112.408 84.0589 111.35 83.3755 110C82.7089 108.633 82.3755 107.058 82.3755 105.275C82.3755 103.475 82.7089 101.9 83.3755 100.55C84.0589 99.1833 85.0255 98.1167 86.2755 97.35C87.5422 96.5833 89.0422 96.2 90.7755 96.2C92.8589 96.2 94.5589 96.7167 95.8755 97.75C97.1922 98.7667 98.0255 100.208 98.3755 102.075H95.0755C94.8422 101.092 94.3672 100.317 93.6505 99.75C92.9339 99.1833 91.9672 98.9 90.7505 98.9C89.6505 98.9 88.7005 99.1583 87.9005 99.675C87.1172 100.175 86.5089 100.908 86.0755 101.875C85.6589 102.825 85.4505 103.958 85.4505 105.275C85.4505 106.592 85.6589 107.725 86.0755 108.675C86.5089 109.608 87.1172 110.333 87.9005 110.85C88.7005 111.35 89.6505 111.6 90.7505 111.6C91.9672 111.6 92.9339 111.342 93.6505 110.825C94.3672 110.292 94.8422 109.558 95.0755 108.625H98.3755C98.0422 110.392 97.2089 111.783 95.8755 112.8C94.5589 113.8 92.8589 114.3 90.7755 114.3ZM101.211 114V101.4H103.886L104.161 103.75C104.461 103.2 104.836 102.733 105.286 102.35C105.736 101.95 106.261 101.642 106.861 101.425C107.478 101.208 108.153 101.1 108.886 101.1V104.275H107.836C107.336 104.275 106.861 104.342 106.411 104.475C105.961 104.592 105.569 104.792 105.236 105.075C104.919 105.342 104.669 105.717 104.486 106.2C104.303 106.667 104.211 107.258 104.211 107.975V114H101.211ZM116.779 114.3C115.529 114.3 114.429 114.033 113.479 113.5C112.529 112.95 111.787 112.183 111.254 111.2C110.721 110.217 110.454 109.083 110.454 107.8C110.454 106.467 110.712 105.3 111.229 104.3C111.762 103.3 112.504 102.517 113.454 101.95C114.421 101.383 115.537 101.1 116.804 101.1C118.037 101.1 119.112 101.375 120.029 101.925C120.946 102.475 121.654 103.217 122.154 104.15C122.654 105.067 122.904 106.1 122.904 107.25C122.904 107.417 122.904 107.6 122.904 107.8C122.904 108 122.887 108.208 122.854 108.425H112.604V106.5H119.879C119.846 105.583 119.537 104.867 118.954 104.35C118.371 103.817 117.646 103.55 116.779 103.55C116.162 103.55 115.596 103.692 115.079 103.975C114.562 104.258 114.154 104.683 113.854 105.25C113.554 105.8 113.404 106.5 113.404 107.35V108.075C113.404 108.858 113.546 109.533 113.829 110.1C114.129 110.667 114.529 111.1 115.029 111.4C115.546 111.683 116.121 111.825 116.754 111.825C117.454 111.825 118.029 111.675 118.479 111.375C118.946 111.075 119.287 110.675 119.504 110.175H122.554C122.321 110.958 121.937 111.667 121.404 112.3C120.871 112.917 120.212 113.408 119.429 113.775C118.646 114.125 117.762 114.3 116.779 114.3ZM129.874 114.3C128.841 114.3 127.982 114.125 127.299 113.775C126.616 113.425 126.107 112.958 125.774 112.375C125.441 111.792 125.274 111.158 125.274 110.475C125.274 109.675 125.474 108.983 125.874 108.4C126.291 107.817 126.899 107.367 127.699 107.05C128.499 106.717 129.482 106.55 130.649 106.55H133.824C133.824 105.883 133.732 105.333 133.549 104.9C133.366 104.45 133.082 104.117 132.699 103.9C132.316 103.683 131.824 103.575 131.224 103.575C130.541 103.575 129.957 103.733 129.474 104.05C128.991 104.35 128.691 104.817 128.574 105.45H125.624C125.724 104.55 126.024 103.783 126.524 103.15C127.024 102.5 127.682 102 128.499 101.65C129.332 101.283 130.241 101.1 131.224 101.1C132.407 101.1 133.416 101.308 134.249 101.725C135.082 102.125 135.716 102.708 136.149 103.475C136.599 104.225 136.824 105.133 136.824 106.2V114H134.274L133.974 111.975C133.807 112.308 133.591 112.617 133.324 112.9C133.074 113.183 132.782 113.433 132.449 113.65C132.116 113.85 131.732 114.008 131.299 114.125C130.882 114.242 130.407 114.3 129.874 114.3ZM130.549 111.925C131.032 111.925 131.457 111.842 131.824 111.675C132.207 111.492 132.532 111.242 132.799 110.925C133.082 110.592 133.299 110.225 133.449 109.825C133.599 109.425 133.699 109 133.749 108.55V108.5H130.974C130.391 108.5 129.907 108.575 129.524 108.725C129.141 108.858 128.866 109.058 128.699 109.325C128.532 109.592 128.449 109.9 128.449 110.25C128.449 110.6 128.532 110.9 128.699 111.15C128.866 111.4 129.107 111.592 129.424 111.725C129.741 111.858 130.116 111.925 130.549 111.925ZM145.309 114C144.459 114 143.717 113.867 143.084 113.6C142.467 113.333 141.984 112.892 141.634 112.275C141.284 111.658 141.109 110.825 141.109 109.775V103.925H138.959V101.4H141.109L141.459 98.075H144.109V101.4H147.534V103.925H144.109V109.775C144.109 110.408 144.242 110.85 144.509 111.1C144.792 111.333 145.259 111.45 145.909 111.45H147.459V114H145.309ZM150.482 114V101.4H153.482V114H150.482ZM151.982 99.4C151.432 99.4 150.973 99.2333 150.607 98.9C150.257 98.55 150.082 98.125 150.082 97.625C150.082 97.1083 150.257 96.6917 150.607 96.375C150.973 96.0417 151.432 95.875 151.982 95.875C152.532 95.875 152.982 96.0417 153.332 96.375C153.698 96.6917 153.882 97.1083 153.882 97.625C153.882 98.125 153.698 98.55 153.332 98.9C152.982 99.2333 152.532 99.4 151.982 99.4ZM160.398 114L155.748 101.4H158.898L162.223 111.15L165.548 101.4H168.648L163.998 114H160.398ZM170.916 114V101.4H173.916V114H170.916ZM172.416 99.4C171.866 99.4 171.408 99.2333 171.041 98.9C170.691 98.55 170.516 98.125 170.516 97.625C170.516 97.1083 170.691 96.6917 171.041 96.375C171.408 96.0417 171.866 95.875 172.416 95.875C172.966 95.875 173.416 96.0417 173.766 96.375C174.133 96.6917 174.316 97.1083 174.316 97.625C174.316 98.125 174.133 98.55 173.766 98.9C173.416 99.2333 172.966 99.4 172.416 99.4ZM182.858 114C182.008 114 181.266 113.867 180.633 113.6C180.016 113.333 179.533 112.892 179.183 112.275C178.833 111.658 178.658 110.825 178.658 109.775V103.925H176.508V101.4H178.658L179.008 98.075H181.658V101.4H185.083V103.925H181.658V109.775C181.658 110.408 181.791 110.85 182.058 111.1C182.341 111.333 182.808 111.45 183.458 111.45H185.008V114H182.858ZM189.43 119.5L192.505 112.6H191.755L186.73 101.4H190.005L193.755 109.95L197.305 101.4H200.48L192.605 119.5H189.43Z" fill="#242424"/>
<path d="M89.9857 199.766C89.175 199.766 88.4497 199.628 87.8097 199.35C87.1804 199.073 86.679 198.668 86.3057 198.134C85.943 197.601 85.7564 196.956 85.7457 196.198H88.0337C88.0444 196.529 88.1297 196.828 88.2897 197.094C88.4497 197.361 88.6684 197.574 88.9457 197.734C89.2337 197.884 89.575 197.958 89.9697 197.958C90.311 197.958 90.6044 197.905 90.8497 197.798C91.1057 197.681 91.303 197.521 91.4417 197.318C91.5804 197.116 91.6497 196.876 91.6497 196.598C91.6497 196.278 91.5697 196.012 91.4097 195.798C91.2604 195.585 91.047 195.404 90.7697 195.254C90.503 195.105 90.1884 194.972 89.8257 194.854C89.4737 194.726 89.1004 194.593 88.7057 194.454C87.8204 194.166 87.143 193.782 86.6737 193.302C86.215 192.822 85.9857 192.188 85.9857 191.398C85.9857 190.726 86.1457 190.15 86.4657 189.67C86.7964 189.19 87.2497 188.822 87.8257 188.566C88.4017 188.31 89.0577 188.182 89.7937 188.182C90.551 188.182 91.2124 188.316 91.7777 188.582C92.3537 188.838 92.807 189.212 93.1377 189.702C93.479 190.193 93.655 190.769 93.6657 191.43H91.3617C91.351 191.185 91.2764 190.956 91.1377 190.742C91.0097 190.518 90.8284 190.342 90.5937 190.214C90.359 190.076 90.0817 190.006 89.7617 190.006C89.4844 189.996 89.2284 190.038 88.9937 190.134C88.7697 190.23 88.5884 190.374 88.4497 190.566C88.3217 190.748 88.2577 190.977 88.2577 191.254C88.2577 191.521 88.3217 191.745 88.4497 191.926C88.5884 192.108 88.775 192.268 89.0097 192.406C89.2444 192.534 89.5217 192.657 89.8417 192.774C90.1617 192.881 90.5084 192.993 90.8817 193.11C91.4364 193.302 91.9484 193.532 92.4177 193.798C92.887 194.054 93.2604 194.39 93.5377 194.806C93.815 195.222 93.9537 195.772 93.9537 196.454C93.9537 197.041 93.799 197.585 93.4897 198.086C93.1804 198.588 92.7324 198.993 92.1457 199.302C91.5697 199.612 90.8497 199.766 89.9857 199.766Z" fill="#242424"/>
<path d="M131.676 236.021V224.821H136.268C137.046 224.821 137.702 224.944 138.236 225.189C138.769 225.435 139.169 225.776 139.436 226.213C139.713 226.64 139.852 227.136 139.852 227.701C139.852 228.267 139.729 228.741 139.484 229.125C139.238 229.509 138.913 229.808 138.508 230.021C138.113 230.224 137.676 230.341 137.196 230.373L137.452 230.197C137.964 230.219 138.417 230.357 138.812 230.613C139.217 230.859 139.532 231.189 139.756 231.605C139.99 232.021 140.108 232.475 140.108 232.965C140.108 233.563 139.964 234.091 139.676 234.549C139.388 235.008 138.972 235.371 138.428 235.637C137.884 235.893 137.217 236.021 136.428 236.021H131.676ZM133.836 234.261H136.076C136.662 234.261 137.116 234.128 137.436 233.861C137.756 233.595 137.916 233.211 137.916 232.709C137.916 232.208 137.75 231.819 137.42 231.541C137.089 231.253 136.63 231.109 136.044 231.109H133.836V234.261ZM133.836 229.493H135.916C136.481 229.493 136.908 229.365 137.196 229.109C137.494 228.853 137.644 228.491 137.644 228.021C137.644 227.563 137.494 227.205 137.196 226.949C136.908 226.683 136.476 226.549 135.9 226.549H133.836V229.493Z" fill="#242424"/>
<circle cx="563.607" cy="252.707" r="4.22206" fill="#14FF14"/>
<circle cx="311.222" cy="252.707" r="4.22206" fill="#14FF14"/>
<circle cx="436.946" cy="32.2221" r="4.22206" fill="#14FF14"/>
<path d="M437.247 196.882V35.7539" stroke="#242424" stroke-width="2" stroke-dasharray="2 2"/>
<path d="M311.253 251.48L436.691 197.338L562.007 251.48" stroke="#242424" stroke-width="2" stroke-dasharray="2 2"/>
<path d="M384.909 19.192C383.789 19.192 382.824 18.952 382.013 18.472C381.213 17.9813 380.595 17.304 380.157 16.44C379.731 15.5653 379.517 14.5573 379.517 13.416C379.517 12.2747 379.731 11.2667 380.157 10.392C380.595 9.51733 381.213 8.83467 382.013 8.344C382.824 7.85333 383.789 7.608 384.909 7.608C386.264 7.608 387.373 7.944 388.237 8.616C389.101 9.288 389.64 10.2373 389.853 11.464H387.501C387.363 10.8667 387.069 10.4027 386.621 10.072C386.184 9.73067 385.608 9.56 384.893 9.56C384.232 9.56 383.661 9.72 383.181 10.04C382.712 10.3493 382.349 10.792 382.093 11.368C381.837 11.9333 381.709 12.616 381.709 13.416C381.709 14.2053 381.837 14.888 382.093 15.464C382.349 16.04 382.712 16.4827 383.181 16.792C383.661 17.1013 384.232 17.256 384.893 17.256C385.608 17.256 386.184 17.1013 386.621 16.792C387.059 16.472 387.347 16.0293 387.485 15.464H389.853C389.64 16.6267 389.101 17.5387 388.237 18.2C387.373 18.8613 386.264 19.192 384.909 19.192ZM391.65 19V10.936H393.57L393.778 12.424C393.97 12.072 394.21 11.7733 394.498 11.528C394.796 11.2827 395.132 11.0907 395.506 10.952C395.89 10.8133 396.311 10.744 396.77 10.744V13.032H396.034C395.714 13.032 395.415 13.0693 395.138 13.144C394.871 13.2187 394.636 13.3413 394.434 13.512C394.231 13.672 394.076 13.896 393.97 14.184C393.863 14.472 393.81 14.8347 393.81 15.272V19H391.65ZM401.944 19.192C401.133 19.192 400.413 19.0213 399.784 18.68C399.165 18.328 398.68 17.8427 398.328 17.224C397.986 16.5947 397.816 15.8693 397.816 15.048C397.816 14.2053 397.986 13.464 398.328 12.824C398.68 12.1733 399.165 11.6667 399.784 11.304C400.402 10.9307 401.122 10.744 401.944 10.744C402.744 10.744 403.442 10.92 404.04 11.272C404.637 11.624 405.101 12.0987 405.432 12.696C405.762 13.2933 405.928 13.9707 405.928 14.728C405.928 14.8347 405.928 14.9573 405.928 15.096C405.928 15.224 405.917 15.3573 405.896 15.496H399.352V14.184H403.752C403.72 13.6613 403.533 13.2507 403.192 12.952C402.861 12.6533 402.445 12.504 401.944 12.504C401.581 12.504 401.245 12.5893 400.936 12.76C400.626 12.92 400.381 13.1707 400.2 13.512C400.029 13.8533 399.944 14.2853 399.944 14.808V15.272C399.944 15.7093 400.024 16.0933 400.184 16.424C400.354 16.744 400.589 16.9947 400.888 17.176C401.186 17.3467 401.533 17.432 401.928 17.432C402.322 17.432 402.648 17.3467 402.904 17.176C403.17 17.0053 403.368 16.7867 403.496 16.52H405.704C405.554 17.0213 405.304 17.4747 404.952 17.88C404.6 18.2853 404.168 18.6053 403.656 18.84C403.144 19.0747 402.573 19.192 401.944 19.192ZM410.417 19.192C409.745 19.192 409.19 19.0853 408.753 18.872C408.315 18.648 407.99 18.3547 407.777 17.992C407.574 17.6187 407.473 17.208 407.473 16.76C407.473 16.2693 407.595 15.8373 407.841 15.464C408.097 15.0907 408.475 14.7973 408.977 14.584C409.489 14.3707 410.129 14.264 410.897 14.264H412.897C412.897 13.8693 412.843 13.544 412.737 13.288C412.63 13.0213 412.465 12.824 412.241 12.696C412.017 12.568 411.718 12.504 411.345 12.504C410.939 12.504 410.593 12.5947 410.305 12.776C410.027 12.9467 409.857 13.2133 409.793 13.576H407.697C407.75 13 407.937 12.504 408.257 12.088C408.587 11.6613 409.019 11.3307 409.553 11.096C410.097 10.8613 410.699 10.744 411.361 10.744C412.118 10.744 412.774 10.872 413.329 11.128C413.883 11.384 414.31 11.752 414.609 12.232C414.907 12.712 415.057 13.304 415.057 14.008V19H413.233L412.993 17.768C412.875 17.9813 412.737 18.1733 412.577 18.344C412.417 18.5147 412.23 18.664 412.017 18.792C411.803 18.92 411.563 19.016 411.297 19.08C411.03 19.1547 410.737 19.192 410.417 19.192ZM410.929 17.528C411.206 17.528 411.451 17.48 411.665 17.384C411.889 17.2773 412.081 17.1387 412.241 16.968C412.401 16.7867 412.523 16.584 412.609 16.36C412.705 16.1253 412.769 15.8747 412.801 15.608V15.592H411.153C410.822 15.592 410.55 15.6347 410.337 15.72C410.134 15.7947 409.985 15.9067 409.889 16.056C409.793 16.2053 409.745 16.376 409.745 16.568C409.745 16.7813 409.793 16.9573 409.889 17.096C409.985 17.2347 410.123 17.3413 410.305 17.416C410.486 17.4907 410.694 17.528 410.929 17.528ZM420.61 19C420.045 19 419.549 18.9147 419.122 18.744C418.706 18.5627 418.381 18.2693 418.146 17.864C417.911 17.448 417.794 16.8827 417.794 16.168V12.744H416.418V10.936H417.794L418.034 8.744H419.954V10.936H422.082V12.744H419.954V16.2C419.954 16.5627 420.034 16.8133 420.194 16.952C420.354 17.0907 420.626 17.16 421.01 17.16H422.066V19H420.61ZM423.948 19V10.936H426.108V19H423.948ZM425.036 9.832C424.652 9.832 424.332 9.72 424.076 9.496C423.83 9.26133 423.708 8.968 423.708 8.616C423.708 8.264 423.83 7.976 424.076 7.752C424.332 7.51733 424.652 7.4 425.036 7.4C425.43 7.4 425.75 7.51733 425.996 7.752C426.252 7.976 426.38 8.264 426.38 8.616C426.38 8.968 426.252 9.26133 425.996 9.496C425.75 9.72 425.43 9.832 425.036 9.832ZM430.45 19L427.49 10.936H429.762L431.762 16.968L433.762 10.936H436.018L433.074 19H430.45ZM437.385 19V10.936H439.545V19H437.385ZM438.473 9.832C438.089 9.832 437.769 9.72 437.513 9.496C437.268 9.26133 437.145 8.968 437.145 8.616C437.145 8.264 437.268 7.976 437.513 7.752C437.769 7.51733 438.089 7.4 438.473 7.4C438.868 7.4 439.188 7.51733 439.433 7.752C439.689 7.976 439.817 8.264 439.817 8.616C439.817 8.968 439.689 9.26133 439.433 9.496C439.188 9.72 438.868 9.832 438.473 9.832ZM445.36 19C444.795 19 444.299 18.9147 443.872 18.744C443.456 18.5627 443.131 18.2693 442.896 17.864C442.661 17.448 442.544 16.8827 442.544 16.168V12.744H441.168V10.936H442.544L442.784 8.744H444.704V10.936H446.832V12.744H444.704V16.2C444.704 16.5627 444.784 16.8133 444.944 16.952C445.104 17.0907 445.376 17.16 445.76 17.16H446.816V19H445.36ZM449.674 22.52L451.626 18.104H451.146L447.914 10.936H450.266L452.57 16.136L454.65 10.936H456.938L451.962 22.52H449.674ZM462.792 19L466.904 9.64H461.48V7.8H469.112V9.32L465.032 19H462.792ZM475.148 19.192C474.134 19.192 473.26 18.9467 472.524 18.456C471.788 17.9653 471.222 17.288 470.828 16.424C470.444 15.5493 470.252 14.5413 470.252 13.4C470.252 12.2587 470.444 11.256 470.828 10.392C471.222 9.51733 471.782 8.83467 472.508 8.344C473.244 7.85333 474.124 7.608 475.148 7.608C476.172 7.608 477.046 7.85333 477.772 8.344C478.508 8.83467 479.068 9.51733 479.452 10.392C479.846 11.256 480.044 12.2587 480.044 13.4C480.044 14.5413 479.846 15.5493 479.452 16.424C479.068 17.288 478.508 17.9653 477.772 18.456C477.046 18.9467 476.172 19.192 475.148 19.192ZM475.148 17.256C475.681 17.256 476.15 17.1013 476.556 16.792C476.961 16.472 477.276 16.024 477.5 15.448C477.734 14.872 477.852 14.1893 477.852 13.4C477.852 12.6 477.734 11.9173 477.5 11.352C477.276 10.776 476.961 10.3333 476.556 10.024C476.15 9.71467 475.681 9.56 475.148 9.56C474.614 9.56 474.145 9.71467 473.74 10.024C473.334 10.3333 473.014 10.776 472.78 11.352C472.556 11.9173 472.444 12.6 472.444 13.4C472.444 14.1893 472.556 14.872 472.78 15.448C473.014 16.024 473.334 16.472 473.74 16.792C474.145 17.1013 474.614 17.256 475.148 17.256ZM483.773 19L490.061 7.8H492.157L485.869 19H483.773ZM491.773 19.192C491.251 19.192 490.776 19.08 490.349 18.856C489.933 18.6213 489.603 18.2907 489.357 17.864C489.112 17.4267 488.989 16.9147 488.989 16.328C488.989 15.7307 489.112 15.2187 489.357 14.792C489.603 14.3653 489.933 14.04 490.349 13.816C490.776 13.5813 491.251 13.464 491.773 13.464C492.296 13.464 492.765 13.5813 493.181 13.816C493.597 14.04 493.928 14.3653 494.173 14.792C494.419 15.2187 494.541 15.7307 494.541 16.328C494.541 16.9147 494.419 17.4267 494.173 17.864C493.928 18.2907 493.597 18.6213 493.181 18.856C492.765 19.08 492.296 19.192 491.773 19.192ZM491.757 17.704C491.971 17.704 492.157 17.6507 492.317 17.544C492.477 17.4373 492.605 17.2827 492.701 17.08C492.797 16.8773 492.845 16.6267 492.845 16.328C492.845 16.0187 492.797 15.7627 492.701 15.56C492.616 15.3467 492.488 15.1867 492.317 15.08C492.157 14.9733 491.971 14.92 491.757 14.92C491.555 14.92 491.368 14.9733 491.197 15.08C491.037 15.1867 490.909 15.3467 490.813 15.56C490.717 15.7627 490.669 16.0187 490.669 16.328C490.669 16.6267 490.717 16.8773 490.813 17.08C490.909 17.2827 491.037 17.4373 491.197 17.544C491.368 17.6507 491.555 17.704 491.757 17.704ZM484.237 13.352C483.725 13.352 483.256 13.2347 482.829 13C482.413 12.7653 482.077 12.4347 481.821 12.008C481.576 11.5813 481.453 11.0747 481.453 10.488C481.453 9.88 481.576 9.368 481.821 8.952C482.077 8.52533 482.413 8.19467 482.829 7.96C483.256 7.72533 483.731 7.608 484.253 7.608C484.776 7.608 485.24 7.72533 485.645 7.96C486.061 8.19467 486.392 8.52533 486.637 8.952C486.893 9.368 487.021 9.88 487.021 10.488C487.021 11.0747 486.893 11.5813 486.637 12.008C486.392 12.4347 486.061 12.7653 485.645 13C485.229 13.2347 484.76 13.352 484.237 13.352ZM484.237 11.864C484.44 11.864 484.621 11.8107 484.781 11.704C484.952 11.5973 485.085 11.4427 485.181 11.24C485.277 11.0373 485.325 10.7867 485.325 10.488C485.325 10.168 485.277 9.90667 485.181 9.704C485.085 9.50133 484.952 9.34667 484.781 9.24C484.621 9.13333 484.44 9.08 484.237 9.08C484.035 9.08 483.848 9.13333 483.677 9.24C483.517 9.34667 483.389 9.50667 483.293 9.72C483.197 9.92267 483.149 10.1787 483.149 10.488C483.149 10.7867 483.197 11.0373 483.293 11.24C483.389 11.4427 483.517 11.5973 483.677 11.704C483.848 11.8107 484.035 11.864 484.237 11.864Z" fill="#242424"/>
<path d="M261.335 286.192C260.524 286.192 259.799 286.053 259.159 285.776C258.53 285.499 258.028 285.093 257.655 284.56C257.292 284.027 257.106 283.381 257.095 282.624H259.383C259.394 282.955 259.479 283.253 259.639 283.52C259.799 283.787 260.018 284 260.295 284.16C260.583 284.309 260.924 284.384 261.319 284.384C261.66 284.384 261.954 284.331 262.199 284.224C262.455 284.107 262.652 283.947 262.791 283.744C262.93 283.541 262.999 283.301 262.999 283.024C262.999 282.704 262.919 282.437 262.759 282.224C262.61 282.011 262.396 281.829 262.119 281.68C261.852 281.531 261.538 281.397 261.175 281.28C260.823 281.152 260.45 281.019 260.055 280.88C259.17 280.592 258.492 280.208 258.023 279.728C257.564 279.248 257.335 278.613 257.335 277.824C257.335 277.152 257.495 276.576 257.815 276.096C258.146 275.616 258.599 275.248 259.175 274.992C259.751 274.736 260.407 274.608 261.143 274.608C261.9 274.608 262.562 274.741 263.127 275.008C263.703 275.264 264.156 275.637 264.487 276.128C264.828 276.619 265.004 277.195 265.015 277.856H262.711C262.7 277.611 262.626 277.381 262.487 277.168C262.359 276.944 262.178 276.768 261.943 276.64C261.708 276.501 261.431 276.432 261.111 276.432C260.834 276.421 260.578 276.464 260.343 276.56C260.119 276.656 259.938 276.8 259.799 276.992C259.671 277.173 259.607 277.403 259.607 277.68C259.607 277.947 259.671 278.171 259.799 278.352C259.938 278.533 260.124 278.693 260.359 278.832C260.594 278.96 260.871 279.083 261.191 279.2C261.511 279.307 261.858 279.419 262.231 279.536C262.786 279.728 263.298 279.957 263.767 280.224C264.236 280.48 264.61 280.816 264.887 281.232C265.164 281.648 265.303 282.197 265.303 282.88C265.303 283.467 265.148 284.011 264.839 284.512C264.53 285.013 264.082 285.419 263.495 285.728C262.919 286.037 262.199 286.192 261.335 286.192ZM270.991 286.192C270.181 286.192 269.461 286.011 268.831 285.648C268.202 285.285 267.711 284.789 267.359 284.16C267.007 283.531 266.831 282.811 266.831 282C266.831 281.168 267.007 280.437 267.359 279.808C267.711 279.168 268.202 278.667 268.831 278.304C269.461 277.931 270.181 277.744 270.991 277.744C272.026 277.744 272.895 278.016 273.599 278.56C274.303 279.104 274.751 279.851 274.943 280.8H272.655C272.559 280.427 272.357 280.133 272.047 279.92C271.749 279.707 271.391 279.6 270.975 279.6C270.602 279.6 270.266 279.696 269.967 279.888C269.679 280.069 269.45 280.341 269.279 280.704C269.119 281.056 269.039 281.477 269.039 281.968C269.039 282.341 269.087 282.677 269.183 282.976C269.279 283.264 269.413 283.515 269.583 283.728C269.754 283.931 269.957 284.085 270.191 284.192C270.437 284.299 270.698 284.352 270.975 284.352C271.253 284.352 271.503 284.304 271.727 284.208C271.962 284.112 272.159 283.979 272.319 283.808C272.479 283.627 272.591 283.408 272.655 283.152H274.943C274.751 284.08 274.298 284.821 273.583 285.376C272.879 285.92 272.015 286.192 270.991 286.192ZM276.854 286V277.936H279.014V286H276.854ZM277.942 276.832C277.558 276.832 277.238 276.72 276.982 276.496C276.737 276.261 276.614 275.968 276.614 275.616C276.614 275.264 276.737 274.976 276.982 274.752C277.238 274.517 277.558 274.4 277.942 274.4C278.337 274.4 278.657 274.517 278.902 274.752C279.158 274.976 279.286 275.264 279.286 275.616C279.286 275.968 279.158 276.261 278.902 276.496C278.657 276.72 278.337 276.832 277.942 276.832ZM285.069 286.192C284.258 286.192 283.538 286.021 282.909 285.68C282.29 285.328 281.805 284.843 281.453 284.224C281.111 283.595 280.941 282.869 280.941 282.048C280.941 281.205 281.111 280.464 281.453 279.824C281.805 279.173 282.29 278.667 282.909 278.304C283.527 277.931 284.247 277.744 285.069 277.744C285.869 277.744 286.567 277.92 287.165 278.272C287.762 278.624 288.226 279.099 288.557 279.696C288.887 280.293 289.053 280.971 289.053 281.728C289.053 281.835 289.053 281.957 289.053 282.096C289.053 282.224 289.042 282.357 289.021 282.496H282.477V281.184H286.877C286.845 280.661 286.658 280.251 286.317 279.952C285.986 279.653 285.57 279.504 285.069 279.504C284.706 279.504 284.37 279.589 284.061 279.76C283.751 279.92 283.506 280.171 283.325 280.512C283.154 280.853 283.069 281.285 283.069 281.808V282.272C283.069 282.709 283.149 283.093 283.309 283.424C283.479 283.744 283.714 283.995 284.013 284.176C284.311 284.347 284.658 284.432 285.053 284.432C285.447 284.432 285.773 284.347 286.029 284.176C286.295 284.005 286.493 283.787 286.621 283.52H288.829C288.679 284.021 288.429 284.475 288.077 284.88C287.725 285.285 287.293 285.605 286.781 285.84C286.269 286.075 285.698 286.192 285.069 286.192ZM290.822 286V277.936H292.726L292.886 279.248C293.131 278.8 293.478 278.437 293.926 278.16C294.384 277.883 294.928 277.744 295.558 277.744C296.23 277.744 296.795 277.883 297.254 278.16C297.712 278.437 298.059 278.843 298.294 279.376C298.539 279.909 298.662 280.565 298.662 281.344V286H296.518V281.552C296.518 280.912 296.379 280.421 296.102 280.08C295.835 279.739 295.419 279.568 294.854 279.568C294.491 279.568 294.166 279.653 293.878 279.824C293.6 279.995 293.382 280.24 293.222 280.56C293.062 280.869 292.982 281.248 292.982 281.696V286H290.822ZM304.601 286.192C303.79 286.192 303.07 286.011 302.441 285.648C301.811 285.285 301.321 284.789 300.969 284.16C300.617 283.531 300.441 282.811 300.441 282C300.441 281.168 300.617 280.437 300.969 279.808C301.321 279.168 301.811 278.667 302.441 278.304C303.07 277.931 303.79 277.744 304.601 277.744C305.635 277.744 306.505 278.016 307.209 278.56C307.913 279.104 308.361 279.851 308.553 280.8H306.265C306.169 280.427 305.966 280.133 305.657 279.92C305.358 279.707 305.001 279.6 304.585 279.6C304.211 279.6 303.875 279.696 303.577 279.888C303.289 280.069 303.059 280.341 302.889 280.704C302.729 281.056 302.649 281.477 302.649 281.968C302.649 282.341 302.697 282.677 302.793 282.976C302.889 283.264 303.022 283.515 303.193 283.728C303.363 283.931 303.566 284.085 303.801 284.192C304.046 284.299 304.307 284.352 304.585 284.352C304.862 284.352 305.113 284.304 305.337 284.208C305.571 284.112 305.769 283.979 305.929 283.808C306.089 283.627 306.201 283.408 306.265 283.152H308.553C308.361 284.08 307.907 284.821 307.193 285.376C306.489 285.92 305.625 286.192 304.601 286.192ZM314.287 286.192C313.477 286.192 312.757 286.021 312.127 285.68C311.509 285.328 311.023 284.843 310.671 284.224C310.33 283.595 310.159 282.869 310.159 282.048C310.159 281.205 310.33 280.464 310.671 279.824C311.023 279.173 311.509 278.667 312.127 278.304C312.746 277.931 313.466 277.744 314.287 277.744C315.087 277.744 315.786 277.92 316.383 278.272C316.981 278.624 317.445 279.099 317.775 279.696C318.106 280.293 318.271 280.971 318.271 281.728C318.271 281.835 318.271 281.957 318.271 282.096C318.271 282.224 318.261 282.357 318.239 282.496H311.695V281.184H316.095C316.063 280.661 315.877 280.251 315.535 279.952C315.205 279.653 314.789 279.504 314.287 279.504C313.925 279.504 313.589 279.589 313.279 279.76C312.97 279.92 312.725 280.171 312.543 280.512C312.373 280.853 312.287 281.285 312.287 281.808V282.272C312.287 282.709 312.367 283.093 312.527 283.424C312.698 283.744 312.933 283.995 313.231 284.176C313.53 284.347 313.877 284.432 314.271 284.432C314.666 284.432 314.991 284.347 315.247 284.176C315.514 284.005 315.711 283.787 315.839 283.52H318.047C317.898 284.021 317.647 284.475 317.295 284.88C316.943 285.285 316.511 285.605 315.999 285.84C315.487 286.075 314.917 286.192 314.287 286.192ZM323.55 286V284.416C324.233 283.872 324.894 283.328 325.534 282.784C326.185 282.24 326.766 281.701 327.278 281.168C327.79 280.624 328.195 280.096 328.494 279.584C328.793 279.072 328.942 278.576 328.942 278.096C328.942 277.797 328.889 277.525 328.782 277.28C328.675 277.024 328.505 276.821 328.27 276.672C328.046 276.512 327.747 276.432 327.374 276.432C327.001 276.432 326.686 276.517 326.43 276.688C326.174 276.859 325.982 277.088 325.854 277.376C325.726 277.653 325.662 277.968 325.662 278.32H323.566C323.598 277.499 323.785 276.811 324.126 276.256C324.467 275.701 324.926 275.291 325.502 275.024C326.078 274.747 326.723 274.608 327.438 274.608C328.227 274.608 328.894 274.757 329.438 275.056C329.982 275.344 330.393 275.739 330.67 276.24C330.958 276.741 331.102 277.317 331.102 277.968C331.102 278.459 331.011 278.939 330.83 279.408C330.659 279.877 330.414 280.336 330.094 280.784C329.785 281.221 329.433 281.643 329.038 282.048C328.643 282.453 328.233 282.843 327.806 283.216C327.379 283.579 326.963 283.92 326.558 284.24H331.374V286H323.55ZM337.554 286.192C336.541 286.192 335.666 285.947 334.93 285.456C334.194 284.965 333.629 284.288 333.234 283.424C332.85 282.549 332.658 281.541 332.658 280.4C332.658 279.259 332.85 278.256 333.234 277.392C333.629 276.517 334.189 275.835 334.914 275.344C335.65 274.853 336.53 274.608 337.554 274.608C338.578 274.608 339.453 274.853 340.178 275.344C340.914 275.835 341.474 276.517 341.858 277.392C342.253 278.256 342.45 279.259 342.45 280.4C342.45 281.541 342.253 282.549 341.858 283.424C341.474 284.288 340.914 284.965 340.178 285.456C339.453 285.947 338.578 286.192 337.554 286.192ZM337.554 284.256C338.087 284.256 338.557 284.101 338.962 283.792C339.367 283.472 339.682 283.024 339.906 282.448C340.141 281.872 340.258 281.189 340.258 280.4C340.258 279.6 340.141 278.917 339.906 278.352C339.682 277.776 339.367 277.333 338.962 277.024C338.557 276.715 338.087 276.56 337.554 276.56C337.021 276.56 336.551 276.715 336.146 277.024C335.741 277.333 335.421 277.776 335.186 278.352C334.962 278.917 334.85 279.6 334.85 280.4C334.85 281.189 334.962 281.872 335.186 282.448C335.421 283.024 335.741 283.472 336.146 283.792C336.551 284.101 337.021 284.256 337.554 284.256ZM346.18 286L352.468 274.8H354.564L348.276 286H346.18ZM354.18 286.192C353.657 286.192 353.182 286.08 352.756 285.856C352.34 285.621 352.009 285.291 351.764 284.864C351.518 284.427 351.396 283.915 351.396 283.328C351.396 282.731 351.518 282.219 351.764 281.792C352.009 281.365 352.34 281.04 352.756 280.816C353.182 280.581 353.657 280.464 354.18 280.464C354.702 280.464 355.172 280.581 355.588 280.816C356.004 281.04 356.334 281.365 356.58 281.792C356.825 282.219 356.948 282.731 356.948 283.328C356.948 283.915 356.825 284.427 356.58 284.864C356.334 285.291 356.004 285.621 355.588 285.856C355.172 286.08 354.702 286.192 354.18 286.192ZM354.164 284.704C354.377 284.704 354.564 284.651 354.724 284.544C354.884 284.437 355.012 284.283 355.108 284.08C355.204 283.877 355.252 283.627 355.252 283.328C355.252 283.019 355.204 282.763 355.108 282.56C355.022 282.347 354.894 282.187 354.724 282.08C354.564 281.973 354.377 281.92 354.164 281.92C353.961 281.92 353.774 281.973 353.604 282.08C353.444 282.187 353.316 282.347 353.22 282.56C353.124 282.763 353.076 283.019 353.076 283.328C353.076 283.627 353.124 283.877 353.22 284.08C353.316 284.283 353.444 284.437 353.604 284.544C353.774 284.651 353.961 284.704 354.164 284.704ZM346.644 280.352C346.132 280.352 345.662 280.235 345.236 280C344.82 279.765 344.484 279.435 344.228 279.008C343.982 278.581 343.86 278.075 343.86 277.488C343.86 276.88 343.982 276.368 344.228 275.952C344.484 275.525 344.82 275.195 345.236 274.96C345.662 274.725 346.137 274.608 346.66 274.608C347.182 274.608 347.646 274.725 348.052 274.96C348.468 275.195 348.798 275.525 349.044 275.952C349.3 276.368 349.428 276.88 349.428 277.488C349.428 278.075 349.3 278.581 349.044 279.008C348.798 279.435 348.468 279.765 348.052 280C347.636 280.235 347.166 280.352 346.644 280.352ZM346.644 278.864C346.846 278.864 347.028 278.811 347.188 278.704C347.358 278.597 347.492 278.443 347.588 278.24C347.684 278.037 347.732 277.787 347.732 277.488C347.732 277.168 347.684 276.907 347.588 276.704C347.492 276.501 347.358 276.347 347.188 276.24C347.028 276.133 346.846 276.08 346.644 276.08C346.441 276.08 346.254 276.133 346.084 276.24C345.924 276.347 345.796 276.507 345.7 276.72C345.604 276.923 345.556 277.179 345.556 277.488C345.556 277.787 345.604 278.037 345.7 278.24C345.796 278.443 345.924 278.597 346.084 278.704C346.254 278.811 346.441 278.864 346.644 278.864Z" fill="#242424"/>
<path d="M518.706 286V274.8H523.298C524.076 274.8 524.732 274.923 525.266 275.168C525.799 275.413 526.199 275.755 526.466 276.192C526.743 276.619 526.882 277.115 526.882 277.68C526.882 278.245 526.759 278.72 526.514 279.104C526.268 279.488 525.943 279.787 525.538 280C525.143 280.203 524.706 280.32 524.226 280.352L524.482 280.176C524.994 280.197 525.447 280.336 525.842 280.592C526.247 280.837 526.562 281.168 526.786 281.584C527.02 282 527.138 282.453 527.138 282.944C527.138 283.541 526.994 284.069 526.706 284.528C526.418 284.987 526.002 285.349 525.458 285.616C524.914 285.872 524.247 286 523.458 286H518.706ZM520.866 284.24H523.106C523.692 284.24 524.146 284.107 524.466 283.84C524.786 283.573 524.946 283.189 524.946 282.688C524.946 282.187 524.78 281.797 524.45 281.52C524.119 281.232 523.66 281.088 523.074 281.088H520.866V284.24ZM520.866 279.472H522.946C523.511 279.472 523.938 279.344 524.226 279.088C524.524 278.832 524.674 278.469 524.674 278C524.674 277.541 524.524 277.184 524.226 276.928C523.938 276.661 523.506 276.528 522.93 276.528H520.866V279.472ZM531.869 286.192C531.218 286.192 530.658 286.059 530.189 285.792C529.73 285.515 529.378 285.115 529.133 284.592C528.887 284.059 528.765 283.403 528.765 282.624V277.936H530.925V282.4C530.925 283.051 531.058 283.541 531.325 283.872C531.602 284.203 532.023 284.368 532.589 284.368C532.951 284.368 533.271 284.288 533.549 284.128C533.826 283.957 534.045 283.717 534.205 283.408C534.375 283.088 534.461 282.699 534.461 282.24V277.936H536.605V286H534.717L534.541 284.688C534.306 285.147 533.959 285.515 533.501 285.792C533.042 286.059 532.498 286.192 531.869 286.192ZM542.016 286.192C541.28 286.192 540.64 286.075 540.096 285.84C539.552 285.605 539.125 285.28 538.816 284.864C538.507 284.448 538.331 283.979 538.288 283.456H540.432C540.485 283.659 540.576 283.845 540.704 284.016C540.832 284.176 541.003 284.304 541.216 284.4C541.429 284.496 541.685 284.544 541.984 284.544C542.272 284.544 542.507 284.507 542.688 284.432C542.869 284.347 543.003 284.235 543.088 284.096C543.184 283.957 543.232 283.813 543.232 283.664C543.232 283.44 543.168 283.269 543.04 283.152C542.912 283.024 542.725 282.923 542.48 282.848C542.235 282.773 541.936 282.699 541.584 282.624C541.2 282.549 540.821 282.459 540.448 282.352C540.085 282.235 539.76 282.091 539.472 281.92C539.184 281.749 538.955 281.531 538.784 281.264C538.613 280.997 538.528 280.667 538.528 280.272C538.528 279.792 538.656 279.365 538.912 278.992C539.168 278.608 539.541 278.304 540.032 278.08C540.523 277.856 541.115 277.744 541.808 277.744C542.779 277.744 543.547 277.963 544.112 278.4C544.677 278.837 545.013 279.44 545.12 280.208H543.088C543.024 279.963 542.88 279.771 542.656 279.632C542.443 279.483 542.155 279.408 541.792 279.408C541.408 279.408 541.115 279.477 540.912 279.616C540.709 279.755 540.608 279.936 540.608 280.16C540.608 280.309 540.672 280.443 540.8 280.56C540.939 280.677 541.131 280.779 541.376 280.864C541.621 280.939 541.92 281.013 542.272 281.088C542.891 281.216 543.435 281.365 543.904 281.536C544.373 281.696 544.741 281.931 545.008 282.24C545.275 282.539 545.408 282.976 545.408 283.552C545.408 284.064 545.269 284.523 544.992 284.928C544.715 285.323 544.32 285.632 543.808 285.856C543.307 286.08 542.709 286.192 542.016 286.192ZM547.284 286V277.936H549.444V286H547.284ZM548.372 276.832C547.988 276.832 547.668 276.72 547.412 276.496C547.166 276.261 547.044 275.968 547.044 275.616C547.044 275.264 547.166 274.976 547.412 274.752C547.668 274.517 547.988 274.4 548.372 274.4C548.766 274.4 549.086 274.517 549.332 274.752C549.588 274.976 549.716 275.264 549.716 275.616C549.716 275.968 549.588 276.261 549.332 276.496C549.086 276.72 548.766 276.832 548.372 276.832ZM551.626 286V277.936H553.53L553.69 279.248C553.936 278.8 554.282 278.437 554.73 278.16C555.189 277.883 555.733 277.744 556.362 277.744C557.034 277.744 557.6 277.883 558.058 278.16C558.517 278.437 558.864 278.843 559.098 279.376C559.344 279.909 559.466 280.565 559.466 281.344V286H557.322V281.552C557.322 280.912 557.184 280.421 556.906 280.08C556.64 279.739 556.224 279.568 555.658 279.568C555.296 279.568 554.97 279.653 554.682 279.824C554.405 279.995 554.186 280.24 554.026 280.56C553.866 280.869 553.786 281.248 553.786 281.696V286H551.626ZM565.373 286.192C564.563 286.192 563.843 286.021 563.213 285.68C562.595 285.328 562.109 284.843 561.757 284.224C561.416 283.595 561.245 282.869 561.245 282.048C561.245 281.205 561.416 280.464 561.757 279.824C562.109 279.173 562.595 278.667 563.213 278.304C563.832 277.931 564.552 277.744 565.373 277.744C566.173 277.744 566.872 277.92 567.469 278.272C568.067 278.624 568.531 279.099 568.861 279.696C569.192 280.293 569.357 280.971 569.357 281.728C569.357 281.835 569.357 281.957 569.357 282.096C569.357 282.224 569.347 282.357 569.325 282.496H562.781V281.184H567.181C567.149 280.661 566.963 280.251 566.621 279.952C566.291 279.653 565.875 279.504 565.373 279.504C565.011 279.504 564.675 279.589 564.365 279.76C564.056 279.92 563.811 280.171 563.629 280.512C563.459 280.853 563.373 281.285 563.373 281.808V282.272C563.373 282.709 563.453 283.093 563.613 283.424C563.784 283.744 564.019 283.995 564.317 284.176C564.616 284.347 564.963 284.432 565.357 284.432C565.752 284.432 566.077 284.347 566.333 284.176C566.6 284.005 566.797 283.787 566.925 283.52H569.133C568.984 284.021 568.733 284.475 568.381 284.88C568.029 285.285 567.597 285.605 567.085 285.84C566.573 286.075 566.003 286.192 565.373 286.192ZM574.422 286.192C573.686 286.192 573.046 286.075 572.502 285.84C571.958 285.605 571.532 285.28 571.222 284.864C570.913 284.448 570.737 283.979 570.694 283.456H572.838C572.892 283.659 572.982 283.845 573.11 284.016C573.238 284.176 573.409 284.304 573.622 284.4C573.836 284.496 574.092 284.544 574.39 284.544C574.678 284.544 574.913 284.507 575.094 284.432C575.276 284.347 575.409 284.235 575.494 284.096C575.59 283.957 575.638 283.813 575.638 283.664C575.638 283.44 575.574 283.269 575.446 283.152C575.318 283.024 575.132 282.923 574.886 282.848C574.641 282.773 574.342 282.699 573.99 282.624C573.606 282.549 573.228 282.459 572.854 282.352C572.492 282.235 572.166 282.091 571.878 281.92C571.59 281.749 571.361 281.531 571.19 281.264C571.02 280.997 570.934 280.667 570.934 280.272C570.934 279.792 571.062 279.365 571.318 278.992C571.574 278.608 571.948 278.304 572.438 278.08C572.929 277.856 573.521 277.744 574.214 277.744C575.185 277.744 575.953 277.963 576.518 278.4C577.084 278.837 577.42 279.44 577.526 280.208H575.494C575.43 279.963 575.286 279.771 575.062 279.632C574.849 279.483 574.561 279.408 574.198 279.408C573.814 279.408 573.521 279.477 573.318 279.616C573.116 279.755 573.014 279.936 573.014 280.16C573.014 280.309 573.078 280.443 573.206 280.56C573.345 280.677 573.537 280.779 573.782 280.864C574.028 280.939 574.326 281.013 574.678 281.088C575.297 281.216 575.841 281.365 576.31 281.536C576.78 281.696 577.148 281.931 577.414 282.24C577.681 282.539 577.814 282.976 577.814 283.552C577.814 284.064 577.676 284.523 577.398 284.928C577.121 285.323 576.726 285.632 576.214 285.856C575.713 286.08 575.116 286.192 574.422 286.192ZM582.938 286.192C582.202 286.192 581.562 286.075 581.018 285.84C580.474 285.605 580.047 285.28 579.738 284.864C579.429 284.448 579.253 283.979 579.21 283.456H581.354C581.407 283.659 581.498 283.845 581.626 284.016C581.754 284.176 581.925 284.304 582.138 284.4C582.351 284.496 582.607 284.544 582.906 284.544C583.194 284.544 583.429 284.507 583.61 284.432C583.791 284.347 583.925 284.235 584.01 284.096C584.106 283.957 584.154 283.813 584.154 283.664C584.154 283.44 584.09 283.269 583.962 283.152C583.834 283.024 583.647 282.923 583.402 282.848C583.157 282.773 582.858 282.699 582.506 282.624C582.122 282.549 581.743 282.459 581.37 282.352C581.007 282.235 580.682 282.091 580.394 281.92C580.106 281.749 579.877 281.531 579.706 281.264C579.535 280.997 579.45 280.667 579.45 280.272C579.45 279.792 579.578 279.365 579.834 278.992C580.09 278.608 580.463 278.304 580.954 278.08C581.445 277.856 582.037 277.744 582.73 277.744C583.701 277.744 584.469 277.963 585.034 278.4C585.599 278.837 585.935 279.44 586.042 280.208H584.01C583.946 279.963 583.802 279.771 583.578 279.632C583.365 279.483 583.077 279.408 582.714 279.408C582.33 279.408 582.037 279.477 581.834 279.616C581.631 279.755 581.53 279.936 581.53 280.16C581.53 280.309 581.594 280.443 581.722 280.56C581.861 280.677 582.053 280.779 582.298 280.864C582.543 280.939 582.842 281.013 583.194 281.088C583.813 281.216 584.357 281.365 584.826 281.536C585.295 281.696 585.663 281.931 585.93 282.24C586.197 282.539 586.33 282.976 586.33 283.552C586.33 284.064 586.191 284.523 585.914 284.928C585.637 285.323 585.242 285.632 584.73 285.856C584.229 286.08 583.631 286.192 582.938 286.192ZM593.347 286V277.28L591.363 277.808V276.08L594.275 274.8H595.587V286H593.347ZM602.327 286.192C601.314 286.192 600.439 285.947 599.703 285.456C598.967 284.965 598.402 284.288 598.007 283.424C597.623 282.549 597.431 281.541 597.431 280.4C597.431 279.259 597.623 278.256 598.007 277.392C598.402 276.517 598.962 275.835 599.687 275.344C600.423 274.853 601.303 274.608 602.327 274.608C603.351 274.608 604.226 274.853 604.951 275.344C605.687 275.835 606.247 276.517 606.631 277.392C607.026 278.256 607.223 279.259 607.223 280.4C607.223 281.541 607.026 282.549 606.631 283.424C606.247 284.288 605.687 284.965 604.951 285.456C604.226 285.947 603.351 286.192 602.327 286.192ZM602.327 284.256C602.861 284.256 603.33 284.101 603.735 283.792C604.141 283.472 604.455 283.024 604.679 282.448C604.914 281.872 605.031 281.189 605.031 280.4C605.031 279.6 604.914 278.917 604.679 278.352C604.455 277.776 604.141 277.333 603.735 277.024C603.33 276.715 602.861 276.56 602.327 276.56C601.794 276.56 601.325 276.715 600.919 277.024C600.514 277.333 600.194 277.776 599.959 278.352C599.735 278.917 599.623 279.6 599.623 280.4C599.623 281.189 599.735 281.872 599.959 282.448C600.194 283.024 600.514 283.472 600.919 283.792C601.325 284.101 601.794 284.256 602.327 284.256ZM610.953 286L617.241 274.8H619.337L613.049 286H610.953ZM618.953 286.192C618.43 286.192 617.956 286.08 617.529 285.856C617.113 285.621 616.782 285.291 616.537 284.864C616.292 284.427 616.169 283.915 616.169 283.328C616.169 282.731 616.292 282.219 616.537 281.792C616.782 281.365 617.113 281.04 617.529 280.816C617.956 280.581 618.43 280.464 618.953 280.464C619.476 280.464 619.945 280.581 620.361 280.816C620.777 281.04 621.108 281.365 621.353 281.792C621.598 282.219 621.721 282.731 621.721 283.328C621.721 283.915 621.598 284.427 621.353 284.864C621.108 285.291 620.777 285.621 620.361 285.856C619.945 286.08 619.476 286.192 618.953 286.192ZM618.937 284.704C619.15 284.704 619.337 284.651 619.497 284.544C619.657 284.437 619.785 284.283 619.881 284.08C619.977 283.877 620.025 283.627 620.025 283.328C620.025 283.019 619.977 282.763 619.881 282.56C619.796 282.347 619.668 282.187 619.497 282.08C619.337 281.973 619.15 281.92 618.937 281.92C618.734 281.92 618.548 281.973 618.377 282.08C618.217 282.187 618.089 282.347 617.993 282.56C617.897 282.763 617.849 283.019 617.849 283.328C617.849 283.627 617.897 283.877 617.993 284.08C618.089 284.283 618.217 284.437 618.377 284.544C618.548 284.651 618.734 284.704 618.937 284.704ZM611.417 280.352C610.905 280.352 610.436 280.235 610.009 280C609.593 279.765 609.257 279.435 609.001 279.008C608.756 278.581 608.633 278.075 608.633 277.488C608.633 276.88 608.756 276.368 609.001 275.952C609.257 275.525 609.593 275.195 610.009 274.96C610.436 274.725 610.91 274.608 611.433 274.608C611.956 274.608 612.42 274.725 612.825 274.96C613.241 275.195 613.572 275.525 613.817 275.952C614.073 276.368 614.201 276.88 614.201 277.488C614.201 278.075 614.073 278.581 613.817 279.008C613.572 279.435 613.241 279.765 612.825 280C612.409 280.235 611.94 280.352 611.417 280.352ZM611.417 278.864C611.62 278.864 611.801 278.811 611.961 278.704C612.132 278.597 612.265 278.443 612.361 278.24C612.457 278.037 612.505 277.787 612.505 277.488C612.505 277.168 612.457 276.907 612.361 276.704C612.265 276.501 612.132 276.347 611.961 276.24C611.801 276.133 611.62 276.08 611.417 276.08C611.214 276.08 611.028 276.133 610.857 276.24C610.697 276.347 610.569 276.507 610.473 276.72C610.377 276.923 610.329 277.179 610.329 277.488C610.329 277.787 610.377 278.037 610.473 278.24C610.569 278.443 610.697 278.597 610.857 278.704C611.028 278.811 611.214 278.864 611.417 278.864Z" fill="#242424"/>
<path d="M436.691 34.1689L562.191 251.542H311.19L436.691 34.1689Z" stroke="#242424" stroke-width="2"/>
<g style="mix-blend-mode:multiply">
<path d="M336 209H539L437.5 33.082L336 209Z" fill="url(#paint0_linear_201_42)"/>
</g>
<defs>
<linearGradient id="paint0_linear_201_42" x1="437.5" y1="209" x2="437.5" y2="32" gradientUnits="userSpaceOnUse">
<stop stop-color="#14FF14" stop-opacity="0"/>
<stop offset="1" stop-color="#14FF14"/>
</linearGradient>
</defs>
</svg>
