<svg width="654" height="323" viewBox="0 0 654 323" fill="none" xmlns="http://www.w3.org/2000/svg">
<path d="M445.916 33L571.416 250.373H320.415L445.916 33Z" stroke="#242424" stroke-width="2"/>
<path d="M320.477 250.312L445.916 196.169L571.231 250.312" stroke="#242424" stroke-width="2" stroke-dasharray="2 2"/>
<path d="M446.038 195.231V34.1025" stroke="#242424" stroke-width="2" stroke-dasharray="2 2"/>
<path d="M387.37 18.192C386.25 18.192 385.285 17.952 384.474 17.472C383.674 16.9813 383.056 16.304 382.618 15.44C382.192 14.5653 381.978 13.5573 381.978 12.416C381.978 11.2747 382.192 10.2667 382.618 9.392C383.056 8.51733 383.674 7.83467 384.474 7.344C385.285 6.85333 386.25 6.608 387.37 6.608C388.725 6.608 389.834 6.944 390.698 7.616C391.562 8.288 392.101 9.23733 392.314 10.464H389.962C389.824 9.86667 389.53 9.40267 389.082 9.072C388.645 8.73067 388.069 8.56 387.354 8.56C386.693 8.56 386.122 8.72 385.642 9.04C385.173 9.34933 384.81 9.792 384.554 10.368C384.298 10.9333 384.17 11.616 384.17 12.416C384.17 13.2053 384.298 13.888 384.554 14.464C384.81 15.04 385.173 15.4827 385.642 15.792C386.122 16.1013 386.693 16.256 387.354 16.256C388.069 16.256 388.645 16.1013 389.082 15.792C389.52 15.472 389.808 15.0293 389.946 14.464H392.314C392.101 15.6267 391.562 16.5387 390.698 17.2C389.834 17.8613 388.725 18.192 387.37 18.192ZM394.111 18V9.936H396.031L396.239 11.424C396.431 11.072 396.671 10.7733 396.959 10.528C397.257 10.2827 397.593 10.0907 397.967 9.952C398.351 9.81333 398.772 9.744 399.231 9.744V12.032H398.495C398.175 12.032 397.876 12.0693 397.599 12.144C397.332 12.2187 397.097 12.3413 396.895 12.512C396.692 12.672 396.537 12.896 396.431 13.184C396.324 13.472 396.271 13.8347 396.271 14.272V18H394.111ZM404.405 18.192C403.594 18.192 402.874 18.0213 402.245 17.68C401.626 17.328 401.141 16.8427 400.789 16.224C400.447 15.5947 400.277 14.8693 400.277 14.048C400.277 13.2053 400.447 12.464 400.789 11.824C401.141 11.1733 401.626 10.6667 402.245 10.304C402.863 9.93067 403.583 9.744 404.405 9.744C405.205 9.744 405.903 9.92 406.501 10.272C407.098 10.624 407.562 11.0987 407.893 11.696C408.223 12.2933 408.389 12.9707 408.389 13.728C408.389 13.8347 408.389 13.9573 408.389 14.096C408.389 14.224 408.378 14.3573 408.357 14.496H401.813V13.184H406.213C406.181 12.6613 405.994 12.2507 405.653 11.952C405.322 11.6533 404.906 11.504 404.405 11.504C404.042 11.504 403.706 11.5893 403.397 11.76C403.087 11.92 402.842 12.1707 402.661 12.512C402.49 12.8533 402.405 13.2853 402.405 13.808V14.272C402.405 14.7093 402.485 15.0933 402.645 15.424C402.815 15.744 403.05 15.9947 403.349 16.176C403.647 16.3467 403.994 16.432 404.389 16.432C404.783 16.432 405.109 16.3467 405.365 16.176C405.631 16.0053 405.829 15.7867 405.957 15.52H408.165C408.015 16.0213 407.765 16.4747 407.413 16.88C407.061 17.2853 406.629 17.6053 406.117 17.84C405.605 18.0747 405.034 18.192 404.405 18.192ZM412.878 18.192C412.206 18.192 411.651 18.0853 411.214 17.872C410.776 17.648 410.451 17.3547 410.238 16.992C410.035 16.6187 409.934 16.208 409.934 15.76C409.934 15.2693 410.056 14.8373 410.302 14.464C410.558 14.0907 410.936 13.7973 411.438 13.584C411.95 13.3707 412.59 13.264 413.358 13.264H415.358C415.358 12.8693 415.304 12.544 415.198 12.288C415.091 12.0213 414.926 11.824 414.702 11.696C414.478 11.568 414.179 11.504 413.806 11.504C413.4 11.504 413.054 11.5947 412.766 11.776C412.488 11.9467 412.318 12.2133 412.254 12.576H410.158C410.211 12 410.398 11.504 410.718 11.088C411.048 10.6613 411.48 10.3307 412.014 10.096C412.558 9.86133 413.16 9.744 413.822 9.744C414.579 9.744 415.235 9.872 415.79 10.128C416.344 10.384 416.771 10.752 417.07 11.232C417.368 11.712 417.518 12.304 417.518 13.008V18H415.694L415.454 16.768C415.336 16.9813 415.198 17.1733 415.038 17.344C414.878 17.5147 414.691 17.664 414.478 17.792C414.264 17.92 414.024 18.016 413.758 18.08C413.491 18.1547 413.198 18.192 412.878 18.192ZM413.39 16.528C413.667 16.528 413.912 16.48 414.126 16.384C414.35 16.2773 414.542 16.1387 414.702 15.968C414.862 15.7867 414.984 15.584 415.07 15.36C415.166 15.1253 415.23 14.8747 415.262 14.608V14.592H413.614C413.283 14.592 413.011 14.6347 412.798 14.72C412.595 14.7947 412.446 14.9067 412.35 15.056C412.254 15.2053 412.206 15.376 412.206 15.568C412.206 15.7813 412.254 15.9573 412.35 16.096C412.446 16.2347 412.584 16.3413 412.766 16.416C412.947 16.4907 413.155 16.528 413.39 16.528ZM423.071 18C422.505 18 422.009 17.9147 421.583 17.744C421.167 17.5627 420.841 17.2693 420.607 16.864C420.372 16.448 420.255 15.8827 420.255 15.168V11.744H418.879V9.936H420.255L420.495 7.744H422.415V9.936H424.543V11.744H422.415V15.2C422.415 15.5627 422.495 15.8133 422.655 15.952C422.815 16.0907 423.087 16.16 423.471 16.16H424.527V18H423.071ZM426.409 18V9.936H428.569V18H426.409ZM427.497 8.832C427.113 8.832 426.793 8.72 426.537 8.496C426.291 8.26133 426.169 7.968 426.169 7.616C426.169 7.264 426.291 6.976 426.537 6.752C426.793 6.51733 427.113 6.4 427.497 6.4C427.891 6.4 428.211 6.51733 428.457 6.752C428.713 6.976 428.841 7.264 428.841 7.616C428.841 7.968 428.713 8.26133 428.457 8.496C428.211 8.72 427.891 8.832 427.497 8.832ZM432.911 18L429.951 9.936H432.223L434.223 15.968L436.223 9.936H438.479L435.535 18H432.911ZM439.846 18V9.936H442.006V18H439.846ZM440.934 8.832C440.55 8.832 440.23 8.72 439.974 8.496C439.729 8.26133 439.606 7.968 439.606 7.616C439.606 7.264 439.729 6.976 439.974 6.752C440.23 6.51733 440.55 6.4 440.934 6.4C441.329 6.4 441.649 6.51733 441.894 6.752C442.15 6.976 442.278 7.264 442.278 7.616C442.278 7.968 442.15 8.26133 441.894 8.496C441.649 8.72 441.329 8.832 440.934 8.832ZM447.821 18C447.255 18 446.759 17.9147 446.333 17.744C445.917 17.5627 445.591 17.2693 445.357 16.864C445.122 16.448 445.005 15.8827 445.005 15.168V11.744H443.629V9.936H445.005L445.245 7.744H447.165V9.936H449.293V11.744H447.165V15.2C447.165 15.5627 447.245 15.8133 447.405 15.952C447.565 16.0907 447.837 16.16 448.221 16.16H449.277V18H447.821ZM452.135 21.52L454.087 17.104H453.607L450.375 9.936H452.727L455.031 15.136L457.111 9.936H459.399L454.423 21.52H452.135ZM468.277 18.192C467.551 18.192 466.885 18.0587 466.277 17.792C465.669 17.5253 465.183 17.12 464.821 16.576C464.458 16.032 464.266 15.344 464.245 14.512H466.357C466.367 14.864 466.447 15.184 466.597 15.472C466.746 15.7493 466.965 15.9733 467.253 16.144C467.541 16.304 467.882 16.384 468.277 16.384C468.65 16.384 468.97 16.3093 469.237 16.16C469.503 16.0107 469.706 15.8133 469.845 15.568C469.983 15.3227 470.053 15.04 470.053 14.72C470.053 14.3467 469.957 14.0373 469.765 13.792C469.583 13.536 469.327 13.344 468.997 13.216C468.677 13.088 468.309 13.024 467.893 13.024H467.061V11.248H467.893C468.415 11.248 468.853 11.1253 469.205 10.88C469.567 10.6347 469.749 10.2667 469.749 9.776C469.749 9.37067 469.615 9.04533 469.349 8.8C469.093 8.55467 468.73 8.432 468.261 8.432C467.749 8.432 467.349 8.58133 467.061 8.88C466.773 9.17867 466.613 9.54667 466.581 9.984H464.469C464.501 9.28 464.677 8.67733 464.997 8.176C465.327 7.664 465.77 7.27467 466.325 7.008C466.879 6.74133 467.525 6.608 468.261 6.608C469.039 6.608 469.695 6.74667 470.229 7.024C470.773 7.29067 471.183 7.65333 471.461 8.112C471.738 8.57067 471.877 9.06667 471.877 9.6C471.877 10.0373 471.791 10.4267 471.621 10.768C471.461 11.1093 471.242 11.392 470.965 11.616C470.687 11.84 470.383 12 470.053 12.096C470.469 12.1813 470.831 12.3467 471.141 12.592C471.461 12.8267 471.706 13.1307 471.877 13.504C472.058 13.8773 472.149 14.3093 472.149 14.8C472.149 15.408 471.999 15.9733 471.701 16.496C471.413 17.008 470.975 17.4187 470.389 17.728C469.813 18.0373 469.109 18.192 468.277 18.192ZM477.917 18.192C477.192 18.192 476.525 18.0587 475.917 17.792C475.309 17.5253 474.824 17.12 474.461 16.576C474.099 16.032 473.907 15.344 473.885 14.512H475.997C476.008 14.864 476.088 15.184 476.237 15.472C476.387 15.7493 476.605 15.9733 476.893 16.144C477.181 16.304 477.523 16.384 477.917 16.384C478.291 16.384 478.611 16.3093 478.877 16.16C479.144 16.0107 479.347 15.8133 479.485 15.568C479.624 15.3227 479.693 15.04 479.693 14.72C479.693 14.3467 479.597 14.0373 479.405 13.792C479.224 13.536 478.968 13.344 478.637 13.216C478.317 13.088 477.949 13.024 477.533 13.024H476.701V11.248H477.533C478.056 11.248 478.493 11.1253 478.845 10.88C479.208 10.6347 479.389 10.2667 479.389 9.776C479.389 9.37067 479.256 9.04533 478.989 8.8C478.733 8.55467 478.371 8.432 477.901 8.432C477.389 8.432 476.989 8.58133 476.701 8.88C476.413 9.17867 476.253 9.54667 476.221 9.984H474.109C474.141 9.28 474.317 8.67733 474.637 8.176C474.968 7.664 475.411 7.27467 475.965 7.008C476.52 6.74133 477.165 6.608 477.901 6.608C478.68 6.608 479.336 6.74667 479.869 7.024C480.413 7.29067 480.824 7.65333 481.101 8.112C481.379 8.57067 481.517 9.06667 481.517 9.6C481.517 10.0373 481.432 10.4267 481.261 10.768C481.101 11.1093 480.883 11.392 480.605 11.616C480.328 11.84 480.024 12 479.693 12.096C480.109 12.1813 480.472 12.3467 480.781 12.592C481.101 12.8267 481.347 13.1307 481.517 13.504C481.699 13.8773 481.789 14.3093 481.789 14.8C481.789 15.408 481.64 15.9733 481.341 16.496C481.053 17.008 480.616 17.4187 480.029 17.728C479.453 18.0373 478.749 18.192 477.917 18.192ZM484.79 18.08C484.384 18.08 484.059 17.9627 483.814 17.728C483.568 17.4827 483.446 17.184 483.446 16.832C483.446 16.48 483.568 16.1867 483.814 15.952C484.059 15.7067 484.384 15.584 484.79 15.584C485.174 15.584 485.488 15.7067 485.734 15.952C485.979 16.1867 486.102 16.48 486.102 16.832C486.102 17.184 485.979 17.4827 485.734 17.728C485.488 17.9627 485.174 18.08 484.79 18.08ZM491.589 18.192C490.864 18.192 490.197 18.0587 489.589 17.792C488.981 17.5253 488.496 17.12 488.133 16.576C487.77 16.032 487.578 15.344 487.557 14.512H489.669C489.68 14.864 489.76 15.184 489.909 15.472C490.058 15.7493 490.277 15.9733 490.565 16.144C490.853 16.304 491.194 16.384 491.589 16.384C491.962 16.384 492.282 16.3093 492.549 16.16C492.816 16.0107 493.018 15.8133 493.157 15.568C493.296 15.3227 493.365 15.04 493.365 14.72C493.365 14.3467 493.269 14.0373 493.077 13.792C492.896 13.536 492.64 13.344 492.309 13.216C491.989 13.088 491.621 13.024 491.205 13.024H490.373V11.248H491.205C491.728 11.248 492.165 11.1253 492.517 10.88C492.88 10.6347 493.061 10.2667 493.061 9.776C493.061 9.37067 492.928 9.04533 492.661 8.8C492.405 8.55467 492.042 8.432 491.573 8.432C491.061 8.432 490.661 8.58133 490.373 8.88C490.085 9.17867 489.925 9.54667 489.893 9.984H487.781C487.813 9.28 487.989 8.67733 488.309 8.176C488.64 7.664 489.082 7.27467 489.637 7.008C490.192 6.74133 490.837 6.608 491.573 6.608C492.352 6.608 493.008 6.74667 493.541 7.024C494.085 7.29067 494.496 7.65333 494.773 8.112C495.05 8.57067 495.189 9.06667 495.189 9.6C495.189 10.0373 495.104 10.4267 494.933 10.768C494.773 11.1093 494.554 11.392 494.277 11.616C494 11.84 493.696 12 493.365 12.096C493.781 12.1813 494.144 12.3467 494.453 12.592C494.773 12.8267 495.018 13.1307 495.189 13.504C495.37 13.8773 495.461 14.3093 495.461 14.8C495.461 15.408 495.312 15.9733 495.013 16.496C494.725 17.008 494.288 17.4187 493.701 17.728C493.125 18.0373 492.421 18.192 491.589 18.192ZM499.312 18L505.6 6.8H507.696L501.408 18H499.312ZM507.312 18.192C506.79 18.192 506.315 18.08 505.888 17.856C505.472 17.6213 505.142 17.2907 504.896 16.864C504.651 16.4267 504.528 15.9147 504.528 15.328C504.528 14.7307 504.651 14.2187 504.896 13.792C505.142 13.3653 505.472 13.04 505.888 12.816C506.315 12.5813 506.79 12.464 507.312 12.464C507.835 12.464 508.304 12.5813 508.72 12.816C509.136 13.04 509.467 13.3653 509.712 13.792C509.958 14.2187 510.08 14.7307 510.08 15.328C510.08 15.9147 509.958 16.4267 509.712 16.864C509.467 17.2907 509.136 17.6213 508.72 17.856C508.304 18.08 507.835 18.192 507.312 18.192ZM507.296 16.704C507.51 16.704 507.696 16.6507 507.856 16.544C508.016 16.4373 508.144 16.2827 508.24 16.08C508.336 15.8773 508.384 15.6267 508.384 15.328C508.384 15.0187 508.336 14.7627 508.24 14.56C508.155 14.3467 508.027 14.1867 507.856 14.08C507.696 13.9733 507.51 13.92 507.296 13.92C507.094 13.92 506.907 13.9733 506.736 14.08C506.576 14.1867 506.448 14.3467 506.352 14.56C506.256 14.7627 506.208 15.0187 506.208 15.328C506.208 15.6267 506.256 15.8773 506.352 16.08C506.448 16.2827 506.576 16.4373 506.736 16.544C506.907 16.6507 507.094 16.704 507.296 16.704ZM499.776 12.352C499.264 12.352 498.795 12.2347 498.368 12C497.952 11.7653 497.616 11.4347 497.36 11.008C497.115 10.5813 496.992 10.0747 496.992 9.488C496.992 8.88 497.115 8.368 497.36 7.952C497.616 7.52533 497.952 7.19467 498.368 6.96C498.795 6.72533 499.27 6.608 499.792 6.608C500.315 6.608 500.779 6.72533 501.184 6.96C501.6 7.19467 501.931 7.52533 502.176 7.952C502.432 8.368 502.56 8.88 502.56 9.488C502.56 10.0747 502.432 10.5813 502.176 11.008C501.931 11.4347 501.6 11.7653 501.184 12C500.768 12.2347 500.299 12.352 499.776 12.352ZM499.776 10.864C499.979 10.864 500.16 10.8107 500.32 10.704C500.491 10.5973 500.624 10.4427 500.72 10.24C500.816 10.0373 500.864 9.78667 500.864 9.488C500.864 9.168 500.816 8.90667 500.72 8.704C500.624 8.50133 500.491 8.34667 500.32 8.24C500.16 8.13333 499.979 8.08 499.776 8.08C499.574 8.08 499.387 8.13333 499.216 8.24C499.056 8.34667 498.928 8.50667 498.832 8.72C498.736 8.92267 498.688 9.17867 498.688 9.488C498.688 9.78667 498.736 10.0373 498.832 10.24C498.928 10.4427 499.056 10.5973 499.216 10.704C499.387 10.8107 499.574 10.864 499.776 10.864Z" fill="#242424"/>
<path d="M264.132 285.192C263.321 285.192 262.596 285.053 261.956 284.776C261.327 284.499 260.825 284.093 260.452 283.56C260.089 283.027 259.903 282.381 259.892 281.624H262.18C262.191 281.955 262.276 282.253 262.436 282.52C262.596 282.787 262.815 283 263.092 283.16C263.38 283.309 263.721 283.384 264.116 283.384C264.457 283.384 264.751 283.331 264.996 283.224C265.252 283.107 265.449 282.947 265.588 282.744C265.727 282.541 265.796 282.301 265.796 282.024C265.796 281.704 265.716 281.437 265.556 281.224C265.407 281.011 265.193 280.829 264.916 280.68C264.649 280.531 264.335 280.397 263.972 280.28C263.62 280.152 263.247 280.019 262.852 279.88C261.967 279.592 261.289 279.208 260.82 278.728C260.361 278.248 260.132 277.613 260.132 276.824C260.132 276.152 260.292 275.576 260.612 275.096C260.943 274.616 261.396 274.248 261.972 273.992C262.548 273.736 263.204 273.608 263.94 273.608C264.697 273.608 265.359 273.741 265.924 274.008C266.5 274.264 266.953 274.637 267.284 275.128C267.625 275.619 267.801 276.195 267.812 276.856H265.508C265.497 276.611 265.423 276.381 265.284 276.168C265.156 275.944 264.975 275.768 264.74 275.64C264.505 275.501 264.228 275.432 263.908 275.432C263.631 275.421 263.375 275.464 263.14 275.56C262.916 275.656 262.735 275.8 262.596 275.992C262.468 276.173 262.404 276.403 262.404 276.68C262.404 276.947 262.468 277.171 262.596 277.352C262.735 277.533 262.921 277.693 263.156 277.832C263.391 277.96 263.668 278.083 263.988 278.2C264.308 278.307 264.655 278.419 265.028 278.536C265.583 278.728 266.095 278.957 266.564 279.224C267.033 279.48 267.407 279.816 267.684 280.232C267.961 280.648 268.1 281.197 268.1 281.88C268.1 282.467 267.945 283.011 267.636 283.512C267.327 284.013 266.879 284.419 266.292 284.728C265.716 285.037 264.996 285.192 264.132 285.192ZM273.788 285.192C272.977 285.192 272.257 285.011 271.628 284.648C270.999 284.285 270.508 283.789 270.156 283.16C269.804 282.531 269.628 281.811 269.628 281C269.628 280.168 269.804 279.437 270.156 278.808C270.508 278.168 270.999 277.667 271.628 277.304C272.257 276.931 272.977 276.744 273.788 276.744C274.823 276.744 275.692 277.016 276.396 277.56C277.1 278.104 277.548 278.851 277.74 279.8H275.452C275.356 279.427 275.153 279.133 274.844 278.92C274.545 278.707 274.188 278.6 273.772 278.6C273.399 278.6 273.063 278.696 272.764 278.888C272.476 279.069 272.247 279.341 272.076 279.704C271.916 280.056 271.836 280.477 271.836 280.968C271.836 281.341 271.884 281.677 271.98 281.976C272.076 282.264 272.209 282.515 272.38 282.728C272.551 282.931 272.753 283.085 272.988 283.192C273.233 283.299 273.495 283.352 273.772 283.352C274.049 283.352 274.3 283.304 274.524 283.208C274.759 283.112 274.956 282.979 275.116 282.808C275.276 282.627 275.388 282.408 275.452 282.152H277.74C277.548 283.08 277.095 283.821 276.38 284.376C275.676 284.92 274.812 285.192 273.788 285.192ZM279.651 285V276.936H281.811V285H279.651ZM280.739 275.832C280.355 275.832 280.035 275.72 279.779 275.496C279.534 275.261 279.411 274.968 279.411 274.616C279.411 274.264 279.534 273.976 279.779 273.752C280.035 273.517 280.355 273.4 280.739 273.4C281.134 273.4 281.454 273.517 281.699 273.752C281.955 273.976 282.083 274.264 282.083 274.616C282.083 274.968 281.955 275.261 281.699 275.496C281.454 275.72 281.134 275.832 280.739 275.832ZM287.866 285.192C287.055 285.192 286.335 285.021 285.706 284.68C285.087 284.328 284.602 283.843 284.25 283.224C283.908 282.595 283.738 281.869 283.738 281.048C283.738 280.205 283.908 279.464 284.25 278.824C284.602 278.173 285.087 277.667 285.706 277.304C286.324 276.931 287.044 276.744 287.866 276.744C288.666 276.744 289.364 276.92 289.962 277.272C290.559 277.624 291.023 278.099 291.354 278.696C291.684 279.293 291.85 279.971 291.85 280.728C291.85 280.835 291.85 280.957 291.85 281.096C291.85 281.224 291.839 281.357 291.818 281.496H285.274V280.184H289.674C289.642 279.661 289.455 279.251 289.114 278.952C288.783 278.653 288.367 278.504 287.866 278.504C287.503 278.504 287.167 278.589 286.858 278.76C286.548 278.92 286.303 279.171 286.122 279.512C285.951 279.853 285.866 280.285 285.866 280.808V281.272C285.866 281.709 285.946 282.093 286.106 282.424C286.276 282.744 286.511 282.995 286.81 283.176C287.108 283.347 287.455 283.432 287.85 283.432C288.244 283.432 288.57 283.347 288.826 283.176C289.092 283.005 289.29 282.787 289.418 282.52H291.626C291.476 283.021 291.226 283.475 290.874 283.88C290.522 284.285 290.09 284.605 289.578 284.84C289.066 285.075 288.495 285.192 287.866 285.192ZM293.618 285V276.936H295.523L295.683 278.248C295.928 277.8 296.275 277.437 296.723 277.16C297.181 276.883 297.725 276.744 298.355 276.744C299.027 276.744 299.592 276.883 300.051 277.16C300.509 277.437 300.856 277.843 301.091 278.376C301.336 278.909 301.459 279.565 301.459 280.344V285H299.315V280.552C299.315 279.912 299.176 279.421 298.899 279.08C298.632 278.739 298.216 278.568 297.651 278.568C297.288 278.568 296.963 278.653 296.674 278.824C296.397 278.995 296.179 279.24 296.019 279.56C295.859 279.869 295.779 280.248 295.779 280.696V285H293.618ZM307.398 285.192C306.587 285.192 305.867 285.011 305.238 284.648C304.608 284.285 304.118 283.789 303.766 283.16C303.414 282.531 303.238 281.811 303.238 281C303.238 280.168 303.414 279.437 303.766 278.808C304.118 278.168 304.608 277.667 305.238 277.304C305.867 276.931 306.587 276.744 307.398 276.744C308.432 276.744 309.302 277.016 310.006 277.56C310.71 278.104 311.158 278.851 311.35 279.8H309.062C308.966 279.427 308.763 279.133 308.454 278.92C308.155 278.707 307.798 278.6 307.382 278.6C307.008 278.6 306.672 278.696 306.374 278.888C306.086 279.069 305.856 279.341 305.686 279.704C305.526 280.056 305.446 280.477 305.446 280.968C305.446 281.341 305.494 281.677 305.59 281.976C305.686 282.264 305.819 282.515 305.99 282.728C306.16 282.931 306.363 283.085 306.598 283.192C306.843 283.299 307.104 283.352 307.382 283.352C307.659 283.352 307.91 283.304 308.134 283.208C308.368 283.112 308.566 282.979 308.726 282.808C308.886 282.627 308.998 282.408 309.062 282.152H311.35C311.158 283.08 310.704 283.821 309.99 284.376C309.286 284.92 308.422 285.192 307.398 285.192ZM317.084 285.192C316.274 285.192 315.554 285.021 314.924 284.68C314.306 284.328 313.82 283.843 313.468 283.224C313.127 282.595 312.956 281.869 312.956 281.048C312.956 280.205 313.127 279.464 313.468 278.824C313.82 278.173 314.306 277.667 314.924 277.304C315.543 276.931 316.263 276.744 317.084 276.744C317.884 276.744 318.583 276.92 319.18 277.272C319.778 277.624 320.242 278.099 320.572 278.696C320.903 279.293 321.068 279.971 321.068 280.728C321.068 280.835 321.068 280.957 321.068 281.096C321.068 281.224 321.058 281.357 321.036 281.496H314.492V280.184H318.892C318.86 279.661 318.674 279.251 318.332 278.952C318.002 278.653 317.586 278.504 317.084 278.504C316.722 278.504 316.386 278.589 316.076 278.76C315.767 278.92 315.522 279.171 315.34 279.512C315.17 279.853 315.084 280.285 315.084 280.808V281.272C315.084 281.709 315.164 282.093 315.324 282.424C315.495 282.744 315.73 282.995 316.028 283.176C316.327 283.347 316.674 283.432 317.068 283.432C317.463 283.432 317.788 283.347 318.044 283.176C318.311 283.005 318.508 282.787 318.636 282.52H320.844C320.695 283.021 320.444 283.475 320.092 283.88C319.74 284.285 319.308 284.605 318.796 284.84C318.284 285.075 317.714 285.192 317.084 285.192ZM330.347 285.192C329.622 285.192 328.955 285.059 328.347 284.792C327.739 284.525 327.254 284.12 326.891 283.576C326.528 283.032 326.336 282.344 326.315 281.512H328.427C328.438 281.864 328.518 282.184 328.667 282.472C328.816 282.749 329.035 282.973 329.323 283.144C329.611 283.304 329.952 283.384 330.347 283.384C330.72 283.384 331.04 283.309 331.307 283.16C331.574 283.011 331.776 282.813 331.915 282.568C332.054 282.323 332.123 282.04 332.123 281.72C332.123 281.347 332.027 281.037 331.835 280.792C331.654 280.536 331.398 280.344 331.067 280.216C330.747 280.088 330.379 280.024 329.963 280.024H329.131V278.248H329.963C330.486 278.248 330.923 278.125 331.275 277.88C331.638 277.635 331.819 277.267 331.819 276.776C331.819 276.371 331.686 276.045 331.419 275.8C331.163 275.555 330.8 275.432 330.331 275.432C329.819 275.432 329.419 275.581 329.131 275.88C328.843 276.179 328.683 276.547 328.651 276.984H326.539C326.571 276.28 326.747 275.677 327.067 275.176C327.398 274.664 327.84 274.275 328.395 274.008C328.95 273.741 329.595 273.608 330.331 273.608C331.11 273.608 331.766 273.747 332.299 274.024C332.843 274.291 333.254 274.653 333.531 275.112C333.808 275.571 333.947 276.067 333.947 276.6C333.947 277.037 333.862 277.427 333.691 277.768C333.531 278.109 333.312 278.392 333.035 278.616C332.758 278.84 332.454 279 332.123 279.096C332.539 279.181 332.902 279.347 333.211 279.592C333.531 279.827 333.776 280.131 333.947 280.504C334.128 280.877 334.219 281.309 334.219 281.8C334.219 282.408 334.07 282.973 333.771 283.496C333.483 284.008 333.046 284.419 332.459 284.728C331.883 285.037 331.179 285.192 330.347 285.192ZM339.988 285.192C339.262 285.192 338.596 285.059 337.988 284.792C337.38 284.525 336.894 284.12 336.532 283.576C336.169 283.032 335.977 282.344 335.956 281.512H338.068C338.078 281.864 338.158 282.184 338.308 282.472C338.457 282.749 338.676 282.973 338.964 283.144C339.252 283.304 339.593 283.384 339.988 283.384C340.361 283.384 340.681 283.309 340.948 283.16C341.214 283.011 341.417 282.813 341.556 282.568C341.694 282.323 341.764 282.04 341.764 281.72C341.764 281.347 341.668 281.037 341.476 280.792C341.294 280.536 341.038 280.344 340.708 280.216C340.388 280.088 340.02 280.024 339.604 280.024H338.772V278.248H339.604C340.126 278.248 340.564 278.125 340.916 277.88C341.278 277.635 341.46 277.267 341.46 276.776C341.46 276.371 341.326 276.045 341.06 275.8C340.804 275.555 340.441 275.432 339.972 275.432C339.46 275.432 339.06 275.581 338.772 275.88C338.484 276.179 338.324 276.547 338.292 276.984H336.18C336.212 276.28 336.388 275.677 336.708 275.176C337.038 274.664 337.481 274.275 338.036 274.008C338.59 273.741 339.236 273.608 339.972 273.608C340.75 273.608 341.406 273.747 341.94 274.024C342.484 274.291 342.894 274.653 343.172 275.112C343.449 275.571 343.588 276.067 343.588 276.6C343.588 277.037 343.502 277.427 343.332 277.768C343.172 278.109 342.953 278.392 342.676 278.616C342.398 278.84 342.094 279 341.764 279.096C342.18 279.181 342.542 279.347 342.852 279.592C343.172 279.827 343.417 280.131 343.588 280.504C343.769 280.877 343.86 281.309 343.86 281.8C343.86 282.408 343.71 282.973 343.411 283.496C343.124 284.008 342.686 284.419 342.1 284.728C341.524 285.037 340.82 285.192 339.988 285.192ZM346.86 285.08C346.455 285.08 346.129 284.963 345.884 284.728C345.639 284.483 345.516 284.184 345.516 283.832C345.516 283.48 345.639 283.187 345.884 282.952C346.129 282.707 346.455 282.584 346.86 282.584C347.244 282.584 347.559 282.707 347.804 282.952C348.049 283.187 348.172 283.48 348.172 283.832C348.172 284.184 348.049 284.483 347.804 284.728C347.559 284.963 347.244 285.08 346.86 285.08ZM353.659 285.192C352.934 285.192 352.267 285.059 351.659 284.792C351.051 284.525 350.566 284.12 350.203 283.576C349.841 283.032 349.649 282.344 349.627 281.512H351.739C351.75 281.864 351.83 282.184 351.979 282.472C352.129 282.749 352.347 282.973 352.635 283.144C352.923 283.304 353.265 283.384 353.659 283.384C354.033 283.384 354.353 283.309 354.619 283.16C354.886 283.011 355.089 282.813 355.227 282.568C355.366 282.323 355.435 282.04 355.435 281.72C355.435 281.347 355.339 281.037 355.147 280.792C354.966 280.536 354.71 280.344 354.379 280.216C354.059 280.088 353.691 280.024 353.275 280.024H352.443V278.248H353.275C353.798 278.248 354.235 278.125 354.587 277.88C354.95 277.635 355.131 277.267 355.131 276.776C355.131 276.371 354.998 276.045 354.731 275.8C354.475 275.555 354.113 275.432 353.643 275.432C353.131 275.432 352.731 275.581 352.443 275.88C352.155 276.179 351.995 276.547 351.963 276.984H349.851C349.883 276.28 350.059 275.677 350.379 275.176C350.71 274.664 351.153 274.275 351.707 274.008C352.262 273.741 352.907 273.608 353.643 273.608C354.422 273.608 355.078 273.747 355.611 274.024C356.155 274.291 356.566 274.653 356.843 275.112C357.121 275.571 357.259 276.067 357.259 276.6C357.259 277.037 357.174 277.427 357.003 277.768C356.843 278.109 356.625 278.392 356.347 278.616C356.07 278.84 355.766 279 355.435 279.096C355.851 279.181 356.214 279.347 356.523 279.592C356.843 279.827 357.089 280.131 357.259 280.504C357.441 280.877 357.531 281.309 357.531 281.8C357.531 282.408 357.382 282.973 357.083 283.496C356.795 284.008 356.358 284.419 355.771 284.728C355.195 285.037 354.491 285.192 353.659 285.192ZM361.383 285L367.671 273.8H369.767L363.479 285H361.383ZM369.383 285.192C368.86 285.192 368.385 285.08 367.959 284.856C367.543 284.621 367.212 284.291 366.967 283.864C366.721 283.427 366.599 282.915 366.599 282.328C366.599 281.731 366.721 281.219 366.967 280.792C367.212 280.365 367.543 280.04 367.959 279.816C368.385 279.581 368.86 279.464 369.383 279.464C369.905 279.464 370.375 279.581 370.791 279.816C371.207 280.04 371.537 280.365 371.783 280.792C372.028 281.219 372.151 281.731 372.151 282.328C372.151 282.915 372.028 283.427 371.783 283.864C371.537 284.291 371.207 284.621 370.791 284.856C370.375 285.08 369.905 285.192 369.383 285.192ZM369.367 283.704C369.58 283.704 369.767 283.651 369.927 283.544C370.087 283.437 370.215 283.283 370.311 283.08C370.407 282.877 370.455 282.627 370.455 282.328C370.455 282.019 370.407 281.763 370.311 281.56C370.225 281.347 370.097 281.187 369.927 281.08C369.767 280.973 369.58 280.92 369.367 280.92C369.164 280.92 368.977 280.973 368.807 281.08C368.647 281.187 368.519 281.347 368.423 281.56C368.327 281.763 368.279 282.019 368.279 282.328C368.279 282.627 368.327 282.877 368.423 283.08C368.519 283.283 368.647 283.437 368.807 283.544C368.977 283.651 369.164 283.704 369.367 283.704ZM361.847 279.352C361.335 279.352 360.865 279.235 360.439 279C360.023 278.765 359.687 278.435 359.431 278.008C359.185 277.581 359.063 277.075 359.063 276.488C359.063 275.88 359.185 275.368 359.431 274.952C359.687 274.525 360.023 274.195 360.439 273.96C360.865 273.725 361.34 273.608 361.863 273.608C362.385 273.608 362.849 273.725 363.255 273.96C363.671 274.195 364.001 274.525 364.247 274.952C364.503 275.368 364.631 275.88 364.631 276.488C364.631 277.075 364.503 277.581 364.247 278.008C364.001 278.435 363.671 278.765 363.255 279C362.839 279.235 362.369 279.352 361.847 279.352ZM361.847 277.864C362.049 277.864 362.231 277.811 362.391 277.704C362.561 277.597 362.695 277.443 362.791 277.24C362.887 277.037 362.935 276.787 362.935 276.488C362.935 276.168 362.887 275.907 362.791 275.704C362.695 275.501 362.561 275.347 362.391 275.24C362.231 275.133 362.049 275.08 361.847 275.08C361.644 275.08 361.457 275.133 361.287 275.24C361.127 275.347 360.999 275.507 360.903 275.72C360.807 275.923 360.759 276.179 360.759 276.488C360.759 276.787 360.807 277.037 360.903 277.24C360.999 277.443 361.127 277.597 361.287 277.704C361.457 277.811 361.644 277.864 361.847 277.864Z" fill="#242424"/>
<path d="M519.831 285V273.8H524.423C525.201 273.8 525.857 273.923 526.391 274.168C526.924 274.413 527.324 274.755 527.591 275.192C527.868 275.619 528.007 276.115 528.007 276.68C528.007 277.245 527.884 277.72 527.639 278.104C527.393 278.488 527.068 278.787 526.663 279C526.268 279.203 525.831 279.32 525.351 279.352L525.607 279.176C526.119 279.197 526.572 279.336 526.967 279.592C527.372 279.837 527.687 280.168 527.911 280.584C528.145 281 528.263 281.453 528.263 281.944C528.263 282.541 528.119 283.069 527.831 283.528C527.543 283.987 527.127 284.349 526.583 284.616C526.039 284.872 525.372 285 524.583 285H519.831ZM521.991 283.24H524.231C524.817 283.24 525.271 283.107 525.591 282.84C525.911 282.573 526.071 282.189 526.071 281.688C526.071 281.187 525.905 280.797 525.575 280.52C525.244 280.232 524.785 280.088 524.199 280.088H521.991V283.24ZM521.991 278.472H524.071C524.636 278.472 525.063 278.344 525.351 278.088C525.649 277.832 525.799 277.469 525.799 277C525.799 276.541 525.649 276.184 525.351 275.928C525.063 275.661 524.631 275.528 524.055 275.528H521.991V278.472ZM532.994 285.192C532.343 285.192 531.783 285.059 531.314 284.792C530.855 284.515 530.503 284.115 530.258 283.592C530.012 283.059 529.89 282.403 529.89 281.624V276.936H532.05V281.4C532.05 282.051 532.183 282.541 532.45 282.872C532.727 283.203 533.148 283.368 533.714 283.368C534.076 283.368 534.396 283.288 534.674 283.128C534.951 282.957 535.17 282.717 535.33 282.408C535.5 282.088 535.586 281.699 535.586 281.24V276.936H537.73V285H535.842L535.666 283.688C535.431 284.147 535.084 284.515 534.626 284.792C534.167 285.059 533.623 285.192 532.994 285.192ZM543.141 285.192C542.405 285.192 541.765 285.075 541.221 284.84C540.677 284.605 540.25 284.28 539.941 283.864C539.632 283.448 539.456 282.979 539.413 282.456H541.557C541.61 282.659 541.701 282.845 541.829 283.016C541.957 283.176 542.128 283.304 542.341 283.4C542.554 283.496 542.81 283.544 543.109 283.544C543.397 283.544 543.632 283.507 543.813 283.432C543.994 283.347 544.128 283.235 544.213 283.096C544.309 282.957 544.357 282.813 544.357 282.664C544.357 282.44 544.293 282.269 544.165 282.152C544.037 282.024 543.85 281.923 543.605 281.848C543.36 281.773 543.061 281.699 542.709 281.624C542.325 281.549 541.946 281.459 541.573 281.352C541.21 281.235 540.885 281.091 540.597 280.92C540.309 280.749 540.08 280.531 539.909 280.264C539.738 279.997 539.653 279.667 539.653 279.272C539.653 278.792 539.781 278.365 540.037 277.992C540.293 277.608 540.666 277.304 541.157 277.08C541.648 276.856 542.24 276.744 542.933 276.744C543.904 276.744 544.672 276.963 545.237 277.4C545.802 277.837 546.138 278.44 546.245 279.208H544.213C544.149 278.963 544.005 278.771 543.781 278.632C543.568 278.483 543.28 278.408 542.917 278.408C542.533 278.408 542.24 278.477 542.037 278.616C541.834 278.755 541.733 278.936 541.733 279.16C541.733 279.309 541.797 279.443 541.925 279.56C542.064 279.677 542.256 279.779 542.501 279.864C542.746 279.939 543.045 280.013 543.397 280.088C544.016 280.216 544.56 280.365 545.029 280.536C545.498 280.696 545.866 280.931 546.133 281.24C546.4 281.539 546.533 281.976 546.533 282.552C546.533 283.064 546.394 283.523 546.117 283.928C545.84 284.323 545.445 284.632 544.933 284.856C544.432 285.08 543.834 285.192 543.141 285.192ZM548.409 285V276.936H550.569V285H548.409ZM549.497 275.832C549.113 275.832 548.793 275.72 548.537 275.496C548.291 275.261 548.169 274.968 548.169 274.616C548.169 274.264 548.291 273.976 548.537 273.752C548.793 273.517 549.113 273.4 549.497 273.4C549.891 273.4 550.211 273.517 550.457 273.752C550.713 273.976 550.841 274.264 550.841 274.616C550.841 274.968 550.713 275.261 550.457 275.496C550.211 275.72 549.891 275.832 549.497 275.832ZM552.751 285V276.936H554.655L554.815 278.248C555.061 277.8 555.407 277.437 555.855 277.16C556.314 276.883 556.858 276.744 557.487 276.744C558.159 276.744 558.725 276.883 559.183 277.16C559.642 277.437 559.989 277.843 560.223 278.376C560.469 278.909 560.591 279.565 560.591 280.344V285H558.447V280.552C558.447 279.912 558.309 279.421 558.031 279.08C557.765 278.739 557.349 278.568 556.783 278.568C556.421 278.568 556.095 278.653 555.807 278.824C555.53 278.995 555.311 279.24 555.151 279.56C554.991 279.869 554.911 280.248 554.911 280.696V285H552.751ZM566.498 285.192C565.688 285.192 564.968 285.021 564.338 284.68C563.72 284.328 563.234 283.843 562.882 283.224C562.541 282.595 562.37 281.869 562.37 281.048C562.37 280.205 562.541 279.464 562.882 278.824C563.234 278.173 563.72 277.667 564.338 277.304C564.957 276.931 565.677 276.744 566.498 276.744C567.298 276.744 567.997 276.92 568.594 277.272C569.192 277.624 569.656 278.099 569.986 278.696C570.317 279.293 570.482 279.971 570.482 280.728C570.482 280.835 570.482 280.957 570.482 281.096C570.482 281.224 570.472 281.357 570.45 281.496H563.906V280.184H568.306C568.274 279.661 568.088 279.251 567.746 278.952C567.416 278.653 567 278.504 566.498 278.504C566.136 278.504 565.8 278.589 565.49 278.76C565.181 278.92 564.936 279.171 564.754 279.512C564.584 279.853 564.498 280.285 564.498 280.808V281.272C564.498 281.709 564.578 282.093 564.738 282.424C564.909 282.744 565.144 282.995 565.442 283.176C565.741 283.347 566.088 283.432 566.482 283.432C566.877 283.432 567.202 283.347 567.458 283.176C567.725 283.005 567.922 282.787 568.05 282.52H570.258C570.109 283.021 569.858 283.475 569.506 283.88C569.154 284.285 568.722 284.605 568.21 284.84C567.698 285.075 567.128 285.192 566.498 285.192ZM575.547 285.192C574.811 285.192 574.171 285.075 573.627 284.84C573.083 284.605 572.657 284.28 572.347 283.864C572.038 283.448 571.862 282.979 571.819 282.456H573.963C574.017 282.659 574.107 282.845 574.235 283.016C574.363 283.176 574.534 283.304 574.747 283.4C574.961 283.496 575.217 283.544 575.515 283.544C575.803 283.544 576.038 283.507 576.219 283.432C576.401 283.347 576.534 283.235 576.619 283.096C576.715 282.957 576.763 282.813 576.763 282.664C576.763 282.44 576.699 282.269 576.571 282.152C576.443 282.024 576.257 281.923 576.011 281.848C575.766 281.773 575.467 281.699 575.115 281.624C574.731 281.549 574.353 281.459 573.979 281.352C573.617 281.235 573.291 281.091 573.003 280.92C572.715 280.749 572.486 280.531 572.315 280.264C572.145 279.997 572.059 279.667 572.059 279.272C572.059 278.792 572.187 278.365 572.443 277.992C572.699 277.608 573.073 277.304 573.563 277.08C574.054 276.856 574.646 276.744 575.339 276.744C576.31 276.744 577.078 276.963 577.643 277.4C578.209 277.837 578.545 278.44 578.651 279.208H576.619C576.555 278.963 576.411 278.771 576.187 278.632C575.974 278.483 575.686 278.408 575.323 278.408C574.939 278.408 574.646 278.477 574.443 278.616C574.241 278.755 574.139 278.936 574.139 279.16C574.139 279.309 574.203 279.443 574.331 279.56C574.47 279.677 574.662 279.779 574.907 279.864C575.153 279.939 575.451 280.013 575.803 280.088C576.422 280.216 576.966 280.365 577.435 280.536C577.905 280.696 578.273 280.931 578.539 281.24C578.806 281.539 578.939 281.976 578.939 282.552C578.939 283.064 578.801 283.523 578.523 283.928C578.246 284.323 577.851 284.632 577.339 284.856C576.838 285.08 576.241 285.192 575.547 285.192ZM584.063 285.192C583.327 285.192 582.687 285.075 582.143 284.84C581.599 284.605 581.172 284.28 580.863 283.864C580.554 283.448 580.378 282.979 580.335 282.456H582.479C582.532 282.659 582.623 282.845 582.751 283.016C582.879 283.176 583.05 283.304 583.263 283.4C583.476 283.496 583.732 283.544 584.031 283.544C584.319 283.544 584.554 283.507 584.735 283.432C584.916 283.347 585.05 283.235 585.135 283.096C585.231 282.957 585.279 282.813 585.279 282.664C585.279 282.44 585.215 282.269 585.087 282.152C584.959 282.024 584.772 281.923 584.527 281.848C584.282 281.773 583.983 281.699 583.631 281.624C583.247 281.549 582.868 281.459 582.495 281.352C582.132 281.235 581.807 281.091 581.519 280.92C581.231 280.749 581.002 280.531 580.831 280.264C580.66 279.997 580.575 279.667 580.575 279.272C580.575 278.792 580.703 278.365 580.959 277.992C581.215 277.608 581.588 277.304 582.079 277.08C582.57 276.856 583.162 276.744 583.855 276.744C584.826 276.744 585.594 276.963 586.159 277.4C586.724 277.837 587.06 278.44 587.167 279.208H585.135C585.071 278.963 584.927 278.771 584.703 278.632C584.49 278.483 584.202 278.408 583.839 278.408C583.455 278.408 583.162 278.477 582.959 278.616C582.756 278.755 582.655 278.936 582.655 279.16C582.655 279.309 582.719 279.443 582.847 279.56C582.986 279.677 583.178 279.779 583.423 279.864C583.668 279.939 583.967 280.013 584.319 280.088C584.938 280.216 585.482 280.365 585.951 280.536C586.42 280.696 586.788 280.931 587.055 281.24C587.322 281.539 587.455 281.976 587.455 282.552C587.455 283.064 587.316 283.523 587.039 283.928C586.762 284.323 586.367 284.632 585.855 284.856C585.354 285.08 584.756 285.192 584.063 285.192ZM596.792 285.192C596.067 285.192 595.4 285.059 594.792 284.792C594.184 284.525 593.699 284.12 593.336 283.576C592.974 283.032 592.782 282.344 592.76 281.512H594.872C594.883 281.864 594.963 282.184 595.112 282.472C595.262 282.749 595.48 282.973 595.768 283.144C596.056 283.304 596.398 283.384 596.792 283.384C597.166 283.384 597.486 283.309 597.752 283.16C598.019 283.011 598.222 282.813 598.36 282.568C598.499 282.323 598.568 282.04 598.568 281.72C598.568 281.347 598.472 281.037 598.28 280.792C598.099 280.536 597.843 280.344 597.512 280.216C597.192 280.088 596.824 280.024 596.408 280.024H595.576V278.248H596.408C596.931 278.248 597.368 278.125 597.72 277.88C598.083 277.635 598.264 277.267 598.264 276.776C598.264 276.371 598.131 276.045 597.864 275.8C597.608 275.555 597.246 275.432 596.776 275.432C596.264 275.432 595.864 275.581 595.576 275.88C595.288 276.179 595.128 276.547 595.096 276.984H592.984C593.016 276.28 593.192 275.677 593.512 275.176C593.843 274.664 594.286 274.275 594.84 274.008C595.395 273.741 596.04 273.608 596.776 273.608C597.555 273.608 598.211 273.747 598.744 274.024C599.288 274.291 599.699 274.653 599.976 275.112C600.254 275.571 600.392 276.067 600.392 276.6C600.392 277.037 600.307 277.427 600.136 277.768C599.976 278.109 599.758 278.392 599.48 278.616C599.203 278.84 598.899 279 598.568 279.096C598.984 279.181 599.347 279.347 599.656 279.592C599.976 279.827 600.222 280.131 600.392 280.504C600.574 280.877 600.664 281.309 600.664 281.8C600.664 282.408 600.515 282.973 600.216 283.496C599.928 284.008 599.491 284.419 598.904 284.728C598.328 285.037 597.624 285.192 596.792 285.192ZM606.433 285.192C605.707 285.192 605.041 285.059 604.433 284.792C603.825 284.525 603.339 284.12 602.977 283.576C602.614 283.032 602.422 282.344 602.401 281.512H604.513C604.523 281.864 604.603 282.184 604.753 282.472C604.902 282.749 605.121 282.973 605.409 283.144C605.697 283.304 606.038 283.384 606.433 283.384C606.806 283.384 607.126 283.309 607.393 283.16C607.659 283.011 607.862 282.813 608.001 282.568C608.139 282.323 608.209 282.04 608.209 281.72C608.209 281.347 608.113 281.037 607.921 280.792C607.739 280.536 607.483 280.344 607.153 280.216C606.833 280.088 606.465 280.024 606.049 280.024H605.217V278.248H606.049C606.571 278.248 607.009 278.125 607.361 277.88C607.723 277.635 607.905 277.267 607.905 276.776C607.905 276.371 607.771 276.045 607.505 275.8C607.249 275.555 606.886 275.432 606.417 275.432C605.905 275.432 605.505 275.581 605.217 275.88C604.929 276.179 604.769 276.547 604.737 276.984H602.625C602.657 276.28 602.833 275.677 603.153 275.176C603.483 274.664 603.926 274.275 604.481 274.008C605.035 273.741 605.681 273.608 606.417 273.608C607.195 273.608 607.851 273.747 608.385 274.024C608.929 274.291 609.339 274.653 609.617 275.112C609.894 275.571 610.033 276.067 610.033 276.6C610.033 277.037 609.947 277.427 609.777 277.768C609.617 278.109 609.398 278.392 609.121 278.616C608.843 278.84 608.539 279 608.209 279.096C608.625 279.181 608.987 279.347 609.297 279.592C609.617 279.827 609.862 280.131 610.033 280.504C610.214 280.877 610.305 281.309 610.305 281.8C610.305 282.408 610.155 282.973 609.857 283.496C609.569 284.008 609.131 284.419 608.545 284.728C607.969 285.037 607.265 285.192 606.433 285.192ZM613.305 285.08C612.9 285.08 612.575 284.963 612.329 284.728C612.084 284.483 611.961 284.184 611.961 283.832C611.961 283.48 612.084 283.187 612.329 282.952C612.575 282.707 612.9 282.584 613.305 282.584C613.689 282.584 614.004 282.707 614.249 282.952C614.495 283.187 614.617 283.48 614.617 283.832C614.617 284.184 614.495 284.483 614.249 284.728C614.004 284.963 613.689 285.08 613.305 285.08ZM620.105 285.192C619.379 285.192 618.713 285.059 618.105 284.792C617.497 284.525 617.011 284.12 616.649 283.576C616.286 283.032 616.094 282.344 616.073 281.512H618.185C618.195 281.864 618.275 282.184 618.425 282.472C618.574 282.749 618.793 282.973 619.081 283.144C619.369 283.304 619.71 283.384 620.105 283.384C620.478 283.384 620.798 283.309 621.065 283.16C621.331 283.011 621.534 282.813 621.673 282.568C621.811 282.323 621.881 282.04 621.881 281.72C621.881 281.347 621.785 281.037 621.593 280.792C621.411 280.536 621.155 280.344 620.825 280.216C620.505 280.088 620.137 280.024 619.721 280.024H618.889V278.248H619.721C620.243 278.248 620.681 278.125 621.033 277.88C621.395 277.635 621.577 277.267 621.577 276.776C621.577 276.371 621.443 276.045 621.177 275.8C620.921 275.555 620.558 275.432 620.089 275.432C619.577 275.432 619.177 275.581 618.889 275.88C618.601 276.179 618.441 276.547 618.409 276.984H616.297C616.329 276.28 616.505 275.677 616.825 275.176C617.155 274.664 617.598 274.275 618.153 274.008C618.707 273.741 619.353 273.608 620.089 273.608C620.867 273.608 621.523 273.747 622.057 274.024C622.601 274.291 623.011 274.653 623.289 275.112C623.566 275.571 623.705 276.067 623.705 276.6C623.705 277.037 623.619 277.427 623.449 277.768C623.289 278.109 623.07 278.392 622.793 278.616C622.515 278.84 622.211 279 621.881 279.096C622.297 279.181 622.659 279.347 622.969 279.592C623.289 279.827 623.534 280.131 623.705 280.504C623.886 280.877 623.977 281.309 623.977 281.8C623.977 282.408 623.827 282.973 623.529 283.496C623.241 284.008 622.803 284.419 622.217 284.728C621.641 285.037 620.937 285.192 620.105 285.192ZM627.828 285L634.116 273.8H636.212L629.924 285H627.828ZM635.828 285.192C635.305 285.192 634.831 285.08 634.404 284.856C633.988 284.621 633.657 284.291 633.412 283.864C633.167 283.427 633.044 282.915 633.044 282.328C633.044 281.731 633.167 281.219 633.412 280.792C633.657 280.365 633.988 280.04 634.404 279.816C634.831 279.581 635.305 279.464 635.828 279.464C636.351 279.464 636.82 279.581 637.236 279.816C637.652 280.04 637.983 280.365 638.228 280.792C638.473 281.219 638.596 281.731 638.596 282.328C638.596 282.915 638.473 283.427 638.228 283.864C637.983 284.291 637.652 284.621 637.236 284.856C636.82 285.08 636.351 285.192 635.828 285.192ZM635.812 283.704C636.025 283.704 636.212 283.651 636.372 283.544C636.532 283.437 636.66 283.283 636.756 283.08C636.852 282.877 636.9 282.627 636.9 282.328C636.9 282.019 636.852 281.763 636.756 281.56C636.671 281.347 636.543 281.187 636.372 281.08C636.212 280.973 636.025 280.92 635.812 280.92C635.609 280.92 635.423 280.973 635.252 281.08C635.092 281.187 634.964 281.347 634.868 281.56C634.772 281.763 634.724 282.019 634.724 282.328C634.724 282.627 634.772 282.877 634.868 283.08C634.964 283.283 635.092 283.437 635.252 283.544C635.423 283.651 635.609 283.704 635.812 283.704ZM628.292 279.352C627.78 279.352 627.311 279.235 626.884 279C626.468 278.765 626.132 278.435 625.876 278.008C625.631 277.581 625.508 277.075 625.508 276.488C625.508 275.88 625.631 275.368 625.876 274.952C626.132 274.525 626.468 274.195 626.884 273.96C627.311 273.725 627.785 273.608 628.308 273.608C628.831 273.608 629.295 273.725 629.7 273.96C630.116 274.195 630.447 274.525 630.692 274.952C630.948 275.368 631.076 275.88 631.076 276.488C631.076 277.075 630.948 277.581 630.692 278.008C630.447 278.435 630.116 278.765 629.7 279C629.284 279.235 628.815 279.352 628.292 279.352ZM628.292 277.864C628.495 277.864 628.676 277.811 628.836 277.704C629.007 277.597 629.14 277.443 629.236 277.24C629.332 277.037 629.38 276.787 629.38 276.488C629.38 276.168 629.332 275.907 629.236 275.704C629.14 275.501 629.007 275.347 628.836 275.24C628.676 275.133 628.495 275.08 628.292 275.08C628.089 275.08 627.903 275.133 627.732 275.24C627.572 275.347 627.444 275.507 627.348 275.72C627.252 275.923 627.204 276.179 627.204 276.488C627.204 276.787 627.252 277.037 627.348 277.24C627.444 277.443 627.572 277.597 627.732 277.704C627.903 277.811 628.089 277.864 628.292 277.864Z" fill="#242424"/>
<circle cx="572.174" cy="251.225" r="4.22206" fill="#14FF14"/>
<circle cx="319.788" cy="251.225" r="4.22206" fill="#14FF14"/>
<circle cx="445.512" cy="30.7396" r="4.22206" fill="#14FF14"/>
<g style="mix-blend-mode:multiply">
<path d="M321 250.5H571L446.5 32.082L321 250.5Z" fill="url(#paint0_linear_725_50)"/>
</g>
<path d="M172.194 3.51465L3.7002 210.993L256.31 249.704L172.194 3.51465Z" fill="#14FF14" stroke="#14FF14" stroke-width="2"/>
<path d="M151.33 141.443L172.326 3" stroke="black" stroke-width="2"/>
<path d="M3.04395 210.992L151.329 140.13L256.966 249.704" stroke="black" stroke-width="2"/>
<path d="M172.326 3L2.38867 210.993L257.623 250.36L172.326 3Z" stroke="black" stroke-width="2"/>
<path d="M114.964 132.836C113.697 132.836 112.572 132.611 111.589 132.161C110.606 131.711 109.839 131.069 109.289 130.236C108.739 129.403 108.456 128.411 108.439 127.261H111.614C111.614 127.844 111.747 128.369 112.014 128.836C112.297 129.286 112.681 129.644 113.164 129.911C113.664 130.178 114.264 130.311 114.964 130.311C115.564 130.311 116.081 130.219 116.514 130.036C116.964 129.836 117.306 129.561 117.539 129.211C117.789 128.844 117.914 128.419 117.914 127.936C117.914 127.386 117.781 126.936 117.514 126.586C117.264 126.219 116.914 125.911 116.464 125.661C116.014 125.411 115.497 125.194 114.914 125.011C114.331 124.811 113.714 124.603 113.064 124.386C111.681 123.919 110.639 123.328 109.939 122.611C109.239 121.878 108.889 120.903 108.889 119.686C108.889 118.669 109.131 117.794 109.614 117.061C110.097 116.328 110.772 115.761 111.639 115.361C112.522 114.944 113.539 114.736 114.689 114.736C115.856 114.736 116.872 114.944 117.739 115.361C118.622 115.778 119.314 116.361 119.814 117.111C120.331 117.844 120.597 118.728 120.614 119.761H117.414C117.397 119.328 117.281 118.928 117.064 118.561C116.847 118.178 116.531 117.869 116.114 117.636C115.714 117.386 115.222 117.261 114.639 117.261C114.139 117.244 113.689 117.328 113.289 117.511C112.906 117.678 112.597 117.928 112.364 118.261C112.147 118.578 112.039 118.978 112.039 119.461C112.039 119.928 112.139 120.319 112.339 120.636C112.556 120.936 112.864 121.194 113.264 121.411C113.664 121.611 114.131 121.803 114.664 121.986C115.197 122.169 115.781 122.369 116.414 122.586C117.281 122.869 118.064 123.219 118.764 123.636C119.481 124.036 120.047 124.561 120.464 125.211C120.881 125.861 121.089 126.703 121.089 127.736C121.089 128.636 120.856 129.478 120.389 130.261C119.922 131.028 119.239 131.653 118.339 132.136C117.439 132.603 116.314 132.836 114.964 132.836Z" fill="#242424"/>
<path d="M188.849 142.661C187.116 142.661 185.616 142.286 184.349 141.536C183.099 140.769 182.132 139.711 181.449 138.361C180.782 136.994 180.449 135.419 180.449 133.636C180.449 131.836 180.782 130.261 181.449 128.911C182.132 127.544 183.099 126.478 184.349 125.711C185.616 124.944 187.116 124.561 188.849 124.561C190.932 124.561 192.632 125.078 193.949 126.111C195.266 127.128 196.099 128.569 196.449 130.436H193.149C192.916 129.453 192.441 128.678 191.724 128.111C191.007 127.544 190.041 127.261 188.824 127.261C187.724 127.261 186.774 127.519 185.974 128.036C185.191 128.536 184.582 129.269 184.149 130.236C183.732 131.186 183.524 132.319 183.524 133.636C183.524 134.953 183.732 136.086 184.149 137.036C184.582 137.969 185.191 138.694 185.974 139.211C186.774 139.711 187.724 139.961 188.824 139.961C190.041 139.961 191.007 139.703 191.724 139.186C192.441 138.653 192.916 137.919 193.149 136.986H196.449C196.116 138.753 195.282 140.144 193.949 141.161C192.632 142.161 190.932 142.661 188.849 142.661Z" fill="#242424"/>
<path d="M133.259 203.271V185.771H140.109C141.342 185.771 142.367 185.963 143.184 186.346C144.017 186.73 144.642 187.263 145.059 187.946C145.476 188.613 145.684 189.388 145.684 190.271C145.684 191.155 145.492 191.896 145.109 192.496C144.726 193.096 144.217 193.555 143.584 193.871C142.967 194.188 142.292 194.38 141.559 194.446L141.934 194.171C142.717 194.188 143.417 194.396 144.034 194.796C144.667 195.196 145.167 195.721 145.534 196.371C145.901 197.005 146.084 197.713 146.084 198.496C146.084 199.413 145.859 200.238 145.409 200.971C144.976 201.688 144.334 202.255 143.484 202.671C142.634 203.071 141.592 203.271 140.359 203.271H133.259ZM136.259 200.821H139.909C140.892 200.821 141.659 200.588 142.209 200.121C142.759 199.655 143.034 199.005 143.034 198.171C143.034 197.338 142.751 196.68 142.184 196.196C141.617 195.696 140.842 195.446 139.859 195.446H136.259V200.821ZM136.259 193.171H139.684C140.651 193.171 141.384 192.955 141.884 192.521C142.384 192.071 142.634 191.455 142.634 190.671C142.634 189.905 142.384 189.305 141.884 188.871C141.384 188.421 140.642 188.196 139.659 188.196H136.259V193.171Z" fill="#242424"/>
<defs>
<linearGradient id="paint0_linear_725_50" x1="446.5" y1="124.5" x2="446.5" y2="251" gradientUnits="userSpaceOnUse">
<stop offset="1" stop-color="#14FF14"/>
</linearGradient>
</defs>
</svg>
