<svg width="641" height="321" viewBox="0 0 641 321" fill="none" xmlns="http://www.w3.org/2000/svg">
<path d="M432.472 193.713V32.585" stroke="#242424" stroke-width="2" stroke-dasharray="2 2"/>
<circle cx="558.608" cy="249.707" r="4.22206" fill="#14FF14"/>
<circle cx="306.222" cy="249.707" r="4.22206" fill="#14FF14"/>
<path d="M306.91 248.794L432.348 194.652L557.664 248.794" stroke="#242424" stroke-width="2" stroke-dasharray="2 2"/>
<circle cx="431.945" cy="29.2221" r="4.22206" fill="#14FF14"/>
<path d="M381.682 16.192C380.562 16.192 379.596 15.952 378.786 15.472C377.986 14.9813 377.367 14.304 376.93 13.44C376.503 12.5653 376.29 11.5573 376.29 10.416C376.29 9.27467 376.503 8.26667 376.93 7.392C377.367 6.51733 377.986 5.83467 378.786 5.344C379.596 4.85333 380.562 4.608 381.682 4.608C383.036 4.608 384.146 4.944 385.01 5.616C385.874 6.288 386.412 7.23733 386.626 8.464H384.274C384.135 7.86667 383.842 7.40267 383.394 7.072C382.956 6.73067 382.38 6.56 381.666 6.56C381.004 6.56 380.434 6.72 379.954 7.04C379.484 7.34933 379.122 7.792 378.866 8.368C378.61 8.93333 378.482 9.616 378.482 10.416C378.482 11.2053 378.61 11.888 378.866 12.464C379.122 13.04 379.484 13.4827 379.954 13.792C380.434 14.1013 381.004 14.256 381.666 14.256C382.38 14.256 382.956 14.1013 383.394 13.792C383.831 13.472 384.119 13.0293 384.258 12.464H386.626C386.412 13.6267 385.874 14.5387 385.01 15.2C384.146 15.8613 383.036 16.192 381.682 16.192ZM388.422 16V7.936H390.342L390.55 9.424C390.742 9.072 390.982 8.77333 391.27 8.528C391.569 8.28267 391.905 8.09067 392.278 7.952C392.662 7.81333 393.084 7.744 393.542 7.744V10.032H392.806C392.486 10.032 392.188 10.0693 391.91 10.144C391.644 10.2187 391.409 10.3413 391.206 10.512C391.004 10.672 390.849 10.896 390.742 11.184C390.636 11.472 390.582 11.8347 390.582 12.272V16H388.422ZM398.716 16.192C397.905 16.192 397.185 16.0213 396.556 15.68C395.937 15.328 395.452 14.8427 395.1 14.224C394.759 13.5947 394.588 12.8693 394.588 12.048C394.588 11.2053 394.759 10.464 395.1 9.824C395.452 9.17333 395.937 8.66667 396.556 8.304C397.175 7.93067 397.895 7.744 398.716 7.744C399.516 7.744 400.215 7.92 400.812 8.272C401.409 8.624 401.873 9.09867 402.204 9.696C402.535 10.2933 402.7 10.9707 402.7 11.728C402.7 11.8347 402.7 11.9573 402.7 12.096C402.7 12.224 402.689 12.3573 402.668 12.496H396.124V11.184H400.524C400.492 10.6613 400.305 10.2507 399.964 9.952C399.633 9.65333 399.217 9.504 398.716 9.504C398.353 9.504 398.017 9.58933 397.708 9.76C397.399 9.92 397.153 10.1707 396.972 10.512C396.801 10.8533 396.716 11.2853 396.716 11.808V12.272C396.716 12.7093 396.796 13.0933 396.956 13.424C397.127 13.744 397.361 13.9947 397.66 14.176C397.959 14.3467 398.305 14.432 398.7 14.432C399.095 14.432 399.42 14.3467 399.676 14.176C399.943 14.0053 400.14 13.7867 400.268 13.52H402.476C402.327 14.0213 402.076 14.4747 401.724 14.88C401.372 15.2853 400.94 15.6053 400.428 15.84C399.916 16.0747 399.345 16.192 398.716 16.192ZM407.189 16.192C406.517 16.192 405.962 16.0853 405.525 15.872C405.088 15.648 404.762 15.3547 404.549 14.992C404.346 14.6187 404.245 14.208 404.245 13.76C404.245 13.2693 404.368 12.8373 404.613 12.464C404.869 12.0907 405.248 11.7973 405.749 11.584C406.261 11.3707 406.901 11.264 407.669 11.264H409.669C409.669 10.8693 409.616 10.544 409.509 10.288C409.402 10.0213 409.237 9.824 409.013 9.696C408.789 9.568 408.49 9.504 408.117 9.504C407.712 9.504 407.365 9.59467 407.077 9.776C406.8 9.94667 406.629 10.2133 406.565 10.576H404.469C404.522 10 404.709 9.504 405.029 9.088C405.36 8.66133 405.792 8.33067 406.325 8.096C406.869 7.86133 407.472 7.744 408.133 7.744C408.89 7.744 409.546 7.872 410.101 8.128C410.656 8.384 411.082 8.752 411.381 9.232C411.68 9.712 411.829 10.304 411.829 11.008V16H410.005L409.765 14.768C409.648 14.9813 409.509 15.1733 409.349 15.344C409.189 15.5147 409.002 15.664 408.789 15.792C408.576 15.92 408.336 16.016 408.069 16.08C407.802 16.1547 407.509 16.192 407.189 16.192ZM407.701 14.528C407.978 14.528 408.224 14.48 408.437 14.384C408.661 14.2773 408.853 14.1387 409.013 13.968C409.173 13.7867 409.296 13.584 409.381 13.36C409.477 13.1253 409.541 12.8747 409.573 12.608V12.592H407.925C407.594 12.592 407.322 12.6347 407.109 12.72C406.906 12.7947 406.757 12.9067 406.661 13.056C406.565 13.2053 406.517 13.376 406.517 13.568C406.517 13.7813 406.565 13.9573 406.661 14.096C406.757 14.2347 406.896 14.3413 407.077 14.416C407.258 14.4907 407.466 14.528 407.701 14.528ZM417.382 16C416.817 16 416.321 15.9147 415.894 15.744C415.478 15.5627 415.153 15.2693 414.918 14.864C414.684 14.448 414.566 13.8827 414.566 13.168V9.744H413.19V7.936H414.566L414.806 5.744H416.726V7.936H418.854V9.744H416.726V13.2C416.726 13.5627 416.806 13.8133 416.966 13.952C417.126 14.0907 417.398 14.16 417.782 14.16H418.838V16H417.382ZM420.72 16V7.936H422.88V16H420.72ZM421.808 6.832C421.424 6.832 421.104 6.72 420.848 6.496C420.603 6.26133 420.48 5.968 420.48 5.616C420.48 5.264 420.603 4.976 420.848 4.752C421.104 4.51733 421.424 4.4 421.808 4.4C422.203 4.4 422.523 4.51733 422.768 4.752C423.024 4.976 423.152 5.264 423.152 5.616C423.152 5.968 423.024 6.26133 422.768 6.496C422.523 6.72 422.203 6.832 421.808 6.832ZM427.223 16L424.263 7.936H426.535L428.535 13.968L430.535 7.936H432.791L429.847 16H427.223ZM434.158 16V7.936H436.318V16H434.158ZM435.246 6.832C434.862 6.832 434.542 6.72 434.286 6.496C434.04 6.26133 433.918 5.968 433.918 5.616C433.918 5.264 434.04 4.976 434.286 4.752C434.542 4.51733 434.862 4.4 435.246 4.4C435.64 4.4 435.96 4.51733 436.206 4.752C436.462 4.976 436.59 5.264 436.59 5.616C436.59 5.968 436.462 6.26133 436.206 6.496C435.96 6.72 435.64 6.832 435.246 6.832ZM442.132 16C441.567 16 441.071 15.9147 440.644 15.744C440.228 15.5627 439.903 15.2693 439.668 14.864C439.434 14.448 439.316 13.8827 439.316 13.168V9.744H437.94V7.936H439.316L439.556 5.744H441.476V7.936H443.604V9.744H441.476V13.2C441.476 13.5627 441.556 13.8133 441.716 13.952C441.876 14.0907 442.148 14.16 442.532 14.16H443.588V16H442.132ZM446.446 19.52L448.398 15.104H447.918L444.686 7.936H447.038L449.342 13.136L451.422 7.936H453.71L448.734 19.52H446.446ZM460.268 16V7.28L458.284 7.808V6.08L461.196 4.8H462.508V16H460.268ZM469.248 16.192C468.235 16.192 467.36 15.9467 466.624 15.456C465.888 14.9653 465.323 14.288 464.928 13.424C464.544 12.5493 464.352 11.5413 464.352 10.4C464.352 9.25867 464.544 8.256 464.928 7.392C465.323 6.51733 465.883 5.83467 466.608 5.344C467.344 4.85333 468.224 4.608 469.248 4.608C470.272 4.608 471.147 4.85333 471.872 5.344C472.608 5.83467 473.168 6.51733 473.552 7.392C473.947 8.256 474.144 9.25867 474.144 10.4C474.144 11.5413 473.947 12.5493 473.552 13.424C473.168 14.288 472.608 14.9653 471.872 15.456C471.147 15.9467 470.272 16.192 469.248 16.192ZM469.248 14.256C469.782 14.256 470.251 14.1013 470.656 13.792C471.062 13.472 471.376 13.024 471.6 12.448C471.835 11.872 471.952 11.1893 471.952 10.4C471.952 9.6 471.835 8.91733 471.6 8.352C471.376 7.776 471.062 7.33333 470.656 7.024C470.251 6.71467 469.782 6.56 469.248 6.56C468.715 6.56 468.246 6.71467 467.84 7.024C467.435 7.33333 467.115 7.776 466.88 8.352C466.656 8.91733 466.544 9.6 466.544 10.4C466.544 11.1893 466.656 11.872 466.88 12.448C467.115 13.024 467.435 13.472 467.84 13.792C468.246 14.1013 468.715 14.256 469.248 14.256ZM477.874 16L484.162 4.8H486.258L479.97 16H477.874ZM485.874 16.192C485.351 16.192 484.877 16.08 484.45 15.856C484.034 15.6213 483.703 15.2907 483.458 14.864C483.213 14.4267 483.09 13.9147 483.09 13.328C483.09 12.7307 483.213 12.2187 483.458 11.792C483.703 11.3653 484.034 11.04 484.45 10.816C484.877 10.5813 485.351 10.464 485.874 10.464C486.397 10.464 486.866 10.5813 487.282 10.816C487.698 11.04 488.029 11.3653 488.274 11.792C488.519 12.2187 488.642 12.7307 488.642 13.328C488.642 13.9147 488.519 14.4267 488.274 14.864C488.029 15.2907 487.698 15.6213 487.282 15.856C486.866 16.08 486.397 16.192 485.874 16.192ZM485.858 14.704C486.071 14.704 486.258 14.6507 486.418 14.544C486.578 14.4373 486.706 14.2827 486.802 14.08C486.898 13.8773 486.946 13.6267 486.946 13.328C486.946 13.0187 486.898 12.7627 486.802 12.56C486.717 12.3467 486.589 12.1867 486.418 12.08C486.258 11.9733 486.071 11.92 485.858 11.92C485.655 11.92 485.469 11.9733 485.298 12.08C485.138 12.1867 485.01 12.3467 484.914 12.56C484.818 12.7627 484.77 13.0187 484.77 13.328C484.77 13.6267 484.818 13.8773 484.914 14.08C485.01 14.2827 485.138 14.4373 485.298 14.544C485.469 14.6507 485.655 14.704 485.858 14.704ZM478.338 10.352C477.826 10.352 477.357 10.2347 476.93 10C476.514 9.76533 476.178 9.43467 475.922 9.008C475.677 8.58133 475.554 8.07467 475.554 7.488C475.554 6.88 475.677 6.368 475.922 5.952C476.178 5.52533 476.514 5.19467 476.93 4.96C477.357 4.72533 477.831 4.608 478.354 4.608C478.877 4.608 479.341 4.72533 479.746 4.96C480.162 5.19467 480.493 5.52533 480.738 5.952C480.994 6.368 481.122 6.88 481.122 7.488C481.122 8.07467 480.994 8.58133 480.738 9.008C480.493 9.43467 480.162 9.76533 479.746 10C479.33 10.2347 478.861 10.352 478.338 10.352ZM478.338 8.864C478.541 8.864 478.722 8.81067 478.882 8.704C479.053 8.59733 479.186 8.44267 479.282 8.24C479.378 8.03733 479.426 7.78667 479.426 7.488C479.426 7.168 479.378 6.90667 479.282 6.704C479.186 6.50133 479.053 6.34667 478.882 6.24C478.722 6.13333 478.541 6.08 478.338 6.08C478.135 6.08 477.949 6.13333 477.778 6.24C477.618 6.34667 477.49 6.50667 477.394 6.72C477.298 6.92267 477.25 7.17867 477.25 7.488C477.25 7.78667 477.298 8.03733 477.394 8.24C477.49 8.44267 477.618 8.59733 477.778 8.704C477.949 8.81067 478.135 8.864 478.338 8.864Z" fill="#242424"/>
<path d="M432.352 31L557.853 248.373H306.852L432.352 31Z" stroke="#242424" stroke-width="2"/>
<path d="M256.811 283.192C256 283.192 255.275 283.053 254.635 282.776C254.005 282.499 253.504 282.093 253.131 281.56C252.768 281.027 252.581 280.381 252.571 279.624H254.859C254.869 279.955 254.955 280.253 255.115 280.52C255.275 280.787 255.493 281 255.771 281.16C256.059 281.309 256.4 281.384 256.795 281.384C257.136 281.384 257.429 281.331 257.675 281.224C257.931 281.107 258.128 280.947 258.267 280.744C258.405 280.541 258.475 280.301 258.475 280.024C258.475 279.704 258.395 279.437 258.235 279.224C258.085 279.011 257.872 278.829 257.595 278.68C257.328 278.531 257.013 278.397 256.651 278.28C256.299 278.152 255.925 278.019 255.531 277.88C254.645 277.592 253.968 277.208 253.499 276.728C253.04 276.248 252.811 275.613 252.811 274.824C252.811 274.152 252.971 273.576 253.291 273.096C253.621 272.616 254.075 272.248 254.651 271.992C255.227 271.736 255.883 271.608 256.619 271.608C257.376 271.608 258.037 271.741 258.603 272.008C259.179 272.264 259.632 272.637 259.963 273.128C260.304 273.619 260.48 274.195 260.491 274.856H258.187C258.176 274.611 258.101 274.381 257.963 274.168C257.835 273.944 257.653 273.768 257.419 273.64C257.184 273.501 256.907 273.432 256.587 273.432C256.309 273.421 256.053 273.464 255.819 273.56C255.595 273.656 255.413 273.8 255.275 273.992C255.147 274.173 255.083 274.403 255.083 274.68C255.083 274.947 255.147 275.171 255.275 275.352C255.413 275.533 255.6 275.693 255.835 275.832C256.069 275.96 256.347 276.083 256.667 276.2C256.987 276.307 257.333 276.419 257.707 276.536C258.261 276.728 258.773 276.957 259.243 277.224C259.712 277.48 260.085 277.816 260.363 278.232C260.64 278.648 260.779 279.197 260.779 279.88C260.779 280.467 260.624 281.011 260.315 281.512C260.005 282.013 259.557 282.419 258.971 282.728C258.395 283.037 257.675 283.192 256.811 283.192ZM266.467 283.192C265.656 283.192 264.936 283.011 264.307 282.648C263.678 282.285 263.187 281.789 262.835 281.16C262.483 280.531 262.307 279.811 262.307 279C262.307 278.168 262.483 277.437 262.835 276.808C263.187 276.168 263.678 275.667 264.307 275.304C264.936 274.931 265.656 274.744 266.467 274.744C267.502 274.744 268.371 275.016 269.075 275.56C269.779 276.104 270.227 276.851 270.419 277.8H268.131C268.035 277.427 267.832 277.133 267.523 276.92C267.224 276.707 266.867 276.6 266.451 276.6C266.078 276.6 265.742 276.696 265.443 276.888C265.155 277.069 264.926 277.341 264.755 277.704C264.595 278.056 264.515 278.477 264.515 278.968C264.515 279.341 264.563 279.677 264.659 279.976C264.755 280.264 264.888 280.515 265.059 280.728C265.23 280.931 265.432 281.085 265.667 281.192C265.912 281.299 266.174 281.352 266.451 281.352C266.728 281.352 266.979 281.304 267.203 281.208C267.438 281.112 267.635 280.979 267.795 280.808C267.955 280.627 268.067 280.408 268.131 280.152H270.419C270.227 281.08 269.774 281.821 269.059 282.376C268.355 282.92 267.491 283.192 266.467 283.192ZM272.33 283V274.936H274.49V283H272.33ZM273.418 273.832C273.034 273.832 272.714 273.72 272.458 273.496C272.212 273.261 272.09 272.968 272.09 272.616C272.09 272.264 272.212 271.976 272.458 271.752C272.714 271.517 273.034 271.4 273.418 271.4C273.812 271.4 274.132 271.517 274.378 271.752C274.634 271.976 274.762 272.264 274.762 272.616C274.762 272.968 274.634 273.261 274.378 273.496C274.132 273.72 273.812 273.832 273.418 273.832ZM280.544 283.192C279.734 283.192 279.014 283.021 278.384 282.68C277.766 282.328 277.28 281.843 276.928 281.224C276.587 280.595 276.416 279.869 276.416 279.048C276.416 278.205 276.587 277.464 276.928 276.824C277.28 276.173 277.766 275.667 278.384 275.304C279.003 274.931 279.723 274.744 280.544 274.744C281.344 274.744 282.043 274.92 282.64 275.272C283.238 275.624 283.702 276.099 284.032 276.696C284.363 277.293 284.528 277.971 284.528 278.728C284.528 278.835 284.528 278.957 284.528 279.096C284.528 279.224 284.518 279.357 284.496 279.496H277.952V278.184H282.352C282.32 277.661 282.134 277.251 281.792 276.952C281.462 276.653 281.046 276.504 280.544 276.504C280.182 276.504 279.846 276.589 279.536 276.76C279.227 276.92 278.982 277.171 278.8 277.512C278.63 277.853 278.544 278.285 278.544 278.808V279.272C278.544 279.709 278.624 280.093 278.784 280.424C278.955 280.744 279.19 280.995 279.488 281.176C279.787 281.347 280.134 281.432 280.528 281.432C280.923 281.432 281.248 281.347 281.504 281.176C281.771 281.005 281.968 280.787 282.096 280.52H284.304C284.155 281.021 283.904 281.475 283.552 281.88C283.2 282.285 282.768 282.605 282.256 282.84C281.744 283.075 281.174 283.192 280.544 283.192ZM286.297 283V274.936H288.201L288.361 276.248C288.607 275.8 288.953 275.437 289.401 275.16C289.86 274.883 290.404 274.744 291.033 274.744C291.705 274.744 292.271 274.883 292.729 275.16C293.188 275.437 293.535 275.843 293.769 276.376C294.015 276.909 294.137 277.565 294.137 278.344V283H291.993V278.552C291.993 277.912 291.855 277.421 291.577 277.08C291.311 276.739 290.895 276.568 290.329 276.568C289.967 276.568 289.641 276.653 289.353 276.824C289.076 276.995 288.857 277.24 288.697 277.56C288.537 277.869 288.457 278.248 288.457 278.696V283H286.297ZM300.076 283.192C299.266 283.192 298.546 283.011 297.916 282.648C297.287 282.285 296.796 281.789 296.444 281.16C296.092 280.531 295.916 279.811 295.916 279C295.916 278.168 296.092 277.437 296.444 276.808C296.796 276.168 297.287 275.667 297.916 275.304C298.546 274.931 299.266 274.744 300.076 274.744C301.111 274.744 301.98 275.016 302.684 275.56C303.388 276.104 303.836 276.851 304.028 277.8H301.74C301.644 277.427 301.442 277.133 301.132 276.92C300.834 276.707 300.476 276.6 300.06 276.6C299.687 276.6 299.351 276.696 299.052 276.888C298.764 277.069 298.535 277.341 298.364 277.704C298.204 278.056 298.124 278.477 298.124 278.968C298.124 279.341 298.172 279.677 298.268 279.976C298.364 280.264 298.498 280.515 298.668 280.728C298.839 280.931 299.042 281.085 299.276 281.192C299.522 281.299 299.783 281.352 300.06 281.352C300.338 281.352 300.588 281.304 300.812 281.208C301.047 281.112 301.244 280.979 301.404 280.808C301.564 280.627 301.676 280.408 301.74 280.152H304.028C303.836 281.08 303.383 281.821 302.668 282.376C301.964 282.92 301.1 283.192 300.076 283.192ZM309.763 283.192C308.952 283.192 308.232 283.021 307.603 282.68C306.984 282.328 306.499 281.843 306.147 281.224C305.806 280.595 305.635 279.869 305.635 279.048C305.635 278.205 305.806 277.464 306.147 276.824C306.499 276.173 306.984 275.667 307.603 275.304C308.222 274.931 308.942 274.744 309.763 274.744C310.563 274.744 311.262 274.92 311.859 275.272C312.456 275.624 312.92 276.099 313.251 276.696C313.582 277.293 313.747 277.971 313.747 278.728C313.747 278.835 313.747 278.957 313.747 279.096C313.747 279.224 313.736 279.357 313.715 279.496H307.171V278.184H311.571C311.539 277.661 311.352 277.251 311.011 276.952C310.68 276.653 310.264 276.504 309.763 276.504C309.4 276.504 309.064 276.589 308.755 276.76C308.446 276.92 308.2 277.171 308.019 277.512C307.848 277.853 307.763 278.285 307.763 278.808V279.272C307.763 279.709 307.843 280.093 308.003 280.424C308.174 280.744 308.408 280.995 308.707 281.176C309.006 281.347 309.352 281.432 309.747 281.432C310.142 281.432 310.467 281.347 310.723 281.176C310.99 281.005 311.187 280.787 311.315 280.52H313.523C313.374 281.021 313.123 281.475 312.771 281.88C312.419 282.285 311.987 282.605 311.475 282.84C310.963 283.075 310.392 283.192 309.763 283.192ZM324.45 283V280.968H318.946V279.256L324.162 271.8H326.61V279.096H328.066V280.968H326.61V283H324.45ZM321.25 279.096H324.594V274.184L321.25 279.096ZM333.736 283.192C332.925 283.192 332.221 283.048 331.624 282.76C331.037 282.472 330.579 282.077 330.248 281.576C329.917 281.075 329.725 280.504 329.672 279.864H331.784C331.859 280.28 332.072 280.632 332.424 280.92C332.776 281.208 333.219 281.352 333.752 281.352C334.136 281.352 334.472 281.256 334.76 281.064C335.048 280.872 335.272 280.616 335.432 280.296C335.592 279.965 335.672 279.592 335.672 279.176C335.672 278.749 335.587 278.381 335.416 278.072C335.256 277.763 335.032 277.523 334.744 277.352C334.467 277.181 334.147 277.096 333.784 277.096C333.325 277.096 332.931 277.208 332.6 277.432C332.28 277.645 332.051 277.907 331.912 278.216H329.816L330.744 271.8H337.032V273.688H332.344L331.88 276.184C332.115 275.939 332.429 275.741 332.824 275.592C333.219 275.432 333.661 275.352 334.152 275.352C334.76 275.352 335.288 275.459 335.736 275.672C336.184 275.875 336.557 276.157 336.856 276.52C337.155 276.872 337.379 277.277 337.528 277.736C337.677 278.184 337.752 278.659 337.752 279.16C337.752 279.747 337.651 280.285 337.448 280.776C337.256 281.267 336.979 281.693 336.616 282.056C336.264 282.419 335.843 282.701 335.352 282.904C334.872 283.096 334.333 283.192 333.736 283.192ZM341.577 283L347.865 271.8H349.961L343.673 283H341.577ZM349.577 283.192C349.054 283.192 348.58 283.08 348.153 282.856C347.737 282.621 347.406 282.291 347.161 281.864C346.916 281.427 346.793 280.915 346.793 280.328C346.793 279.731 346.916 279.219 347.161 278.792C347.406 278.365 347.737 278.04 348.153 277.816C348.58 277.581 349.054 277.464 349.577 277.464C350.1 277.464 350.569 277.581 350.985 277.816C351.401 278.04 351.732 278.365 351.977 278.792C352.222 279.219 352.345 279.731 352.345 280.328C352.345 280.915 352.222 281.427 351.977 281.864C351.732 282.291 351.401 282.621 350.985 282.856C350.569 283.08 350.1 283.192 349.577 283.192ZM349.561 281.704C349.774 281.704 349.961 281.651 350.121 281.544C350.281 281.437 350.409 281.283 350.505 281.08C350.601 280.877 350.649 280.627 350.649 280.328C350.649 280.019 350.601 279.763 350.505 279.56C350.42 279.347 350.292 279.187 350.121 279.08C349.961 278.973 349.774 278.92 349.561 278.92C349.358 278.92 349.172 278.973 349.001 279.08C348.841 279.187 348.713 279.347 348.617 279.56C348.521 279.763 348.473 280.019 348.473 280.328C348.473 280.627 348.521 280.877 348.617 281.08C348.713 281.283 348.841 281.437 349.001 281.544C349.172 281.651 349.358 281.704 349.561 281.704ZM342.041 277.352C341.529 277.352 341.06 277.235 340.633 277C340.217 276.765 339.881 276.435 339.625 276.008C339.38 275.581 339.257 275.075 339.257 274.488C339.257 273.88 339.38 273.368 339.625 272.952C339.881 272.525 340.217 272.195 340.633 271.96C341.06 271.725 341.534 271.608 342.057 271.608C342.58 271.608 343.044 271.725 343.449 271.96C343.865 272.195 344.196 272.525 344.441 272.952C344.697 273.368 344.825 273.88 344.825 274.488C344.825 275.075 344.697 275.581 344.441 276.008C344.196 276.435 343.865 276.765 343.449 277C343.033 277.235 342.564 277.352 342.041 277.352ZM342.041 275.864C342.244 275.864 342.425 275.811 342.585 275.704C342.756 275.597 342.889 275.443 342.985 275.24C343.081 275.037 343.129 274.787 343.129 274.488C343.129 274.168 343.081 273.907 342.985 273.704C342.889 273.501 342.756 273.347 342.585 273.24C342.425 273.133 342.244 273.08 342.041 273.08C341.838 273.08 341.652 273.133 341.481 273.24C341.321 273.347 341.193 273.507 341.097 273.72C341.001 273.923 340.953 274.179 340.953 274.488C340.953 274.787 341.001 275.037 341.097 275.24C341.193 275.443 341.321 275.597 341.481 275.704C341.652 275.811 341.838 275.864 342.041 275.864Z" fill="#242424"/>
<path d="M512.509 283V271.8H517.101C517.88 271.8 518.536 271.923 519.069 272.168C519.603 272.413 520.003 272.755 520.269 273.192C520.547 273.619 520.685 274.115 520.685 274.68C520.685 275.245 520.563 275.72 520.317 276.104C520.072 276.488 519.747 276.787 519.341 277C518.947 277.203 518.509 277.32 518.029 277.352L518.285 277.176C518.797 277.197 519.251 277.336 519.645 277.592C520.051 277.837 520.365 278.168 520.589 278.584C520.824 279 520.941 279.453 520.941 279.944C520.941 280.541 520.797 281.069 520.509 281.528C520.221 281.987 519.805 282.349 519.261 282.616C518.717 282.872 518.051 283 517.261 283H512.509ZM514.669 281.24H516.909C517.496 281.24 517.949 281.107 518.269 280.84C518.589 280.573 518.749 280.189 518.749 279.688C518.749 279.187 518.584 278.797 518.253 278.52C517.923 278.232 517.464 278.088 516.877 278.088H514.669V281.24ZM514.669 276.472H516.749C517.315 276.472 517.741 276.344 518.029 276.088C518.328 275.832 518.477 275.469 518.477 275C518.477 274.541 518.328 274.184 518.029 273.928C517.741 273.661 517.309 273.528 516.733 273.528H514.669V276.472ZM525.672 283.192C525.022 283.192 524.462 283.059 523.992 282.792C523.534 282.515 523.182 282.115 522.936 281.592C522.691 281.059 522.568 280.403 522.568 279.624V274.936H524.728V279.4C524.728 280.051 524.862 280.541 525.128 280.872C525.406 281.203 525.827 281.368 526.392 281.368C526.755 281.368 527.075 281.288 527.352 281.128C527.63 280.957 527.848 280.717 528.008 280.408C528.179 280.088 528.264 279.699 528.264 279.24V274.936H530.408V283H528.52L528.344 281.688C528.11 282.147 527.763 282.515 527.304 282.792C526.846 283.059 526.302 283.192 525.672 283.192ZM535.82 283.192C535.084 283.192 534.444 283.075 533.9 282.84C533.356 282.605 532.929 282.28 532.62 281.864C532.31 281.448 532.134 280.979 532.092 280.456H534.236C534.289 280.659 534.38 280.845 534.508 281.016C534.636 281.176 534.806 281.304 535.02 281.4C535.233 281.496 535.489 281.544 535.788 281.544C536.076 281.544 536.31 281.507 536.492 281.432C536.673 281.347 536.806 281.235 536.892 281.096C536.988 280.957 537.036 280.813 537.036 280.664C537.036 280.44 536.972 280.269 536.844 280.152C536.716 280.024 536.529 279.923 536.284 279.848C536.038 279.773 535.74 279.699 535.388 279.624C535.004 279.549 534.625 279.459 534.252 279.352C533.889 279.235 533.564 279.091 533.276 278.92C532.988 278.749 532.758 278.531 532.588 278.264C532.417 277.997 532.332 277.667 532.332 277.272C532.332 276.792 532.46 276.365 532.716 275.992C532.972 275.608 533.345 275.304 533.836 275.08C534.326 274.856 534.918 274.744 535.612 274.744C536.582 274.744 537.35 274.963 537.916 275.4C538.481 275.837 538.817 276.44 538.924 277.208H536.892C536.828 276.963 536.684 276.771 536.46 276.632C536.246 276.483 535.958 276.408 535.596 276.408C535.212 276.408 534.918 276.477 534.716 276.616C534.513 276.755 534.412 276.936 534.412 277.16C534.412 277.309 534.476 277.443 534.604 277.56C534.742 277.677 534.934 277.779 535.18 277.864C535.425 277.939 535.724 278.013 536.076 278.088C536.694 278.216 537.238 278.365 537.708 278.536C538.177 278.696 538.545 278.931 538.812 279.24C539.078 279.539 539.212 279.976 539.212 280.552C539.212 281.064 539.073 281.523 538.796 281.928C538.518 282.323 538.124 282.632 537.612 282.856C537.11 283.08 536.513 283.192 535.82 283.192ZM541.087 283V274.936H543.247V283H541.087ZM542.175 273.832C541.791 273.832 541.471 273.72 541.215 273.496C540.97 273.261 540.847 272.968 540.847 272.616C540.847 272.264 540.97 271.976 541.215 271.752C541.471 271.517 541.791 271.4 542.175 271.4C542.57 271.4 542.89 271.517 543.135 271.752C543.391 271.976 543.519 272.264 543.519 272.616C543.519 272.968 543.391 273.261 543.135 273.496C542.89 273.72 542.57 273.832 542.175 273.832ZM545.43 283V274.936H547.334L547.494 276.248C547.739 275.8 548.086 275.437 548.534 275.16C548.993 274.883 549.537 274.744 550.166 274.744C550.838 274.744 551.403 274.883 551.862 275.16C552.321 275.437 552.667 275.843 552.902 276.376C553.147 276.909 553.27 277.565 553.27 278.344V283H551.126V278.552C551.126 277.912 550.987 277.421 550.71 277.08C550.443 276.739 550.027 276.568 549.462 276.568C549.099 276.568 548.774 276.653 548.486 276.824C548.209 276.995 547.99 277.24 547.83 277.56C547.67 277.869 547.59 278.248 547.59 278.696V283H545.43ZM559.177 283.192C558.366 283.192 557.646 283.021 557.017 282.68C556.398 282.328 555.913 281.843 555.561 281.224C555.22 280.595 555.049 279.869 555.049 279.048C555.049 278.205 555.22 277.464 555.561 276.824C555.913 276.173 556.398 275.667 557.017 275.304C557.636 274.931 558.356 274.744 559.177 274.744C559.977 274.744 560.676 274.92 561.273 275.272C561.87 275.624 562.334 276.099 562.665 276.696C562.996 277.293 563.161 277.971 563.161 278.728C563.161 278.835 563.161 278.957 563.161 279.096C563.161 279.224 563.15 279.357 563.129 279.496H556.585V278.184H560.985C560.953 277.661 560.766 277.251 560.425 276.952C560.094 276.653 559.678 276.504 559.177 276.504C558.814 276.504 558.478 276.589 558.169 276.76C557.86 276.92 557.614 277.171 557.433 277.512C557.262 277.853 557.177 278.285 557.177 278.808V279.272C557.177 279.709 557.257 280.093 557.417 280.424C557.588 280.744 557.822 280.995 558.121 281.176C558.42 281.347 558.766 281.432 559.161 281.432C559.556 281.432 559.881 281.347 560.137 281.176C560.404 281.005 560.601 280.787 560.729 280.52H562.937C562.788 281.021 562.537 281.475 562.185 281.88C561.833 282.285 561.401 282.605 560.889 282.84C560.377 283.075 559.806 283.192 559.177 283.192ZM568.226 283.192C567.49 283.192 566.85 283.075 566.306 282.84C565.762 282.605 565.335 282.28 565.026 281.864C564.717 281.448 564.541 280.979 564.498 280.456H566.642C566.695 280.659 566.786 280.845 566.914 281.016C567.042 281.176 567.213 281.304 567.426 281.4C567.639 281.496 567.895 281.544 568.194 281.544C568.482 281.544 568.717 281.507 568.898 281.432C569.079 281.347 569.213 281.235 569.298 281.096C569.394 280.957 569.442 280.813 569.442 280.664C569.442 280.44 569.378 280.269 569.25 280.152C569.122 280.024 568.935 279.923 568.69 279.848C568.445 279.773 568.146 279.699 567.794 279.624C567.41 279.549 567.031 279.459 566.658 279.352C566.295 279.235 565.97 279.091 565.682 278.92C565.394 278.749 565.165 278.531 564.994 278.264C564.823 277.997 564.738 277.667 564.738 277.272C564.738 276.792 564.866 276.365 565.122 275.992C565.378 275.608 565.751 275.304 566.242 275.08C566.733 274.856 567.325 274.744 568.018 274.744C568.989 274.744 569.757 274.963 570.322 275.4C570.887 275.837 571.223 276.44 571.33 277.208H569.298C569.234 276.963 569.09 276.771 568.866 276.632C568.653 276.483 568.365 276.408 568.002 276.408C567.618 276.408 567.325 276.477 567.122 276.616C566.919 276.755 566.818 276.936 566.818 277.16C566.818 277.309 566.882 277.443 567.01 277.56C567.149 277.677 567.341 277.779 567.586 277.864C567.831 277.939 568.13 278.013 568.482 278.088C569.101 278.216 569.645 278.365 570.114 278.536C570.583 278.696 570.951 278.931 571.218 279.24C571.485 279.539 571.618 279.976 571.618 280.552C571.618 281.064 571.479 281.523 571.202 281.928C570.925 282.323 570.53 282.632 570.018 282.856C569.517 283.08 568.919 283.192 568.226 283.192ZM576.742 283.192C576.006 283.192 575.366 283.075 574.822 282.84C574.278 282.605 573.851 282.28 573.542 281.864C573.232 281.448 573.056 280.979 573.014 280.456H575.158C575.211 280.659 575.302 280.845 575.43 281.016C575.558 281.176 575.728 281.304 575.942 281.4C576.155 281.496 576.411 281.544 576.71 281.544C576.998 281.544 577.232 281.507 577.414 281.432C577.595 281.347 577.728 281.235 577.814 281.096C577.91 280.957 577.958 280.813 577.958 280.664C577.958 280.44 577.894 280.269 577.766 280.152C577.638 280.024 577.451 279.923 577.206 279.848C576.96 279.773 576.662 279.699 576.31 279.624C575.926 279.549 575.547 279.459 575.174 279.352C574.811 279.235 574.486 279.091 574.198 278.92C573.91 278.749 573.68 278.531 573.51 278.264C573.339 277.997 573.254 277.667 573.254 277.272C573.254 276.792 573.382 276.365 573.638 275.992C573.894 275.608 574.267 275.304 574.758 275.08C575.248 274.856 575.84 274.744 576.534 274.744C577.504 274.744 578.272 274.963 578.838 275.4C579.403 275.837 579.739 276.44 579.846 277.208H577.814C577.75 276.963 577.606 276.771 577.382 276.632C577.168 276.483 576.88 276.408 576.518 276.408C576.134 276.408 575.84 276.477 575.638 276.616C575.435 276.755 575.334 276.936 575.334 277.16C575.334 277.309 575.398 277.443 575.526 277.56C575.664 277.677 575.856 277.779 576.102 277.864C576.347 277.939 576.646 278.013 576.998 278.088C577.616 278.216 578.16 278.365 578.63 278.536C579.099 278.696 579.467 278.931 579.734 279.24C580 279.539 580.134 279.976 580.134 280.552C580.134 281.064 579.995 281.523 579.718 281.928C579.44 282.323 579.046 282.632 578.534 282.856C578.032 283.08 577.435 283.192 576.742 283.192ZM590.895 283V280.968H585.391V279.256L590.607 271.8H593.055V279.096H594.511V280.968H593.055V283H590.895ZM587.695 279.096H591.039V274.184L587.695 279.096ZM600.181 283.192C599.37 283.192 598.666 283.048 598.069 282.76C597.482 282.472 597.024 282.077 596.693 281.576C596.362 281.075 596.17 280.504 596.117 279.864H598.229C598.304 280.28 598.517 280.632 598.869 280.92C599.221 281.208 599.664 281.352 600.197 281.352C600.581 281.352 600.917 281.256 601.205 281.064C601.493 280.872 601.717 280.616 601.877 280.296C602.037 279.965 602.117 279.592 602.117 279.176C602.117 278.749 602.032 278.381 601.861 278.072C601.701 277.763 601.477 277.523 601.189 277.352C600.912 277.181 600.592 277.096 600.229 277.096C599.77 277.096 599.376 277.208 599.045 277.432C598.725 277.645 598.496 277.907 598.357 278.216H596.261L597.189 271.8H603.477V273.688H598.789L598.325 276.184C598.56 275.939 598.874 275.741 599.269 275.592C599.664 275.432 600.106 275.352 600.597 275.352C601.205 275.352 601.733 275.459 602.181 275.672C602.629 275.875 603.002 276.157 603.301 276.52C603.6 276.872 603.824 277.277 603.973 277.736C604.122 278.184 604.197 278.659 604.197 279.16C604.197 279.747 604.096 280.285 603.893 280.776C603.701 281.267 603.424 281.693 603.061 282.056C602.709 282.419 602.288 282.701 601.797 282.904C601.317 283.096 600.778 283.192 600.181 283.192ZM608.022 283L614.31 271.8H616.406L610.118 283H608.022ZM616.022 283.192C615.5 283.192 615.025 283.08 614.598 282.856C614.182 282.621 613.852 282.291 613.606 281.864C613.361 281.427 613.238 280.915 613.238 280.328C613.238 279.731 613.361 279.219 613.606 278.792C613.852 278.365 614.182 278.04 614.598 277.816C615.025 277.581 615.5 277.464 616.022 277.464C616.545 277.464 617.014 277.581 617.43 277.816C617.846 278.04 618.177 278.365 618.422 278.792C618.668 279.219 618.79 279.731 618.79 280.328C618.79 280.915 618.668 281.427 618.422 281.864C618.177 282.291 617.846 282.621 617.43 282.856C617.014 283.08 616.545 283.192 616.022 283.192ZM616.006 281.704C616.22 281.704 616.406 281.651 616.566 281.544C616.726 281.437 616.854 281.283 616.95 281.08C617.046 280.877 617.094 280.627 617.094 280.328C617.094 280.019 617.046 279.763 616.95 279.56C616.865 279.347 616.737 279.187 616.566 279.08C616.406 278.973 616.22 278.92 616.006 278.92C615.804 278.92 615.617 278.973 615.446 279.08C615.286 279.187 615.158 279.347 615.062 279.56C614.966 279.763 614.918 280.019 614.918 280.328C614.918 280.627 614.966 280.877 615.062 281.08C615.158 281.283 615.286 281.437 615.446 281.544C615.617 281.651 615.804 281.704 616.006 281.704ZM608.486 277.352C607.974 277.352 607.505 277.235 607.078 277C606.662 276.765 606.326 276.435 606.07 276.008C605.825 275.581 605.702 275.075 605.702 274.488C605.702 273.88 605.825 273.368 606.07 272.952C606.326 272.525 606.662 272.195 607.078 271.96C607.505 271.725 607.98 271.608 608.502 271.608C609.025 271.608 609.489 271.725 609.894 271.96C610.31 272.195 610.641 272.525 610.886 272.952C611.142 273.368 611.27 273.88 611.27 274.488C611.27 275.075 611.142 275.581 610.886 276.008C610.641 276.435 610.31 276.765 609.894 277C609.478 277.235 609.009 277.352 608.486 277.352ZM608.486 275.864C608.689 275.864 608.87 275.811 609.03 275.704C609.201 275.597 609.334 275.443 609.43 275.24C609.526 275.037 609.574 274.787 609.574 274.488C609.574 274.168 609.526 273.907 609.43 273.704C609.334 273.501 609.201 273.347 609.03 273.24C608.87 273.133 608.689 273.08 608.486 273.08C608.284 273.08 608.097 273.133 607.926 273.24C607.766 273.347 607.638 273.507 607.542 273.72C607.446 273.923 607.398 274.179 607.398 274.488C607.398 274.787 607.446 275.037 607.542 275.24C607.638 275.443 607.766 275.597 607.926 275.704C608.097 275.811 608.284 275.864 608.486 275.864Z" fill="#242424"/>
<g style="mix-blend-mode:multiply">
<path d="M307.437 248.5H557.437L432.937 30.082L307.437 248.5Z" fill="url(#paint0_linear_725_49)"/>
</g>
<path d="M137.956 223.253C136.836 223.253 135.871 223.013 135.06 222.533C134.26 222.042 133.641 221.365 133.204 220.501C132.777 219.626 132.564 218.618 132.564 217.477C132.564 216.336 132.777 215.328 133.204 214.453C133.641 213.578 134.26 212.896 135.06 212.405C135.871 211.914 136.836 211.669 137.956 211.669C139.311 211.669 140.42 212.005 141.284 212.677C142.148 213.349 142.687 214.298 142.9 215.525H140.548C140.409 214.928 140.116 214.464 139.668 214.133C139.231 213.792 138.655 213.621 137.94 213.621C137.279 213.621 136.708 213.781 136.228 214.101C135.759 214.41 135.396 214.853 135.14 215.429C134.884 215.994 134.756 216.677 134.756 217.477C134.756 218.266 134.884 218.949 135.14 219.525C135.396 220.101 135.759 220.544 136.228 220.853C136.708 221.162 137.279 221.317 137.94 221.317C138.655 221.317 139.231 221.162 139.668 220.853C140.105 220.533 140.393 220.09 140.532 219.525H142.9C142.687 220.688 142.148 221.6 141.284 222.261C140.42 222.922 139.311 223.253 137.956 223.253Z" fill="#242424"/>
<path d="M260.587 206.788L88.8514 2.74561L1 268L135.894 197.719L260.587 206.788Z" fill="#14FF14" stroke="black"/>
<path d="M88.77 2.74561L1.84961 268L261.436 207.421L88.77 2.74561Z" stroke="black" stroke-width="2"/>
<path d="M2.13379 266.867L135.328 197.719L261.154 206.788" stroke="black" stroke-width="2"/>
<path d="M135.328 197.152L89.1348 2.74561" stroke="black" stroke-width="2"/>
<path d="M57.6924 150.565C56.8817 150.565 56.1564 150.426 55.5164 150.149C54.887 149.871 54.3857 149.466 54.0124 148.933C53.6497 148.399 53.463 147.754 53.4524 146.997H55.7404C55.751 147.327 55.8364 147.626 55.9964 147.893C56.1564 148.159 56.375 148.373 56.6524 148.533C56.9404 148.682 57.2817 148.757 57.6764 148.757C58.0177 148.757 58.311 148.703 58.5564 148.597C58.8124 148.479 59.0097 148.319 59.1484 148.117C59.287 147.914 59.3564 147.674 59.3564 147.397C59.3564 147.077 59.2764 146.81 59.1164 146.597C58.967 146.383 58.7537 146.202 58.4764 146.053C58.2097 145.903 57.895 145.77 57.5324 145.653C57.1804 145.525 56.807 145.391 56.4124 145.253C55.527 144.965 54.8497 144.581 54.3804 144.101C53.9217 143.621 53.6924 142.986 53.6924 142.197C53.6924 141.525 53.8524 140.949 54.1724 140.469C54.503 139.989 54.9564 139.621 55.5324 139.365C56.1084 139.109 56.7644 138.981 57.5004 138.981C58.2577 138.981 58.919 139.114 59.4844 139.381C60.0604 139.637 60.5137 140.01 60.8444 140.501C61.1857 140.991 61.3617 141.567 61.3724 142.229H59.0684C59.0577 141.983 58.983 141.754 58.8444 141.541C58.7164 141.317 58.535 141.141 58.3004 141.013C58.0657 140.874 57.7884 140.805 57.4684 140.805C57.191 140.794 56.935 140.837 56.7004 140.933C56.4764 141.029 56.295 141.173 56.1564 141.365C56.0284 141.546 55.9644 141.775 55.9644 142.053C55.9644 142.319 56.0284 142.543 56.1564 142.725C56.295 142.906 56.4817 143.066 56.7164 143.205C56.951 143.333 57.2284 143.455 57.5484 143.573C57.8684 143.679 58.215 143.791 58.5884 143.909C59.143 144.101 59.655 144.33 60.1244 144.597C60.5937 144.853 60.967 145.189 61.2444 145.605C61.5217 146.021 61.6604 146.57 61.6604 147.253C61.6604 147.839 61.5057 148.383 61.1964 148.885C60.887 149.386 60.439 149.791 59.8524 150.101C59.2764 150.41 58.5564 150.565 57.6924 150.565ZM67.3486 150.565C66.538 150.565 65.818 150.383 65.1886 150.021C64.5593 149.658 64.0686 149.162 63.7166 148.533C63.3646 147.903 63.1886 147.183 63.1886 146.373C63.1886 145.541 63.3646 144.81 63.7166 144.181C64.0686 143.541 64.5593 143.039 65.1886 142.677C65.818 142.303 66.538 142.117 67.3486 142.117C68.3833 142.117 69.2526 142.389 69.9566 142.933C70.6606 143.477 71.1086 144.223 71.3006 145.173H69.0126C68.9166 144.799 68.714 144.506 68.4046 144.293C68.106 144.079 67.7486 143.973 67.3326 143.973C66.9593 143.973 66.6233 144.069 66.3246 144.261C66.0366 144.442 65.8073 144.714 65.6366 145.077C65.4766 145.429 65.3966 145.85 65.3966 146.341C65.3966 146.714 65.4446 147.05 65.5406 147.349C65.6366 147.637 65.77 147.887 65.9406 148.101C66.1113 148.303 66.314 148.458 66.5486 148.565C66.794 148.671 67.0553 148.725 67.3326 148.725C67.61 148.725 67.8606 148.677 68.0846 148.581C68.3193 148.485 68.5166 148.351 68.6766 148.181C68.8366 147.999 68.9486 147.781 69.0126 147.525H71.3006C71.1086 148.453 70.6553 149.194 69.9406 149.749C69.2366 150.293 68.3726 150.565 67.3486 150.565ZM73.2114 150.373V142.309H75.3714V150.373H73.2114ZM74.2994 141.205C73.9154 141.205 73.5954 141.093 73.3394 140.869C73.094 140.634 72.9714 140.341 72.9714 139.989C72.9714 139.637 73.094 139.349 73.3394 139.125C73.5954 138.89 73.9154 138.773 74.2994 138.773C74.694 138.773 75.014 138.89 75.2594 139.125C75.5154 139.349 75.6434 139.637 75.6434 139.989C75.6434 140.341 75.5154 140.634 75.2594 140.869C75.014 141.093 74.694 141.205 74.2994 141.205ZM81.426 150.565C80.6153 150.565 79.8953 150.394 79.266 150.053C78.6473 149.701 78.162 149.215 77.81 148.597C77.4687 147.967 77.298 147.242 77.298 146.421C77.298 145.578 77.4687 144.837 77.81 144.197C78.162 143.546 78.6473 143.039 79.266 142.677C79.8847 142.303 80.6047 142.117 81.426 142.117C82.226 142.117 82.9247 142.293 83.522 142.645C84.1193 142.997 84.5833 143.471 84.914 144.069C85.2447 144.666 85.41 145.343 85.41 146.101C85.41 146.207 85.41 146.33 85.41 146.469C85.41 146.597 85.3993 146.73 85.378 146.869H78.834V145.557H83.234C83.202 145.034 83.0153 144.623 82.674 144.325C82.3433 144.026 81.9273 143.877 81.426 143.877C81.0633 143.877 80.7273 143.962 80.418 144.133C80.1087 144.293 79.8633 144.543 79.682 144.885C79.5113 145.226 79.426 145.658 79.426 146.181V146.645C79.426 147.082 79.506 147.466 79.666 147.797C79.8367 148.117 80.0713 148.367 80.37 148.549C80.6687 148.719 81.0153 148.805 81.41 148.805C81.8047 148.805 82.13 148.719 82.386 148.549C82.6527 148.378 82.85 148.159 82.978 147.893H85.186C85.0367 148.394 84.786 148.847 84.434 149.253C84.082 149.658 83.65 149.978 83.138 150.213C82.626 150.447 82.0553 150.565 81.426 150.565ZM87.179 150.373V142.309H89.083L89.243 143.621C89.4883 143.173 89.835 142.81 90.283 142.533C90.7417 142.255 91.2857 142.117 91.915 142.117C92.587 142.117 93.1523 142.255 93.611 142.533C94.0697 142.81 94.4163 143.215 94.651 143.749C94.8963 144.282 95.019 144.938 95.019 145.717V150.373H92.875V145.925C92.875 145.285 92.7363 144.794 92.459 144.453C92.1923 144.111 91.7763 143.941 91.211 143.941C90.8483 143.941 90.523 144.026 90.235 144.197C89.9577 144.367 89.739 144.613 89.579 144.933C89.419 145.242 89.339 145.621 89.339 146.069V150.373H87.179ZM100.958 150.565C100.147 150.565 99.4273 150.383 98.798 150.021C98.1687 149.658 97.678 149.162 97.326 148.533C96.974 147.903 96.798 147.183 96.798 146.373C96.798 145.541 96.974 144.81 97.326 144.181C97.678 143.541 98.1687 143.039 98.798 142.677C99.4273 142.303 100.147 142.117 100.958 142.117C101.993 142.117 102.862 142.389 103.566 142.933C104.27 143.477 104.718 144.223 104.91 145.173H102.622C102.526 144.799 102.323 144.506 102.014 144.293C101.715 144.079 101.358 143.973 100.942 143.973C100.569 143.973 100.233 144.069 99.934 144.261C99.646 144.442 99.4167 144.714 99.246 145.077C99.086 145.429 99.006 145.85 99.006 146.341C99.006 146.714 99.054 147.05 99.15 147.349C99.246 147.637 99.3793 147.887 99.55 148.101C99.7207 148.303 99.9233 148.458 100.158 148.565C100.403 148.671 100.665 148.725 100.942 148.725C101.219 148.725 101.47 148.677 101.694 148.581C101.929 148.485 102.126 148.351 102.286 148.181C102.446 147.999 102.558 147.781 102.622 147.525H104.91C104.718 148.453 104.265 149.194 103.55 149.749C102.846 150.293 101.982 150.565 100.958 150.565ZM110.645 150.565C109.834 150.565 109.114 150.394 108.485 150.053C107.866 149.701 107.381 149.215 107.029 148.597C106.687 147.967 106.517 147.242 106.517 146.421C106.517 145.578 106.687 144.837 107.029 144.197C107.381 143.546 107.866 143.039 108.485 142.677C109.103 142.303 109.823 142.117 110.645 142.117C111.445 142.117 112.143 142.293 112.741 142.645C113.338 142.997 113.802 143.471 114.133 144.069C114.463 144.666 114.629 145.343 114.629 146.101C114.629 146.207 114.629 146.33 114.629 146.469C114.629 146.597 114.618 146.73 114.597 146.869H108.053V145.557H112.453C112.421 145.034 112.234 144.623 111.893 144.325C111.562 144.026 111.146 143.877 110.645 143.877C110.282 143.877 109.946 143.962 109.637 144.133C109.327 144.293 109.082 144.543 108.901 144.885C108.73 145.226 108.645 145.658 108.645 146.181V146.645C108.645 147.082 108.725 147.466 108.885 147.797C109.055 148.117 109.29 148.367 109.589 148.549C109.887 148.719 110.234 148.805 110.629 148.805C111.023 148.805 111.349 148.719 111.605 148.549C111.871 148.378 112.069 148.159 112.197 147.893H114.405C114.255 148.394 114.005 148.847 113.653 149.253C113.301 149.658 112.869 149.978 112.357 150.213C111.845 150.447 111.274 150.565 110.645 150.565Z" fill="#242424"/>
<path d="M144.414 176.7V165.5H149.006C149.784 165.5 150.44 165.622 150.974 165.868C151.507 166.113 151.907 166.454 152.174 166.892C152.451 167.318 152.59 167.814 152.59 168.38C152.59 168.945 152.467 169.42 152.222 169.804C151.976 170.188 151.651 170.486 151.246 170.7C150.851 170.902 150.414 171.02 149.934 171.052L150.19 170.876C150.702 170.897 151.155 171.036 151.55 171.292C151.955 171.537 152.27 171.868 152.494 172.284C152.728 172.7 152.846 173.153 152.846 173.644C152.846 174.241 152.702 174.769 152.414 175.228C152.126 175.686 151.71 176.049 151.166 176.316C150.622 176.572 149.955 176.7 149.166 176.7H144.414ZM146.574 174.94H148.814C149.4 174.94 149.854 174.806 150.174 174.54C150.494 174.273 150.654 173.889 150.654 173.388C150.654 172.886 150.488 172.497 150.158 172.22C149.827 171.932 149.368 171.788 148.782 171.788H146.574V174.94ZM146.574 170.172H148.654C149.219 170.172 149.646 170.044 149.934 169.788C150.232 169.532 150.382 169.169 150.382 168.7C150.382 168.241 150.232 167.884 149.934 167.628C149.646 167.361 149.214 167.228 148.638 167.228H146.574V170.172ZM157.577 176.892C156.926 176.892 156.366 176.758 155.897 176.492C155.438 176.214 155.086 175.814 154.841 175.292C154.595 174.758 154.473 174.102 154.473 173.324V168.636H156.633V173.1C156.633 173.75 156.766 174.241 157.033 174.572C157.31 174.902 157.731 175.068 158.297 175.068C158.659 175.068 158.979 174.988 159.257 174.828C159.534 174.657 159.753 174.417 159.913 174.108C160.083 173.788 160.169 173.398 160.169 172.94V168.636H162.313V176.7H160.425L160.249 175.388C160.014 175.846 159.667 176.214 159.209 176.492C158.75 176.758 158.206 176.892 157.577 176.892ZM167.724 176.892C166.988 176.892 166.348 176.774 165.804 176.54C165.26 176.305 164.833 175.98 164.524 175.564C164.215 175.148 164.039 174.678 163.996 174.156H166.14C166.193 174.358 166.284 174.545 166.412 174.716C166.54 174.876 166.711 175.004 166.924 175.1C167.137 175.196 167.393 175.244 167.692 175.244C167.98 175.244 168.215 175.206 168.396 175.132C168.577 175.046 168.711 174.934 168.796 174.796C168.892 174.657 168.94 174.513 168.94 174.364C168.94 174.14 168.876 173.969 168.748 173.852C168.62 173.724 168.433 173.622 168.188 173.548C167.943 173.473 167.644 173.398 167.292 173.324C166.908 173.249 166.529 173.158 166.156 173.052C165.793 172.934 165.468 172.79 165.18 172.62C164.892 172.449 164.663 172.23 164.492 171.964C164.321 171.697 164.236 171.366 164.236 170.972C164.236 170.492 164.364 170.065 164.62 169.692C164.876 169.308 165.249 169.004 165.74 168.78C166.231 168.556 166.823 168.444 167.516 168.444C168.487 168.444 169.255 168.662 169.82 169.1C170.385 169.537 170.721 170.14 170.828 170.908H168.796C168.732 170.662 168.588 170.47 168.364 170.332C168.151 170.182 167.863 170.108 167.5 170.108C167.116 170.108 166.823 170.177 166.62 170.316C166.417 170.454 166.316 170.636 166.316 170.86C166.316 171.009 166.38 171.142 166.508 171.26C166.647 171.377 166.839 171.478 167.084 171.564C167.329 171.638 167.628 171.713 167.98 171.788C168.599 171.916 169.143 172.065 169.612 172.236C170.081 172.396 170.449 172.63 170.716 172.94C170.983 173.238 171.116 173.676 171.116 174.252C171.116 174.764 170.977 175.222 170.7 175.628C170.423 176.022 170.028 176.332 169.516 176.556C169.015 176.78 168.417 176.892 167.724 176.892ZM172.992 176.7V168.636H175.152V176.7H172.992ZM174.08 167.532C173.696 167.532 173.376 167.42 173.12 167.196C172.874 166.961 172.752 166.668 172.752 166.316C172.752 165.964 172.874 165.676 173.12 165.452C173.376 165.217 173.696 165.1 174.08 165.1C174.474 165.1 174.794 165.217 175.04 165.452C175.296 165.676 175.424 165.964 175.424 166.316C175.424 166.668 175.296 166.961 175.04 167.196C174.794 167.42 174.474 167.532 174.08 167.532ZM177.334 176.7V168.636H179.238L179.398 169.948C179.644 169.5 179.99 169.137 180.438 168.86C180.897 168.582 181.441 168.444 182.07 168.444C182.742 168.444 183.308 168.582 183.766 168.86C184.225 169.137 184.572 169.542 184.806 170.076C185.052 170.609 185.174 171.265 185.174 172.044V176.7H183.03V172.252C183.03 171.612 182.892 171.121 182.614 170.78C182.348 170.438 181.932 170.268 181.366 170.268C181.004 170.268 180.678 170.353 180.39 170.524C180.113 170.694 179.894 170.94 179.734 171.26C179.574 171.569 179.494 171.948 179.494 172.396V176.7H177.334ZM191.081 176.892C190.271 176.892 189.551 176.721 188.921 176.38C188.303 176.028 187.817 175.542 187.465 174.924C187.124 174.294 186.953 173.569 186.953 172.748C186.953 171.905 187.124 171.164 187.465 170.524C187.817 169.873 188.303 169.366 188.921 169.004C189.54 168.63 190.26 168.444 191.081 168.444C191.881 168.444 192.58 168.62 193.177 168.972C193.775 169.324 194.239 169.798 194.569 170.396C194.9 170.993 195.065 171.67 195.065 172.428C195.065 172.534 195.065 172.657 195.065 172.796C195.065 172.924 195.055 173.057 195.033 173.196H188.489V171.884H192.889C192.857 171.361 192.671 170.95 192.329 170.652C191.999 170.353 191.583 170.204 191.081 170.204C190.719 170.204 190.383 170.289 190.073 170.46C189.764 170.62 189.519 170.87 189.337 171.212C189.167 171.553 189.081 171.985 189.081 172.508V172.972C189.081 173.409 189.161 173.793 189.321 174.124C189.492 174.444 189.727 174.694 190.025 174.876C190.324 175.046 190.671 175.132 191.065 175.132C191.46 175.132 191.785 175.046 192.041 174.876C192.308 174.705 192.505 174.486 192.633 174.22H194.841C194.692 174.721 194.441 175.174 194.089 175.58C193.737 175.985 193.305 176.305 192.793 176.54C192.281 176.774 191.711 176.892 191.081 176.892ZM200.13 176.892C199.394 176.892 198.754 176.774 198.21 176.54C197.666 176.305 197.24 175.98 196.93 175.564C196.621 175.148 196.445 174.678 196.402 174.156H198.546C198.6 174.358 198.69 174.545 198.818 174.716C198.946 174.876 199.117 175.004 199.33 175.1C199.544 175.196 199.8 175.244 200.098 175.244C200.386 175.244 200.621 175.206 200.802 175.132C200.984 175.046 201.117 174.934 201.202 174.796C201.298 174.657 201.346 174.513 201.346 174.364C201.346 174.14 201.282 173.969 201.154 173.852C201.026 173.724 200.84 173.622 200.594 173.548C200.349 173.473 200.05 173.398 199.698 173.324C199.314 173.249 198.936 173.158 198.562 173.052C198.2 172.934 197.874 172.79 197.586 172.62C197.298 172.449 197.069 172.23 196.898 171.964C196.728 171.697 196.642 171.366 196.642 170.972C196.642 170.492 196.77 170.065 197.026 169.692C197.282 169.308 197.656 169.004 198.146 168.78C198.637 168.556 199.229 168.444 199.922 168.444C200.893 168.444 201.661 168.662 202.226 169.1C202.792 169.537 203.128 170.14 203.234 170.908H201.202C201.138 170.662 200.994 170.47 200.77 170.332C200.557 170.182 200.269 170.108 199.906 170.108C199.522 170.108 199.229 170.177 199.026 170.316C198.824 170.454 198.722 170.636 198.722 170.86C198.722 171.009 198.786 171.142 198.914 171.26C199.053 171.377 199.245 171.478 199.49 171.564C199.736 171.638 200.034 171.713 200.386 171.788C201.005 171.916 201.549 172.065 202.018 172.236C202.488 172.396 202.856 172.63 203.122 172.94C203.389 173.238 203.522 173.676 203.522 174.252C203.522 174.764 203.384 175.222 203.106 175.628C202.829 176.022 202.434 176.332 201.922 176.556C201.421 176.78 200.824 176.892 200.13 176.892ZM208.646 176.892C207.91 176.892 207.27 176.774 206.726 176.54C206.182 176.305 205.755 175.98 205.446 175.564C205.137 175.148 204.961 174.678 204.918 174.156H207.062C207.115 174.358 207.206 174.545 207.334 174.716C207.462 174.876 207.633 175.004 207.846 175.1C208.059 175.196 208.315 175.244 208.614 175.244C208.902 175.244 209.137 175.206 209.318 175.132C209.499 175.046 209.633 174.934 209.718 174.796C209.814 174.657 209.862 174.513 209.862 174.364C209.862 174.14 209.798 173.969 209.67 173.852C209.542 173.724 209.355 173.622 209.11 173.548C208.865 173.473 208.566 173.398 208.214 173.324C207.83 173.249 207.451 173.158 207.078 173.052C206.715 172.934 206.39 172.79 206.102 172.62C205.814 172.449 205.585 172.23 205.414 171.964C205.243 171.697 205.158 171.366 205.158 170.972C205.158 170.492 205.286 170.065 205.542 169.692C205.798 169.308 206.171 169.004 206.662 168.78C207.153 168.556 207.745 168.444 208.438 168.444C209.409 168.444 210.177 168.662 210.742 169.1C211.307 169.537 211.643 170.14 211.75 170.908H209.718C209.654 170.662 209.51 170.47 209.286 170.332C209.073 170.182 208.785 170.108 208.422 170.108C208.038 170.108 207.745 170.177 207.542 170.316C207.339 170.454 207.238 170.636 207.238 170.86C207.238 171.009 207.302 171.142 207.43 171.26C207.569 171.377 207.761 171.478 208.006 171.564C208.251 171.638 208.55 171.713 208.902 171.788C209.521 171.916 210.065 172.065 210.534 172.236C211.003 172.396 211.371 172.63 211.638 172.94C211.905 173.238 212.038 173.676 212.038 174.252C212.038 174.764 211.899 175.222 211.622 175.628C211.345 176.022 210.95 176.332 210.438 176.556C209.937 176.78 209.339 176.892 208.646 176.892Z" fill="#242424"/>
<defs>
<linearGradient id="paint0_linear_725_49" x1="432.936" y1="122.5" x2="432.936" y2="249" gradientUnits="userSpaceOnUse">
<stop stop-color="#14FF14" stop-opacity="0"/>
<stop offset="1" stop-color="#14FF14"/>
</linearGradient>
</defs>
</svg>
