<svg width="661" height="381" viewBox="0 0 661 381" fill="none" xmlns="http://www.w3.org/2000/svg">
<path d="M308.727 154.206L255 142.5L87.6195 292.147" stroke="#242424" stroke-width="2"/>
<path d="M402.245 28.191C401.125 28.191 400.16 27.951 399.349 27.471C398.549 26.9804 397.931 26.303 397.493 25.439C397.067 24.5644 396.853 23.5564 396.853 22.415C396.853 21.2737 397.067 20.2657 397.493 19.391C397.931 18.5164 398.549 17.8337 399.349 17.343C400.16 16.8524 401.125 16.607 402.245 16.607C403.6 16.607 404.709 16.943 405.573 17.615C406.437 18.287 406.976 19.2364 407.189 20.463H404.837C404.699 19.8657 404.405 19.4017 403.957 19.071C403.52 18.7297 402.944 18.559 402.229 18.559C401.568 18.559 400.997 18.719 400.517 19.039C400.048 19.3484 399.685 19.791 399.429 20.367C399.173 20.9324 399.045 21.615 399.045 22.415C399.045 23.2044 399.173 23.887 399.429 24.463C399.685 25.039 400.048 25.4817 400.517 25.791C400.997 26.1004 401.568 26.255 402.229 26.255C402.944 26.255 403.52 26.1004 403.957 25.791C404.395 25.471 404.683 25.0284 404.821 24.463H407.189C406.976 25.6257 406.437 26.5377 405.573 27.199C404.709 27.8604 403.6 28.191 402.245 28.191ZM408.986 27.999V19.935H410.906L411.114 21.423C411.306 21.071 411.546 20.7724 411.834 20.527C412.132 20.2817 412.468 20.0897 412.842 19.951C413.226 19.8124 413.647 19.743 414.106 19.743V22.031H413.37C413.05 22.031 412.751 22.0684 412.474 22.143C412.207 22.2177 411.972 22.3404 411.77 22.511C411.567 22.671 411.412 22.895 411.306 23.183C411.199 23.471 411.146 23.8337 411.146 24.271V27.999H408.986ZM419.28 28.191C418.469 28.191 417.749 28.0204 417.12 27.679C416.501 27.327 416.016 26.8417 415.664 26.223C415.322 25.5937 415.152 24.8684 415.152 24.047C415.152 23.2044 415.322 22.463 415.664 21.823C416.016 21.1724 416.501 20.6657 417.12 20.303C417.738 19.9297 418.458 19.743 419.28 19.743C420.08 19.743 420.778 19.919 421.376 20.271C421.973 20.623 422.437 21.0977 422.768 21.695C423.098 22.2924 423.264 22.9697 423.264 23.727C423.264 23.8337 423.264 23.9564 423.264 24.095C423.264 24.223 423.253 24.3564 423.232 24.495H416.688V23.183H421.088C421.056 22.6604 420.869 22.2497 420.528 21.951C420.197 21.6524 419.781 21.503 419.28 21.503C418.917 21.503 418.581 21.5884 418.272 21.759C417.962 21.919 417.717 22.1697 417.536 22.511C417.365 22.8524 417.28 23.2844 417.28 23.807V24.271C417.28 24.7084 417.36 25.0924 417.52 25.423C417.69 25.743 417.925 25.9937 418.224 26.175C418.522 26.3457 418.869 26.431 419.264 26.431C419.658 26.431 419.984 26.3457 420.24 26.175C420.506 26.0044 420.704 25.7857 420.832 25.519H423.04C422.89 26.0204 422.64 26.4737 422.288 26.879C421.936 27.2844 421.504 27.6044 420.992 27.839C420.48 28.0737 419.909 28.191 419.28 28.191ZM427.753 28.191C427.081 28.191 426.526 28.0844 426.089 27.871C425.651 27.647 425.326 27.3537 425.113 26.991C424.91 26.6177 424.809 26.207 424.809 25.759C424.809 25.2684 424.931 24.8364 425.177 24.463C425.433 24.0897 425.811 23.7964 426.313 23.583C426.825 23.3697 427.465 23.263 428.233 23.263H430.233C430.233 22.8684 430.179 22.543 430.073 22.287C429.966 22.0204 429.801 21.823 429.577 21.695C429.353 21.567 429.054 21.503 428.681 21.503C428.275 21.503 427.929 21.5937 427.641 21.775C427.363 21.9457 427.193 22.2124 427.129 22.575H425.033C425.086 21.999 425.273 21.503 425.593 21.087C425.923 20.6604 426.355 20.3297 426.889 20.095C427.433 19.8604 428.035 19.743 428.697 19.743C429.454 19.743 430.11 19.871 430.665 20.127C431.219 20.383 431.646 20.751 431.945 21.231C432.243 21.711 432.393 22.303 432.393 23.007V27.999H430.569L430.329 26.767C430.211 26.9804 430.073 27.1724 429.913 27.343C429.753 27.5137 429.566 27.663 429.353 27.791C429.139 27.919 428.899 28.015 428.633 28.079C428.366 28.1537 428.073 28.191 427.753 28.191ZM428.265 26.527C428.542 26.527 428.787 26.479 429.001 26.383C429.225 26.2764 429.417 26.1377 429.577 25.967C429.737 25.7857 429.859 25.583 429.945 25.359C430.041 25.1244 430.105 24.8737 430.137 24.607V24.591H428.489C428.158 24.591 427.886 24.6337 427.673 24.719C427.47 24.7937 427.321 24.9057 427.225 25.055C427.129 25.2044 427.081 25.375 427.081 25.567C427.081 25.7804 427.129 25.9564 427.225 26.095C427.321 26.2337 427.459 26.3404 427.641 26.415C427.822 26.4897 428.03 26.527 428.265 26.527ZM437.946 27.999C437.38 27.999 436.884 27.9137 436.458 27.743C436.042 27.5617 435.716 27.2684 435.482 26.863C435.247 26.447 435.13 25.8817 435.13 25.167V21.743H433.754V19.935H435.13L435.37 17.743H437.29V19.935H439.418V21.743H437.29V25.199C437.29 25.5617 437.37 25.8124 437.53 25.951C437.69 26.0897 437.962 26.159 438.346 26.159H439.402V27.999H437.946ZM441.284 27.999V19.935H443.444V27.999H441.284ZM442.372 18.831C441.988 18.831 441.668 18.719 441.412 18.495C441.166 18.2604 441.044 17.967 441.044 17.615C441.044 17.263 441.166 16.975 441.412 16.751C441.668 16.5164 441.988 16.399 442.372 16.399C442.766 16.399 443.086 16.5164 443.332 16.751C443.588 16.975 443.716 17.263 443.716 17.615C443.716 17.967 443.588 18.2604 443.332 18.495C443.086 18.719 442.766 18.831 442.372 18.831ZM447.786 27.999L444.826 19.935H447.098L449.098 25.967L451.098 19.935H453.354L450.41 27.999H447.786ZM454.721 27.999V19.935H456.881V27.999H454.721ZM455.809 18.831C455.425 18.831 455.105 18.719 454.849 18.495C454.604 18.2604 454.481 17.967 454.481 17.615C454.481 17.263 454.604 16.975 454.849 16.751C455.105 16.5164 455.425 16.399 455.809 16.399C456.204 16.399 456.524 16.5164 456.769 16.751C457.025 16.975 457.153 17.263 457.153 17.615C457.153 17.967 457.025 18.2604 456.769 18.495C456.524 18.719 456.204 18.831 455.809 18.831ZM462.696 27.999C462.13 27.999 461.634 27.9137 461.208 27.743C460.792 27.5617 460.466 27.2684 460.232 26.863C459.997 26.447 459.88 25.8817 459.88 25.167V21.743H458.504V19.935H459.88L460.12 17.743H462.04V19.935H464.168V21.743H462.04V25.199C462.04 25.5617 462.12 25.8124 462.28 25.951C462.44 26.0897 462.712 26.159 463.096 26.159H464.152V27.999H462.696ZM467.01 31.519L468.962 27.103H468.482L465.25 19.935H467.602L469.906 25.135L471.986 19.935H474.274L469.298 31.519H467.01ZM480.832 27.999V19.279L478.848 19.807V18.079L481.76 16.799H483.072V27.999H480.832ZM489.812 28.191C488.798 28.191 487.924 27.9457 487.188 27.455C486.452 26.9644 485.886 26.287 485.492 25.423C485.108 24.5484 484.916 23.5404 484.916 22.399C484.916 21.2577 485.108 20.255 485.492 19.391C485.886 18.5164 486.446 17.8337 487.172 17.343C487.908 16.8524 488.788 16.607 489.812 16.607C490.836 16.607 491.71 16.8524 492.436 17.343C493.172 17.8337 493.732 18.5164 494.116 19.391C494.51 20.255 494.708 21.2577 494.708 22.399C494.708 23.5404 494.51 24.5484 494.116 25.423C493.732 26.287 493.172 26.9644 492.436 27.455C491.71 27.9457 490.836 28.191 489.812 28.191ZM489.812 26.255C490.345 26.255 490.814 26.1004 491.22 25.791C491.625 25.471 491.94 25.023 492.164 24.447C492.398 23.871 492.516 23.1884 492.516 22.399C492.516 21.599 492.398 20.9164 492.164 20.351C491.94 19.775 491.625 19.3324 491.22 19.023C490.814 18.7137 490.345 18.559 489.812 18.559C489.278 18.559 488.809 18.7137 488.404 19.023C487.998 19.3324 487.678 19.775 487.444 20.351C487.22 20.9164 487.108 21.599 487.108 22.399C487.108 23.1884 487.22 23.871 487.444 24.447C487.678 25.023 487.998 25.471 488.404 25.791C488.809 26.1004 489.278 26.255 489.812 26.255ZM498.437 27.999L504.725 16.799H506.821L500.533 27.999H498.437ZM506.437 28.191C505.915 28.191 505.44 28.079 505.013 27.855C504.597 27.6204 504.267 27.2897 504.021 26.863C503.776 26.4257 503.653 25.9137 503.653 25.327C503.653 24.7297 503.776 24.2177 504.021 23.791C504.267 23.3644 504.597 23.039 505.013 22.815C505.44 22.5804 505.915 22.463 506.437 22.463C506.96 22.463 507.429 22.5804 507.845 22.815C508.261 23.039 508.592 23.3644 508.837 23.791C509.083 24.2177 509.205 24.7297 509.205 25.327C509.205 25.9137 509.083 26.4257 508.837 26.863C508.592 27.2897 508.261 27.6204 507.845 27.855C507.429 28.079 506.96 28.191 506.437 28.191ZM506.421 26.703C506.635 26.703 506.821 26.6497 506.981 26.543C507.141 26.4364 507.269 26.2817 507.365 26.079C507.461 25.8764 507.509 25.6257 507.509 25.327C507.509 25.0177 507.461 24.7617 507.365 24.559C507.28 24.3457 507.152 24.1857 506.981 24.079C506.821 23.9724 506.635 23.919 506.421 23.919C506.219 23.919 506.032 23.9724 505.861 24.079C505.701 24.1857 505.573 24.3457 505.477 24.559C505.381 24.7617 505.333 25.0177 505.333 25.327C505.333 25.6257 505.381 25.8764 505.477 26.079C505.573 26.2817 505.701 26.4364 505.861 26.543C506.032 26.6497 506.219 26.703 506.421 26.703ZM498.901 22.351C498.389 22.351 497.92 22.2337 497.493 21.999C497.077 21.7644 496.741 21.4337 496.485 21.007C496.24 20.5804 496.117 20.0737 496.117 19.487C496.117 18.879 496.24 18.367 496.485 17.951C496.741 17.5244 497.077 17.1937 497.493 16.959C497.92 16.7244 498.395 16.607 498.917 16.607C499.44 16.607 499.904 16.7244 500.309 16.959C500.725 17.1937 501.056 17.5244 501.301 17.951C501.557 18.367 501.685 18.879 501.685 19.487C501.685 20.0737 501.557 20.5804 501.301 21.007C501.056 21.4337 500.725 21.7644 500.309 21.999C499.893 22.2337 499.424 22.351 498.901 22.351ZM498.901 20.863C499.104 20.863 499.285 20.8097 499.445 20.703C499.616 20.5964 499.749 20.4417 499.845 20.239C499.941 20.0364 499.989 19.7857 499.989 19.487C499.989 19.167 499.941 18.9057 499.845 18.703C499.749 18.5004 499.616 18.3457 499.445 18.239C499.285 18.1324 499.104 18.079 498.901 18.079C498.699 18.079 498.512 18.1324 498.341 18.239C498.181 18.3457 498.053 18.5057 497.957 18.719C497.861 18.9217 497.813 19.1777 497.813 19.487C497.813 19.7857 497.861 20.0364 497.957 20.239C498.053 20.4417 498.181 20.5964 498.341 20.703C498.512 20.8097 498.699 20.863 498.901 20.863Z" fill="#242424"/>
<path d="M276.851 295.191C276.04 295.191 275.315 295.052 274.675 294.775C274.045 294.498 273.544 294.092 273.171 293.559C272.808 293.026 272.621 292.38 272.611 291.623H274.899C274.909 291.954 274.995 292.252 275.155 292.519C275.315 292.786 275.533 292.999 275.811 293.159C276.099 293.308 276.44 293.383 276.835 293.383C277.176 293.383 277.469 293.33 277.715 293.223C277.971 293.106 278.168 292.946 278.307 292.743C278.445 292.54 278.515 292.3 278.515 292.023C278.515 291.703 278.435 291.436 278.275 291.223C278.125 291.01 277.912 290.828 277.635 290.679C277.368 290.53 277.053 290.396 276.691 290.279C276.339 290.151 275.965 290.018 275.571 289.879C274.685 289.591 274.008 289.207 273.539 288.727C273.08 288.247 272.851 287.612 272.851 286.823C272.851 286.151 273.011 285.575 273.331 285.095C273.661 284.615 274.115 284.247 274.691 283.991C275.267 283.735 275.923 283.607 276.659 283.607C277.416 283.607 278.077 283.74 278.643 284.007C279.219 284.263 279.672 284.636 280.003 285.127C280.344 285.618 280.52 286.194 280.531 286.855H278.227C278.216 286.61 278.141 286.38 278.003 286.167C277.875 285.943 277.693 285.767 277.459 285.639C277.224 285.5 276.947 285.431 276.627 285.431C276.349 285.42 276.093 285.463 275.859 285.559C275.635 285.655 275.453 285.799 275.315 285.991C275.187 286.172 275.123 286.402 275.123 286.679C275.123 286.946 275.187 287.17 275.315 287.351C275.453 287.532 275.64 287.692 275.875 287.831C276.109 287.959 276.387 288.082 276.707 288.199C277.027 288.306 277.373 288.418 277.747 288.535C278.301 288.727 278.813 288.956 279.283 289.223C279.752 289.479 280.125 289.815 280.403 290.231C280.68 290.647 280.819 291.196 280.819 291.879C280.819 292.466 280.664 293.01 280.355 293.511C280.045 294.012 279.597 294.418 279.011 294.727C278.435 295.036 277.715 295.191 276.851 295.191ZM286.507 295.191C285.696 295.191 284.976 295.01 284.347 294.647C283.718 294.284 283.227 293.788 282.875 293.159C282.523 292.53 282.347 291.81 282.347 290.999C282.347 290.167 282.523 289.436 282.875 288.807C283.227 288.167 283.718 287.666 284.347 287.303C284.976 286.93 285.696 286.743 286.507 286.743C287.542 286.743 288.411 287.015 289.115 287.559C289.819 288.103 290.267 288.85 290.459 289.799H288.171C288.075 289.426 287.872 289.132 287.563 288.919C287.264 288.706 286.907 288.599 286.491 288.599C286.118 288.599 285.782 288.695 285.483 288.887C285.195 289.068 284.966 289.34 284.795 289.703C284.635 290.055 284.555 290.476 284.555 290.967C284.555 291.34 284.603 291.676 284.699 291.975C284.795 292.263 284.928 292.514 285.099 292.727C285.27 292.93 285.472 293.084 285.707 293.191C285.952 293.298 286.214 293.351 286.491 293.351C286.768 293.351 287.019 293.303 287.243 293.207C287.478 293.111 287.675 292.978 287.835 292.807C287.995 292.626 288.107 292.407 288.171 292.151H290.459C290.267 293.079 289.814 293.82 289.099 294.375C288.395 294.919 287.531 295.191 286.507 295.191ZM292.37 294.999V286.935H294.53V294.999H292.37ZM293.458 285.831C293.074 285.831 292.754 285.719 292.498 285.495C292.252 285.26 292.13 284.967 292.13 284.615C292.13 284.263 292.252 283.975 292.498 283.751C292.754 283.516 293.074 283.399 293.458 283.399C293.852 283.399 294.172 283.516 294.418 283.751C294.674 283.975 294.802 284.263 294.802 284.615C294.802 284.967 294.674 285.26 294.418 285.495C294.172 285.719 293.852 285.831 293.458 285.831ZM300.584 295.191C299.774 295.191 299.054 295.02 298.424 294.679C297.806 294.327 297.32 293.842 296.968 293.223C296.627 292.594 296.456 291.868 296.456 291.047C296.456 290.204 296.627 289.463 296.968 288.823C297.32 288.172 297.806 287.666 298.424 287.303C299.043 286.93 299.763 286.743 300.584 286.743C301.384 286.743 302.083 286.919 302.68 287.271C303.278 287.623 303.742 288.098 304.072 288.695C304.403 289.292 304.568 289.97 304.568 290.727C304.568 290.834 304.568 290.956 304.568 291.095C304.568 291.223 304.558 291.356 304.536 291.495H297.992V290.183H302.392C302.36 289.66 302.174 289.25 301.832 288.951C301.502 288.652 301.086 288.503 300.584 288.503C300.222 288.503 299.886 288.588 299.576 288.759C299.267 288.919 299.022 289.17 298.84 289.511C298.67 289.852 298.584 290.284 298.584 290.807V291.271C298.584 291.708 298.664 292.092 298.824 292.423C298.995 292.743 299.23 292.994 299.528 293.175C299.827 293.346 300.174 293.431 300.568 293.431C300.963 293.431 301.288 293.346 301.544 293.175C301.811 293.004 302.008 292.786 302.136 292.519H304.344C304.195 293.02 303.944 293.474 303.592 293.879C303.24 294.284 302.808 294.604 302.296 294.839C301.784 295.074 301.214 295.191 300.584 295.191ZM306.337 294.999V286.935H308.241L308.401 288.247C308.647 287.799 308.993 287.436 309.441 287.159C309.9 286.882 310.444 286.743 311.073 286.743C311.745 286.743 312.311 286.882 312.769 287.159C313.228 287.436 313.575 287.842 313.809 288.375C314.055 288.908 314.177 289.564 314.177 290.343V294.999H312.033V290.551C312.033 289.911 311.895 289.42 311.617 289.079C311.351 288.738 310.935 288.567 310.369 288.567C310.007 288.567 309.681 288.652 309.393 288.823C309.116 288.994 308.897 289.239 308.737 289.559C308.577 289.868 308.497 290.247 308.497 290.695V294.999H306.337ZM320.116 295.191C319.306 295.191 318.586 295.01 317.956 294.647C317.327 294.284 316.836 293.788 316.484 293.159C316.132 292.53 315.956 291.81 315.956 290.999C315.956 290.167 316.132 289.436 316.484 288.807C316.836 288.167 317.327 287.666 317.956 287.303C318.586 286.93 319.306 286.743 320.116 286.743C321.151 286.743 322.02 287.015 322.724 287.559C323.428 288.103 323.876 288.85 324.068 289.799H321.78C321.684 289.426 321.482 289.132 321.172 288.919C320.874 288.706 320.516 288.599 320.1 288.599C319.727 288.599 319.391 288.695 319.092 288.887C318.804 289.068 318.575 289.34 318.404 289.703C318.244 290.055 318.164 290.476 318.164 290.967C318.164 291.34 318.212 291.676 318.308 291.975C318.404 292.263 318.538 292.514 318.708 292.727C318.879 292.93 319.082 293.084 319.316 293.191C319.562 293.298 319.823 293.351 320.1 293.351C320.378 293.351 320.628 293.303 320.852 293.207C321.087 293.111 321.284 292.978 321.444 292.807C321.604 292.626 321.716 292.407 321.78 292.151H324.068C323.876 293.079 323.423 293.82 322.708 294.375C322.004 294.919 321.14 295.191 320.116 295.191ZM329.803 295.191C328.992 295.191 328.272 295.02 327.643 294.679C327.024 294.327 326.539 293.842 326.187 293.223C325.846 292.594 325.675 291.868 325.675 291.047C325.675 290.204 325.846 289.463 326.187 288.823C326.539 288.172 327.024 287.666 327.643 287.303C328.262 286.93 328.982 286.743 329.803 286.743C330.603 286.743 331.302 286.919 331.899 287.271C332.496 287.623 332.96 288.098 333.291 288.695C333.622 289.292 333.787 289.97 333.787 290.727C333.787 290.834 333.787 290.956 333.787 291.095C333.787 291.223 333.776 291.356 333.755 291.495H327.211V290.183H331.611C331.579 289.66 331.392 289.25 331.051 288.951C330.72 288.652 330.304 288.503 329.803 288.503C329.44 288.503 329.104 288.588 328.795 288.759C328.486 288.919 328.24 289.17 328.059 289.511C327.888 289.852 327.803 290.284 327.803 290.807V291.271C327.803 291.708 327.883 292.092 328.043 292.423C328.214 292.743 328.448 292.994 328.747 293.175C329.046 293.346 329.392 293.431 329.787 293.431C330.182 293.431 330.507 293.346 330.763 293.175C331.03 293.004 331.227 292.786 331.355 292.519H333.563C333.414 293.02 333.163 293.474 332.811 293.879C332.459 294.284 332.027 294.604 331.515 294.839C331.003 295.074 330.432 295.191 329.803 295.191ZM343.578 295.191C342.735 295.191 342.02 295.036 341.434 294.727C340.858 294.418 340.394 294.002 340.042 293.479C339.7 292.956 339.45 292.375 339.29 291.735C339.14 291.084 339.066 290.428 339.066 289.767C339.066 288.508 339.242 287.42 339.594 286.503C339.946 285.586 340.452 284.876 341.114 284.375C341.775 283.863 342.575 283.607 343.514 283.607C344.303 283.607 344.97 283.762 345.514 284.071C346.058 284.37 346.479 284.764 346.778 285.255C347.076 285.746 347.252 286.274 347.306 286.839H345.29C345.204 286.37 345.007 286.012 344.698 285.767C344.388 285.511 343.988 285.383 343.498 285.383C343.039 285.383 342.639 285.522 342.298 285.799C341.956 286.076 341.69 286.492 341.498 287.047C341.316 287.602 341.21 288.3 341.178 289.143C341.178 289.154 341.178 289.17 341.178 289.191C341.178 289.212 341.178 289.228 341.178 289.239C341.348 288.951 341.572 288.695 341.85 288.471C342.127 288.247 342.447 288.071 342.81 287.943C343.172 287.815 343.556 287.751 343.962 287.751C344.58 287.751 345.156 287.9 345.69 288.199C346.223 288.498 346.655 288.919 346.986 289.463C347.316 290.007 347.482 290.652 347.482 291.399C347.482 292.071 347.316 292.7 346.986 293.287C346.666 293.863 346.212 294.327 345.626 294.679C345.039 295.02 344.356 295.191 343.578 295.191ZM343.45 293.335C343.834 293.335 344.17 293.255 344.458 293.095C344.756 292.935 344.991 292.716 345.162 292.439C345.332 292.151 345.418 291.826 345.418 291.463C345.418 291.079 345.332 290.748 345.162 290.471C344.991 290.194 344.756 289.975 344.458 289.815C344.159 289.655 343.818 289.575 343.434 289.575C343.06 289.575 342.724 289.655 342.426 289.815C342.127 289.975 341.887 290.199 341.706 290.487C341.535 290.764 341.45 291.084 341.45 291.447C341.45 291.82 341.535 292.151 341.706 292.439C341.887 292.716 342.127 292.935 342.426 293.095C342.735 293.255 343.076 293.335 343.45 293.335ZM354.038 295.191C353.025 295.191 352.15 294.946 351.414 294.455C350.678 293.964 350.113 293.287 349.718 292.423C349.334 291.548 349.142 290.54 349.142 289.399C349.142 288.258 349.334 287.255 349.718 286.391C350.113 285.516 350.673 284.834 351.398 284.343C352.134 283.852 353.014 283.607 354.038 283.607C355.062 283.607 355.937 283.852 356.662 284.343C357.398 284.834 357.958 285.516 358.342 286.391C358.737 287.255 358.934 288.258 358.934 289.399C358.934 290.54 358.737 291.548 358.342 292.423C357.958 293.287 357.398 293.964 356.662 294.455C355.937 294.946 355.062 295.191 354.038 295.191ZM354.038 293.255C354.572 293.255 355.041 293.1 355.446 292.791C355.852 292.471 356.166 292.023 356.39 291.447C356.625 290.871 356.742 290.188 356.742 289.399C356.742 288.599 356.625 287.916 356.39 287.351C356.166 286.775 355.852 286.332 355.446 286.023C355.041 285.714 354.572 285.559 354.038 285.559C353.505 285.559 353.036 285.714 352.63 286.023C352.225 286.332 351.905 286.775 351.67 287.351C351.446 287.916 351.334 288.599 351.334 289.399C351.334 290.188 351.446 290.871 351.67 291.447C351.905 292.023 352.225 292.471 352.63 292.791C353.036 293.1 353.505 293.255 354.038 293.255ZM362.664 294.999L368.952 283.799H371.048L364.76 294.999H362.664ZM370.664 295.191C370.141 295.191 369.667 295.079 369.24 294.855C368.824 294.62 368.493 294.29 368.248 293.863C368.003 293.426 367.88 292.914 367.88 292.327C367.88 291.73 368.003 291.218 368.248 290.791C368.493 290.364 368.824 290.039 369.24 289.815C369.667 289.58 370.141 289.463 370.664 289.463C371.187 289.463 371.656 289.58 372.072 289.815C372.488 290.039 372.819 290.364 373.064 290.791C373.309 291.218 373.432 291.73 373.432 292.327C373.432 292.914 373.309 293.426 373.064 293.863C372.819 294.29 372.488 294.62 372.072 294.855C371.656 295.079 371.187 295.191 370.664 295.191ZM370.648 293.703C370.861 293.703 371.048 293.65 371.208 293.543C371.368 293.436 371.496 293.282 371.592 293.079C371.688 292.876 371.736 292.626 371.736 292.327C371.736 292.018 371.688 291.762 371.592 291.559C371.507 291.346 371.379 291.186 371.208 291.079C371.048 290.972 370.861 290.919 370.648 290.919C370.445 290.919 370.259 290.972 370.088 291.079C369.928 291.186 369.8 291.346 369.704 291.559C369.608 291.762 369.56 292.018 369.56 292.327C369.56 292.626 369.608 292.876 369.704 293.079C369.8 293.282 369.928 293.436 370.088 293.543C370.259 293.65 370.445 293.703 370.648 293.703ZM363.128 289.351C362.616 289.351 362.147 289.234 361.72 288.999C361.304 288.764 360.968 288.434 360.712 288.007C360.467 287.58 360.344 287.074 360.344 286.487C360.344 285.879 360.467 285.367 360.712 284.951C360.968 284.524 361.304 284.194 361.72 283.959C362.147 283.724 362.621 283.607 363.144 283.607C363.667 283.607 364.131 283.724 364.536 283.959C364.952 284.194 365.283 284.524 365.528 284.951C365.784 285.367 365.912 285.879 365.912 286.487C365.912 287.074 365.784 287.58 365.528 288.007C365.283 288.434 364.952 288.764 364.536 288.999C364.12 289.234 363.651 289.351 363.128 289.351ZM363.128 287.863C363.331 287.863 363.512 287.81 363.672 287.703C363.843 287.596 363.976 287.442 364.072 287.239C364.168 287.036 364.216 286.786 364.216 286.487C364.216 286.167 364.168 285.906 364.072 285.703C363.976 285.5 363.843 285.346 363.672 285.239C363.512 285.132 363.331 285.079 363.128 285.079C362.925 285.079 362.739 285.132 362.568 285.239C362.408 285.346 362.28 285.506 362.184 285.719C362.088 285.922 362.04 286.178 362.04 286.487C362.04 286.786 362.088 287.036 362.184 287.239C362.28 287.442 362.408 287.596 362.568 287.703C362.739 287.81 362.925 287.863 363.128 287.863Z" fill="#242424"/>
<path d="M532.799 294.999V283.799H537.391C538.17 283.799 538.826 283.922 539.359 284.167C539.893 284.412 540.293 284.754 540.559 285.191C540.837 285.618 540.975 286.114 540.975 286.679C540.975 287.244 540.853 287.719 540.607 288.103C540.362 288.487 540.037 288.786 539.631 288.999C539.237 289.202 538.799 289.319 538.319 289.351L538.575 289.175C539.087 289.196 539.541 289.335 539.935 289.591C540.341 289.836 540.655 290.167 540.879 290.583C541.114 290.999 541.231 291.452 541.231 291.943C541.231 292.54 541.087 293.068 540.799 293.527C540.511 293.986 540.095 294.348 539.551 294.615C539.007 294.871 538.341 294.999 537.551 294.999H532.799ZM534.959 293.239H537.199C537.786 293.239 538.239 293.106 538.559 292.839C538.879 292.572 539.039 292.188 539.039 291.687C539.039 291.186 538.874 290.796 538.543 290.519C538.213 290.231 537.754 290.087 537.167 290.087H534.959V293.239ZM534.959 288.471H537.039C537.605 288.471 538.031 288.343 538.319 288.087C538.618 287.831 538.767 287.468 538.767 286.999C538.767 286.54 538.618 286.183 538.319 285.927C538.031 285.66 537.599 285.527 537.023 285.527H534.959V288.471ZM545.962 295.191C545.312 295.191 544.752 295.058 544.282 294.791C543.824 294.514 543.472 294.114 543.226 293.591C542.981 293.058 542.858 292.402 542.858 291.623V286.935H545.018V291.399C545.018 292.05 545.152 292.54 545.418 292.871C545.696 293.202 546.117 293.367 546.682 293.367C547.045 293.367 547.365 293.287 547.642 293.127C547.92 292.956 548.138 292.716 548.298 292.407C548.469 292.087 548.554 291.698 548.554 291.239V286.935H550.698V294.999H548.81L548.634 293.687C548.4 294.146 548.053 294.514 547.594 294.791C547.136 295.058 546.592 295.191 545.962 295.191ZM556.11 295.191C555.374 295.191 554.734 295.074 554.19 294.839C553.646 294.604 553.219 294.279 552.91 293.863C552.6 293.447 552.424 292.978 552.382 292.455H554.526C554.579 292.658 554.67 292.844 554.798 293.015C554.926 293.175 555.096 293.303 555.31 293.399C555.523 293.495 555.779 293.543 556.078 293.543C556.366 293.543 556.6 293.506 556.782 293.431C556.963 293.346 557.096 293.234 557.182 293.095C557.278 292.956 557.326 292.812 557.326 292.663C557.326 292.439 557.262 292.268 557.134 292.151C557.006 292.023 556.819 291.922 556.574 291.847C556.328 291.772 556.03 291.698 555.678 291.623C555.294 291.548 554.915 291.458 554.542 291.351C554.179 291.234 553.854 291.09 553.566 290.919C553.278 290.748 553.048 290.53 552.878 290.263C552.707 289.996 552.622 289.666 552.622 289.271C552.622 288.791 552.75 288.364 553.006 287.991C553.262 287.607 553.635 287.303 554.126 287.079C554.616 286.855 555.208 286.743 555.902 286.743C556.872 286.743 557.64 286.962 558.206 287.399C558.771 287.836 559.107 288.439 559.214 289.207H557.182C557.118 288.962 556.974 288.77 556.75 288.631C556.536 288.482 556.248 288.407 555.886 288.407C555.502 288.407 555.208 288.476 555.006 288.615C554.803 288.754 554.702 288.935 554.702 289.159C554.702 289.308 554.766 289.442 554.894 289.559C555.032 289.676 555.224 289.778 555.47 289.863C555.715 289.938 556.014 290.012 556.366 290.087C556.984 290.215 557.528 290.364 557.998 290.535C558.467 290.695 558.835 290.93 559.102 291.239C559.368 291.538 559.502 291.975 559.502 292.551C559.502 293.063 559.363 293.522 559.086 293.927C558.808 294.322 558.414 294.631 557.902 294.855C557.4 295.079 556.803 295.191 556.11 295.191ZM561.377 294.999V286.935H563.537V294.999H561.377ZM562.465 285.831C562.081 285.831 561.761 285.719 561.505 285.495C561.26 285.26 561.137 284.967 561.137 284.615C561.137 284.263 561.26 283.975 561.505 283.751C561.761 283.516 562.081 283.399 562.465 283.399C562.86 283.399 563.18 283.516 563.425 283.751C563.681 283.975 563.809 284.263 563.809 284.615C563.809 284.967 563.681 285.26 563.425 285.495C563.18 285.719 562.86 285.831 562.465 285.831ZM565.72 294.999V286.935H567.624L567.784 288.247C568.029 287.799 568.376 287.436 568.824 287.159C569.283 286.882 569.827 286.743 570.456 286.743C571.128 286.743 571.693 286.882 572.152 287.159C572.611 287.436 572.957 287.842 573.192 288.375C573.437 288.908 573.56 289.564 573.56 290.343V294.999H571.416V290.551C571.416 289.911 571.277 289.42 571 289.079C570.733 288.738 570.317 288.567 569.752 288.567C569.389 288.567 569.064 288.652 568.776 288.823C568.499 288.994 568.28 289.239 568.12 289.559C567.96 289.868 567.88 290.247 567.88 290.695V294.999H565.72ZM579.467 295.191C578.656 295.191 577.936 295.02 577.307 294.679C576.688 294.327 576.203 293.842 575.851 293.223C575.51 292.594 575.339 291.868 575.339 291.047C575.339 290.204 575.51 289.463 575.851 288.823C576.203 288.172 576.688 287.666 577.307 287.303C577.926 286.93 578.646 286.743 579.467 286.743C580.267 286.743 580.966 286.919 581.563 287.271C582.16 287.623 582.624 288.098 582.955 288.695C583.286 289.292 583.451 289.97 583.451 290.727C583.451 290.834 583.451 290.956 583.451 291.095C583.451 291.223 583.44 291.356 583.419 291.495H576.875V290.183H581.275C581.243 289.66 581.056 289.25 580.715 288.951C580.384 288.652 579.968 288.503 579.467 288.503C579.104 288.503 578.768 288.588 578.459 288.759C578.15 288.919 577.904 289.17 577.723 289.511C577.552 289.852 577.467 290.284 577.467 290.807V291.271C577.467 291.708 577.547 292.092 577.707 292.423C577.878 292.743 578.112 292.994 578.411 293.175C578.71 293.346 579.056 293.431 579.451 293.431C579.846 293.431 580.171 293.346 580.427 293.175C580.694 293.004 580.891 292.786 581.019 292.519H583.227C583.078 293.02 582.827 293.474 582.475 293.879C582.123 294.284 581.691 294.604 581.179 294.839C580.667 295.074 580.096 295.191 579.467 295.191ZM588.516 295.191C587.78 295.191 587.14 295.074 586.596 294.839C586.052 294.604 585.625 294.279 585.316 293.863C585.007 293.447 584.831 292.978 584.788 292.455H586.932C586.985 292.658 587.076 292.844 587.204 293.015C587.332 293.175 587.503 293.303 587.716 293.399C587.929 293.495 588.185 293.543 588.484 293.543C588.772 293.543 589.007 293.506 589.188 293.431C589.369 293.346 589.503 293.234 589.588 293.095C589.684 292.956 589.732 292.812 589.732 292.663C589.732 292.439 589.668 292.268 589.54 292.151C589.412 292.023 589.225 291.922 588.98 291.847C588.735 291.772 588.436 291.698 588.084 291.623C587.7 291.548 587.321 291.458 586.948 291.351C586.585 291.234 586.26 291.09 585.972 290.919C585.684 290.748 585.455 290.53 585.284 290.263C585.113 289.996 585.028 289.666 585.028 289.271C585.028 288.791 585.156 288.364 585.412 287.991C585.668 287.607 586.041 287.303 586.532 287.079C587.023 286.855 587.615 286.743 588.308 286.743C589.279 286.743 590.047 286.962 590.612 287.399C591.177 287.836 591.513 288.439 591.62 289.207H589.588C589.524 288.962 589.38 288.77 589.156 288.631C588.943 288.482 588.655 288.407 588.292 288.407C587.908 288.407 587.615 288.476 587.412 288.615C587.209 288.754 587.108 288.935 587.108 289.159C587.108 289.308 587.172 289.442 587.3 289.559C587.439 289.676 587.631 289.778 587.876 289.863C588.121 289.938 588.42 290.012 588.772 290.087C589.391 290.215 589.935 290.364 590.404 290.535C590.873 290.695 591.241 290.93 591.508 291.239C591.775 291.538 591.908 291.975 591.908 292.551C591.908 293.063 591.769 293.522 591.492 293.927C591.215 294.322 590.82 294.631 590.308 294.855C589.807 295.079 589.209 295.191 588.516 295.191ZM597.032 295.191C596.296 295.191 595.656 295.074 595.112 294.839C594.568 294.604 594.141 294.279 593.832 293.863C593.522 293.447 593.346 292.978 593.304 292.455H595.448C595.501 292.658 595.592 292.844 595.72 293.015C595.848 293.175 596.018 293.303 596.232 293.399C596.445 293.495 596.701 293.543 597 293.543C597.288 293.543 597.522 293.506 597.704 293.431C597.885 293.346 598.018 293.234 598.104 293.095C598.2 292.956 598.248 292.812 598.248 292.663C598.248 292.439 598.184 292.268 598.056 292.151C597.928 292.023 597.741 291.922 597.496 291.847C597.25 291.772 596.952 291.698 596.6 291.623C596.216 291.548 595.837 291.458 595.464 291.351C595.101 291.234 594.776 291.09 594.488 290.919C594.2 290.748 593.97 290.53 593.8 290.263C593.629 289.996 593.544 289.666 593.544 289.271C593.544 288.791 593.672 288.364 593.928 287.991C594.184 287.607 594.557 287.303 595.048 287.079C595.538 286.855 596.13 286.743 596.824 286.743C597.794 286.743 598.562 286.962 599.128 287.399C599.693 287.836 600.029 288.439 600.136 289.207H598.104C598.04 288.962 597.896 288.77 597.672 288.631C597.458 288.482 597.17 288.407 596.808 288.407C596.424 288.407 596.13 288.476 595.928 288.615C595.725 288.754 595.624 288.935 595.624 289.159C595.624 289.308 595.688 289.442 595.816 289.559C595.954 289.676 596.146 289.778 596.392 289.863C596.637 289.938 596.936 290.012 597.288 290.087C597.906 290.215 598.45 290.364 598.92 290.535C599.389 290.695 599.757 290.93 600.024 291.239C600.29 291.538 600.424 291.975 600.424 292.551C600.424 293.063 600.285 293.522 600.008 293.927C599.73 294.322 599.336 294.631 598.824 294.855C598.322 295.079 597.725 295.191 597.032 295.191ZM609.761 295.191C609.036 295.191 608.369 295.058 607.761 294.791C607.153 294.524 606.668 294.119 606.305 293.575C605.942 293.031 605.75 292.343 605.729 291.511H607.841C607.852 291.863 607.932 292.183 608.081 292.471C608.23 292.748 608.449 292.972 608.737 293.143C609.025 293.303 609.366 293.383 609.761 293.383C610.134 293.383 610.454 293.308 610.721 293.159C610.988 293.01 611.19 292.812 611.329 292.567C611.468 292.322 611.537 292.039 611.537 291.719C611.537 291.346 611.441 291.036 611.249 290.791C611.068 290.535 610.812 290.343 610.481 290.215C610.161 290.087 609.793 290.023 609.377 290.023H608.545V288.247H609.377C609.9 288.247 610.337 288.124 610.689 287.879C611.052 287.634 611.233 287.266 611.233 286.775C611.233 286.37 611.1 286.044 610.833 285.799C610.577 285.554 610.214 285.431 609.745 285.431C609.233 285.431 608.833 285.58 608.545 285.879C608.257 286.178 608.097 286.546 608.065 286.983H605.953C605.985 286.279 606.161 285.676 606.481 285.175C606.812 284.663 607.254 284.274 607.809 284.007C608.364 283.74 609.009 283.607 609.745 283.607C610.524 283.607 611.18 283.746 611.713 284.023C612.257 284.29 612.668 284.652 612.945 285.111C613.222 285.57 613.361 286.066 613.361 286.599C613.361 287.036 613.276 287.426 613.105 287.767C612.945 288.108 612.726 288.391 612.449 288.615C612.172 288.839 611.868 288.999 611.537 289.095C611.953 289.18 612.316 289.346 612.625 289.591C612.945 289.826 613.19 290.13 613.361 290.503C613.542 290.876 613.633 291.308 613.633 291.799C613.633 292.407 613.484 292.972 613.185 293.495C612.897 294.007 612.46 294.418 611.873 294.727C611.297 295.036 610.593 295.191 609.761 295.191ZM620.234 295.191C619.22 295.191 618.346 294.946 617.61 294.455C616.874 293.964 616.308 293.287 615.914 292.423C615.53 291.548 615.338 290.54 615.338 289.399C615.338 288.258 615.53 287.255 615.914 286.391C616.308 285.516 616.868 284.834 617.594 284.343C618.33 283.852 619.21 283.607 620.234 283.607C621.258 283.607 622.132 283.852 622.858 284.343C623.594 284.834 624.154 285.516 624.538 286.391C624.932 287.255 625.13 288.258 625.13 289.399C625.13 290.54 624.932 291.548 624.538 292.423C624.154 293.287 623.594 293.964 622.858 294.455C622.132 294.946 621.258 295.191 620.234 295.191ZM620.234 293.255C620.767 293.255 621.236 293.1 621.642 292.791C622.047 292.471 622.362 292.023 622.586 291.447C622.82 290.871 622.938 290.188 622.938 289.399C622.938 288.599 622.82 287.916 622.586 287.351C622.362 286.775 622.047 286.332 621.642 286.023C621.236 285.714 620.767 285.559 620.234 285.559C619.7 285.559 619.231 285.714 618.826 286.023C618.42 286.332 618.1 286.775 617.866 287.351C617.642 287.916 617.53 288.599 617.53 289.399C617.53 290.188 617.642 290.871 617.866 291.447C618.1 292.023 618.42 292.471 618.826 292.791C619.231 293.1 619.7 293.255 620.234 293.255ZM628.859 294.999L635.147 283.799H637.243L630.955 294.999H628.859ZM636.859 295.191C636.337 295.191 635.862 295.079 635.435 294.855C635.019 294.62 634.689 294.29 634.443 293.863C634.198 293.426 634.075 292.914 634.075 292.327C634.075 291.73 634.198 291.218 634.443 290.791C634.689 290.364 635.019 290.039 635.435 289.815C635.862 289.58 636.337 289.463 636.859 289.463C637.382 289.463 637.851 289.58 638.267 289.815C638.683 290.039 639.014 290.364 639.259 290.791C639.505 291.218 639.627 291.73 639.627 292.327C639.627 292.914 639.505 293.426 639.259 293.863C639.014 294.29 638.683 294.62 638.267 294.855C637.851 295.079 637.382 295.191 636.859 295.191ZM636.843 293.703C637.057 293.703 637.243 293.65 637.403 293.543C637.563 293.436 637.691 293.282 637.787 293.079C637.883 292.876 637.931 292.626 637.931 292.327C637.931 292.018 637.883 291.762 637.787 291.559C637.702 291.346 637.574 291.186 637.403 291.079C637.243 290.972 637.057 290.919 636.843 290.919C636.641 290.919 636.454 290.972 636.283 291.079C636.123 291.186 635.995 291.346 635.899 291.559C635.803 291.762 635.755 292.018 635.755 292.327C635.755 292.626 635.803 292.876 635.899 293.079C635.995 293.282 636.123 293.436 636.283 293.543C636.454 293.65 636.641 293.703 636.843 293.703ZM629.323 289.351C628.811 289.351 628.342 289.234 627.915 288.999C627.499 288.764 627.163 288.434 626.907 288.007C626.662 287.58 626.539 287.074 626.539 286.487C626.539 285.879 626.662 285.367 626.907 284.951C627.163 284.524 627.499 284.194 627.915 283.959C628.342 283.724 628.817 283.607 629.339 283.607C629.862 283.607 630.326 283.724 630.731 283.959C631.147 284.194 631.478 284.524 631.723 284.951C631.979 285.367 632.107 285.879 632.107 286.487C632.107 287.074 631.979 287.58 631.723 288.007C631.478 288.434 631.147 288.764 630.731 288.999C630.315 289.234 629.846 289.351 629.323 289.351ZM629.323 287.863C629.526 287.863 629.707 287.81 629.867 287.703C630.038 287.596 630.171 287.442 630.267 287.239C630.363 287.036 630.411 286.786 630.411 286.487C630.411 286.167 630.363 285.906 630.267 285.703C630.171 285.5 630.038 285.346 629.867 285.239C629.707 285.132 629.526 285.079 629.323 285.079C629.121 285.079 628.934 285.132 628.763 285.239C628.603 285.346 628.475 285.506 628.379 285.719C628.283 285.922 628.235 286.178 628.235 286.487C628.235 286.786 628.283 287.036 628.379 287.239C628.475 287.442 628.603 287.596 628.763 287.703C628.934 287.81 629.121 287.863 629.323 287.863Z" fill="#242424"/>
<circle cx="579.174" cy="261.224" r="4.22206" fill="#14FF14"/>
<circle cx="326.788" cy="261.224" r="4.22206" fill="#14FF14"/>
<circle cx="452.512" cy="40.7387" r="4.22206" fill="#14FF14"/>
<path d="M452.691 43.168L578.191 260.541H327.19L452.691 43.168Z" stroke="#242424" stroke-width="2"/>
<path d="M327.253 260.479L452.691 206.337L578.007 260.479" stroke="#242424" stroke-width="2" stroke-dasharray="2 2"/>
<path d="M452.813 205.399V44.2705" stroke="#242424" stroke-width="2" stroke-dasharray="2 2"/>
<g style="mix-blend-mode:multiply">
<path d="M577 260.499L453.001 42.9991L326.001 260.499L577 260.499Z" fill="url(#paint0_linear_725_41)"/>
</g>
<path d="M87.0254 293.127L309.793 154.088L66.1928 1.99896L87.0254 293.127Z" stroke="#242424" stroke-width="2"/>
<path d="M65.9586 2.41962L255 142.5L87.0089 292.961L65.9586 2.41962Z" fill="#14FF14" stroke="#242424" stroke-width="2"/>
<path d="M259.722 139.192C258.602 139.192 257.636 138.952 256.826 138.472C256.026 137.981 255.407 137.304 254.97 136.44C254.543 135.565 254.33 134.557 254.33 133.416C254.33 132.274 254.543 131.266 254.97 130.392C255.407 129.517 256.026 128.834 256.826 128.344C257.636 127.853 258.602 127.608 259.722 127.608C261.076 127.608 262.186 127.944 263.05 128.616C263.914 129.288 264.452 130.237 264.666 131.464H262.314C262.175 130.866 261.882 130.402 261.434 130.072C260.996 129.73 260.42 129.56 259.706 129.56C259.044 129.56 258.474 129.72 257.994 130.04C257.524 130.349 257.162 130.792 256.906 131.368C256.65 131.933 256.522 132.616 256.522 133.416C256.522 134.205 256.65 134.888 256.906 135.464C257.162 136.04 257.524 136.482 257.994 136.792C258.474 137.101 259.044 137.256 259.706 137.256C260.42 137.256 260.996 137.101 261.434 136.792C261.871 136.472 262.159 136.029 262.298 135.464H264.666C264.452 136.626 263.914 137.538 263.05 138.2C262.186 138.861 261.076 139.192 259.722 139.192Z" fill="#242424"/>
<path d="M255.502 168V156.8H260.094C260.873 156.8 261.529 156.922 262.062 157.168C262.596 157.413 262.996 157.754 263.262 158.192C263.54 158.618 263.678 159.114 263.678 159.68C263.678 160.245 263.556 160.72 263.31 161.104C263.065 161.488 262.74 161.786 262.334 162C261.94 162.202 261.502 162.32 261.022 162.352L261.278 162.176C261.79 162.197 262.244 162.336 262.638 162.592C263.044 162.837 263.358 163.168 263.582 163.584C263.817 164 263.934 164.453 263.934 164.944C263.934 165.541 263.79 166.069 263.502 166.528C263.214 166.986 262.798 167.349 262.254 167.616C261.71 167.872 261.044 168 260.254 168H255.502ZM257.662 166.24H259.902C260.489 166.24 260.942 166.106 261.262 165.84C261.582 165.573 261.742 165.189 261.742 164.688C261.742 164.186 261.577 163.797 261.246 163.52C260.916 163.232 260.457 163.088 259.87 163.088H257.662V166.24ZM257.662 161.472H259.742C260.308 161.472 260.734 161.344 261.022 161.088C261.321 160.832 261.47 160.469 261.47 160C261.47 159.541 261.321 159.184 261.022 158.928C260.734 158.661 260.302 158.528 259.726 158.528H257.662V161.472Z" fill="#242424"/>
<path d="M103.664 154.299C102.397 154.299 101.272 154.074 100.289 153.624C99.3058 153.174 98.5392 152.532 97.9892 151.699C97.4392 150.866 97.1558 149.874 97.1392 148.724H100.314C100.314 149.307 100.447 149.832 100.714 150.299C100.997 150.749 101.381 151.107 101.864 151.374C102.364 151.641 102.964 151.774 103.664 151.774C104.264 151.774 104.781 151.682 105.214 151.499C105.664 151.299 106.006 151.024 106.239 150.674C106.489 150.307 106.614 149.882 106.614 149.399C106.614 148.849 106.481 148.399 106.214 148.049C105.964 147.682 105.614 147.374 105.164 147.124C104.714 146.874 104.197 146.657 103.614 146.474C103.031 146.274 102.414 146.066 101.764 145.849C100.381 145.382 99.3392 144.791 98.6392 144.074C97.9392 143.341 97.5892 142.366 97.5892 141.149C97.5892 140.132 97.8308 139.257 98.3142 138.524C98.7975 137.791 99.4725 137.224 100.339 136.824C101.222 136.407 102.239 136.199 103.389 136.199C104.556 136.199 105.572 136.407 106.439 136.824C107.322 137.241 108.014 137.824 108.514 138.574C109.031 139.307 109.297 140.191 109.314 141.224H106.114C106.097 140.791 105.981 140.391 105.764 140.024C105.547 139.641 105.231 139.332 104.814 139.099C104.414 138.849 103.922 138.724 103.339 138.724C102.839 138.707 102.389 138.791 101.989 138.974C101.606 139.141 101.297 139.391 101.064 139.724C100.847 140.041 100.739 140.441 100.739 140.924C100.739 141.391 100.839 141.782 101.039 142.099C101.256 142.399 101.564 142.657 101.964 142.874C102.364 143.074 102.831 143.266 103.364 143.449C103.897 143.632 104.481 143.832 105.114 144.049C105.981 144.332 106.764 144.682 107.464 145.099C108.181 145.499 108.747 146.024 109.164 146.674C109.581 147.324 109.789 148.166 109.789 149.199C109.789 150.099 109.556 150.941 109.089 151.724C108.622 152.491 107.939 153.116 107.039 153.599C106.139 154.066 105.014 154.299 103.664 154.299ZM118.581 154.299C117.348 154.299 116.239 154.024 115.256 153.474C114.289 152.907 113.531 152.132 112.981 151.149C112.448 150.149 112.181 149.016 112.181 147.749C112.181 146.432 112.448 145.282 112.981 144.299C113.531 143.299 114.289 142.516 115.256 141.949C116.239 141.382 117.356 141.099 118.606 141.099C120.173 141.099 121.489 141.516 122.556 142.349C123.623 143.166 124.306 144.291 124.606 145.724H121.456C121.289 145.091 120.939 144.591 120.406 144.224C119.889 143.857 119.273 143.674 118.556 143.674C117.939 143.674 117.373 143.832 116.856 144.149C116.356 144.466 115.956 144.924 115.656 145.524C115.373 146.124 115.231 146.849 115.231 147.699C115.231 148.349 115.314 148.924 115.481 149.424C115.648 149.924 115.881 150.349 116.181 150.699C116.498 151.032 116.856 151.291 117.256 151.474C117.656 151.657 118.089 151.749 118.556 151.749C119.039 151.749 119.473 151.674 119.856 151.524C120.256 151.357 120.589 151.116 120.856 150.799C121.139 150.482 121.339 150.107 121.456 149.674H124.606C124.306 151.074 123.623 152.199 122.556 153.049C121.489 153.882 120.164 154.299 118.581 154.299ZM127.624 153.999V141.399H130.624V153.999H127.624ZM129.124 139.399C128.574 139.399 128.115 139.232 127.749 138.899C127.399 138.549 127.224 138.124 127.224 137.624C127.224 137.107 127.399 136.691 127.749 136.374C128.115 136.041 128.574 135.874 129.124 135.874C129.674 135.874 130.124 136.041 130.474 136.374C130.84 136.691 131.024 137.107 131.024 137.624C131.024 138.124 130.84 138.549 130.474 138.899C130.124 139.232 129.674 139.399 129.124 139.399ZM139.991 154.299C138.741 154.299 137.641 154.032 136.691 153.499C135.741 152.949 134.999 152.182 134.466 151.199C133.932 150.216 133.666 149.082 133.666 147.799C133.666 146.466 133.924 145.299 134.441 144.299C134.974 143.299 135.716 142.516 136.666 141.949C137.632 141.382 138.749 141.099 140.016 141.099C141.249 141.099 142.324 141.374 143.241 141.924C144.157 142.474 144.866 143.216 145.366 144.149C145.866 145.066 146.116 146.099 146.116 147.249C146.116 147.416 146.116 147.599 146.116 147.799C146.116 147.999 146.099 148.207 146.066 148.424H135.816V146.499H143.091C143.057 145.582 142.749 144.866 142.166 144.349C141.582 143.816 140.857 143.549 139.991 143.549C139.374 143.549 138.807 143.691 138.291 143.974C137.774 144.257 137.366 144.682 137.066 145.249C136.766 145.799 136.616 146.499 136.616 147.349V148.074C136.616 148.857 136.757 149.532 137.041 150.099C137.341 150.666 137.741 151.099 138.241 151.399C138.757 151.682 139.332 151.824 139.966 151.824C140.666 151.824 141.241 151.674 141.691 151.374C142.157 151.074 142.499 150.674 142.716 150.174H145.766C145.532 150.957 145.149 151.666 144.616 152.299C144.082 152.916 143.424 153.407 142.641 153.774C141.857 154.124 140.974 154.299 139.991 154.299ZM148.885 153.999V141.399H151.535L151.76 143.499C152.144 142.766 152.694 142.182 153.41 141.749C154.127 141.316 154.977 141.099 155.96 141.099C156.977 141.099 157.844 141.316 158.56 141.749C159.277 142.166 159.827 142.782 160.21 143.599C160.61 144.416 160.81 145.432 160.81 146.649V153.999H157.81V146.924C157.81 145.874 157.577 145.066 157.11 144.499C156.644 143.932 155.952 143.649 155.035 143.649C154.435 143.649 153.894 143.791 153.41 144.074C152.944 144.357 152.569 144.774 152.285 145.324C152.019 145.857 151.885 146.507 151.885 147.274V153.999H148.885ZM169.948 154.299C168.715 154.299 167.607 154.024 166.623 153.474C165.657 152.907 164.898 152.132 164.348 151.149C163.815 150.149 163.548 149.016 163.548 147.749C163.548 146.432 163.815 145.282 164.348 144.299C164.898 143.299 165.657 142.516 166.623 141.949C167.607 141.382 168.723 141.099 169.973 141.099C171.54 141.099 172.857 141.516 173.923 142.349C174.99 143.166 175.673 144.291 175.973 145.724H172.823C172.657 145.091 172.307 144.591 171.773 144.224C171.257 143.857 170.64 143.674 169.923 143.674C169.307 143.674 168.74 143.832 168.223 144.149C167.723 144.466 167.323 144.924 167.023 145.524C166.74 146.124 166.598 146.849 166.598 147.699C166.598 148.349 166.682 148.924 166.848 149.424C167.015 149.924 167.248 150.349 167.548 150.699C167.865 151.032 168.223 151.291 168.623 151.474C169.023 151.657 169.457 151.749 169.923 151.749C170.407 151.749 170.84 151.674 171.223 151.524C171.623 151.357 171.957 151.116 172.223 150.799C172.507 150.482 172.707 150.107 172.823 149.674H175.973C175.673 151.074 174.99 152.199 173.923 153.049C172.857 153.882 171.532 154.299 169.948 154.299ZM184.766 154.299C183.516 154.299 182.416 154.032 181.466 153.499C180.516 152.949 179.774 152.182 179.241 151.199C178.708 150.216 178.441 149.082 178.441 147.799C178.441 146.466 178.699 145.299 179.216 144.299C179.749 143.299 180.491 142.516 181.441 141.949C182.408 141.382 183.524 141.099 184.791 141.099C186.024 141.099 187.099 141.374 188.016 141.924C188.933 142.474 189.641 143.216 190.141 144.149C190.641 145.066 190.891 146.099 190.891 147.249C190.891 147.416 190.891 147.599 190.891 147.799C190.891 147.999 190.874 148.207 190.841 148.424H180.591V146.499H187.866C187.833 145.582 187.524 144.866 186.941 144.349C186.358 143.816 185.633 143.549 184.766 143.549C184.149 143.549 183.583 143.691 183.066 143.974C182.549 144.257 182.141 144.682 181.841 145.249C181.541 145.799 181.391 146.499 181.391 147.349V148.074C181.391 148.857 181.533 149.532 181.816 150.099C182.116 150.666 182.516 151.099 183.016 151.399C183.533 151.682 184.108 151.824 184.741 151.824C185.441 151.824 186.016 151.674 186.466 151.374C186.933 151.074 187.274 150.674 187.491 150.174H190.541C190.308 150.957 189.924 151.666 189.391 152.299C188.858 152.916 188.199 153.407 187.416 153.774C186.633 154.124 185.749 154.299 184.766 154.299Z" fill="#242424"/>
<defs>
<linearGradient id="paint0_linear_725_41" x1="452.5" y1="120" x2="326.901" y2="258.397" gradientUnits="userSpaceOnUse">
<stop stop-color="#14FF14" stop-opacity="0"/>
<stop offset="1" stop-color="#14FF14"/>
</linearGradient>
</defs>
</svg>
