<svg width="38" height="38" viewBox="0 0 38 38" fill="none" xmlns="http://www.w3.org/2000/svg">
<circle cx="19" cy="19" r="19" fill="#14FF14"/>
<path fill-rule="evenodd" clip-rule="evenodd" d="M14.7385 12.7424C14.1848 12.4655 13.5734 12.9979 13.7714 13.5846L15.5586 18.8793C15.5568 18.8909 15.5559 18.9027 15.5559 18.9148C15.5559 18.9275 15.5569 18.9399 15.5589 18.9521L13.759 24.4211C13.5663 25.0068 14.1764 25.5341 14.7278 25.2583L26.006 19.618C26.5171 19.3624 26.5171 18.6329 26.006 18.3773L14.7385 12.7424ZM15.9818 19.1459L14.1981 24.5657C14.1339 24.7609 14.3373 24.9367 14.5211 24.8448L25.7993 19.2045C25.9696 19.1193 25.9696 18.8761 25.7993 18.7909L14.5318 13.1559C14.3472 13.0636 14.1434 13.2411 14.2094 13.4367L15.9804 18.6836H20.3465C20.4741 18.6836 20.5776 18.7871 20.5776 18.9148C20.5776 19.0424 20.4741 19.1459 20.3465 19.1459H15.9818Z" fill="#242424" stroke="#242424" stroke-linejoin="bevel"/>
</svg>
